<svg viewBox="0 0 587.05 415" xmlns="http://www.w3.org/2000/svg"><path d="M108.5 0l114.25 161.75 36.33-25.66L162.95 0zm297.67 10.46l-4.25 3L412.15 28l36.33-25.7-1.63-2.3h-34.7a14.34 14.34 0 01-5.98 10.46z" fill="#05a357"/><path d="M395.13 39.99l-15.41 10.88-11.04 7.8 43.47-30.71-8.59 6.07zm-59.52 42.04l20.64-14.58-5.93 4.19zm-77.92 33.87L176.14.45l-.32-.45h-12.87l96.13 136.09 16.42-11.6-7.84 5.53z" fill="#fff"/><path d="M393.34 19.56l10.22 14.47 8.59-6.07-10.23-14.48z" fill="#fff"/><path d="M175.82 0l.32.45.64-.45zm12.64 0l77.65 109.92-45.95-65.05zm77.65 109.92l-8.42 5.98 9.97 14.12 7.84-5.53.6-.43zm9.39 14.57l.6-.43zm119.63-84.5l8.43-5.96-10.22-14.47-8.41 5.98zm0 0l8.43-5.96z" fill="#174291"/><path d="M266.11 109.92l9.99 14.14 15.41-10.88L281.49 99zm9.99 14.14l15.41-10.88zm108.83-98.52l-15.39 10.92 10.18 14.41 15.41-10.88zm-5.21 25.33l15.41-10.88z" fill="#5b91f4"/><path d="M345.62 74.96l-10.01 7.07 14.71-10.39zm-43.08 30.42l-11.03 7.8 11.12-7.86z" fill="#fff"/><path d="M291.51 113.18l15.07-10.65-3.95 2.79zm.99-22.01L281.49 99l10.02 14.18 11.03-7.8zm77.04-54.71l-11.01 7.83 10.15 14.38 11.04-7.8z" fill="#fff"/><path d="M356.25 67.45l12.43-8.78-18.36 12.97z" fill="#05a357"/><path d="M350.32 71.64l18.36-12.97-23.06 16.29zm-20.73 14.64l.09-.06-27.14 19.16.09-.06z" fill="#05a357"/><path d="M302.63 105.32l3.95-2.79 23.01-16.25z" fill="#05a357"/><path d="M306.58 102.53l29.03-20.5-6.02 4.25z" fill="#05a357"/><path d="M329.59 86.28l6.02-4.25-5.93 4.19z" fill="#05a357"/><path d="M292.5 91.17l10.04 14.21 27.14-19.16 15.94-11.26 23.06-16.29-10.15-14.38z" fill="#05a357"/><path d="M329.68 86.22l5.93-4.19 10.01-7.07z" fill="#05a357"/><path d="M401.92 13.48l4.25-3a14.34 14.34 0 006-10.46H392.4z" fill="#156a41"/><path d="M379.53 0l13.81 19.56 8.58-6.08L392.4 0z" fill="#5b91f4"/><path d="M366.88 0l18.05 25.54 8.41-5.98L379.53 0zm0 0l18.05 25.54z" fill="#102c60"/><path d="M211.56 0h-23.1l31.7 44.87 45.95 65.05L281.49 99l-14.54-20.59zm8.6 44.87L188.46 0zM366.88 0h-23.09l8.67 12.27 17.08 24.19 15.39-10.92z" fill="#174291"/><path d="M228.11 0h-16.55l55.39 78.41L281.49 99l11.01-7.83-40.86-57.85zm115.68 0h-16.55l4.37 6.19 26.92 38.1 11.01-7.83-17.08-24.19z" fill="#5b91f4"/><path d="M327.24 0h-99.13l23.53 33.32 40.86 57.85 66.03-46.88-26.92-38.1z" fill="#156a41"/><path d="M176.14.45l81.55 115.45zm.64-.45l-.64.45 81.55 115.45 8.42-5.98L188.46 0z" fill="#102c60"/><path d="M223.435 161.09L449.583 1.132 460.22 16.17 234.072 176.13z" fill="#bc8b2c"/><path d="M244.78 197.64c-1.75-.17-3.49-.26-5.21-.27a39.74 39.74 0 00-8-23.39c1.54-.87 3.12-1.69 4.75-2.44a44.82 44.82 0 018.46 26.1z" fill="#bc8b2c"/><path d="M249.92 188.16l-5.15.46a36.79 36.79 0 00-8.92-21l3.89-3.4a42 42 0 0110.18 23.94zm15.69-13.62l-3.19 4.06a77.74 77.74 0 01-16.57-17.91l4.3-2.87a72.71 72.71 0 0015.46 16.72zm9.04-5.47l-4.93 1.53a36.87 36.87 0 00-13.14-18.6l3.09-4.15a42 42 0 0114.98 21.22zm10.57-7.44l-3.1 4.14a42 42 0 01-15-21.21l4.94-1.53a36.8 36.8 0 0013.16 18.6zm11.67-8.74l-3.65 3.66a150.49 150.49 0 01-15.35-17.91l4.18-3a144.55 144.55 0 0014.82 17.25zm9.31-7.15l-4.94 1.53a36.75 36.75 0 00-13.14-18.6c1-1.38 2.07-2.76 3.1-4.15a42 42 0 0114.98 21.22zm7.04-1.65l-5.17-.13a29.76 29.76 0 00-8.21-21.24l3.74-3.57a35 35 0 019.64 24.94zm16.81-15.5c-.43 1.67-.85 3.34-1.28 5a30.28 30.28 0 01-20.63-18.14l4.81-1.91a25.08 25.08 0 0017.1 15.05zm5.95-4.67l-5.26.6a37.84 37.84 0 00-9.72-21.24l3.98-3.59a43.08 43.08 0 0111 24.23zm78.81-54.32l-3.65 3.66a151.43 151.43 0 01-15.34-17.92l4.18-3a145.25 145.25 0 0014.81 17.26zm9.04-8.11L418.91 63a36.8 36.8 0 00-13.14-18.6l3.1-4.14a42 42 0 0114.98 21.23zm7.31-.7l-5.16-.12a29.76 29.76 0 00-8.21-21.25l3.74-3.56a34.93 34.93 0 019.63 24.93zm17.78-16.27q-.63 2.5-1.28 5A30.28 30.28 0 01427 31.39l4.81-1.91a25.06 25.06 0 0017.13 15.04zm7.27-.78l-5.27.61a37.79 37.79 0 00-9.71-21.25l3.9-3.59a43.12 43.12 0 0111.08 24.23zm-106.96 72.13l-4 3.31a149.52 149.52 0 01-13.61-19.27l4.44-2.64a146.16 146.16 0 0013.17 18.6zm10.53-6.4l-4.45 2.64a144.56 144.56 0 00-13.14-18.61l4-3.3a150.79 150.79 0 0113.59 19.27zm14.29-14.01l-.21 5.16a30.27 30.27 0 01-23.94-13.49l4.31-2.86a25.09 25.09 0 0019.84 11.19zm7.44.11l-4.94 1.53a36.8 36.8 0 00-13.14-18.6l3.1-4.14a42 42 0 0114.98 21.21zm-6.857-26.61l4.223-2.983 13.888 19.66-4.222 2.982zm30.517 9.44l-4.94 1.53a36.92 36.92 0 00-13.14-18.6l3.09-4.14a42 42 0 0114.99 21.21zm65.64-52.52c-.17 1.72-.33 3.43-.49 5.15A34.94 34.94 0 01446.7 18.5l4-3.3a29.73 29.73 0 0020.11 10.68z" fill="#bc8b2c"/><path d="M446.85 0h-2.34L220.34 158.34l10.58 14.98L456.65 13.88z" fill="#fff"/><path d="M242.84 195.11c-1.75-.17-3.49-.25-5.21-.27a39.76 39.76 0 00-8-23.39q2.31-1.3 4.76-2.44a44.88 44.88 0 018.45 26.1zm10.61-8.92l-5.15.45a36.83 36.83 0 00-8.93-20.95l3.9-3.4a42 42 0 0110.18 23.9zm15.69-13.63q-1.59 2-3.2 4.06a78.08 78.08 0 01-16.56-17.9l4.3-2.88a72.51 72.51 0 0015.46 16.72zm9.7-3.95l-4.93 1.53a36.83 36.83 0 00-13.15-18.6c1-1.38 2.07-2.77 3.1-4.15a42 42 0 0114.98 21.22zm9.91-8.95l-3.1 4.14a42 42 0 01-15-21.22l4.94-1.53a36.78 36.78 0 0013.16 18.61zm11.66-8.74l-3.65 3.66a151.43 151.43 0 01-15.34-17.92l4.18-3a146.18 146.18 0 0014.81 17.26zm10.29-4.82l-4.94 1.54A36.78 36.78 0 00292.62 129l3.1-4.14a42 42 0 0114.98 21.24zm6.06-3.99l-5.16-.11a29.79 29.79 0 00-8.22-21.25l3.75-3.56a34.87 34.87 0 019.63 24.92zm16.82-15.5c-.43 1.67-.85 3.34-1.28 5a30.25 30.25 0 01-20.63-18.14l4.8-1.91a25.09 25.09 0 0017.11 15.05zm7.25-.95l-5.27.61a37.79 37.79 0 00-9.71-21.27l3.9-3.58a43.06 43.06 0 0111.08 24.24zm77.51-58.04l-3.65 3.66a148.8 148.8 0 01-15.34-17.92l4.18-3a145.25 145.25 0 0014.81 17.26zm10.29-4.81l-4.94 1.53a36.87 36.87 0 00-13.14-18.6l3.09-4.15a42.07 42.07 0 0114.99 21.22zm6.06-4l-5.17-.12a29.72 29.72 0 00-8.21-21.24l3.74-3.57a34.93 34.93 0 019.64 24.93zm16.81-15.49c-.42 1.67-.85 3.34-1.27 5a30.25 30.25 0 01-20.63-18.14l4.8-1.9a25.08 25.08 0 0017.1 15.04zm7.25-.95l-5.26.6a37.84 37.84 0 00-9.72-21.24l3.91-3.59a43.08 43.08 0 0111.07 24.23zm-105.97 71.52l-4 3.31a149.52 149.52 0 01-13.58-19.27l4.44-2.64a144.75 144.75 0 0013.14 18.6zm10.53-6.4l-4.45 2.64a143.77 143.77 0 00-13.14-18.6l4-3.31a151.5 151.5 0 0113.59 19.27zm14.29-14.01c-.07 1.72-.14 3.44-.22 5.16a30.26 30.26 0 01-23.93-13.48l4.31-2.86a25.11 25.11 0 0019.84 11.18zm7.4.12l-4.94 1.53A36.78 36.78 0 00367 76.52l3.09-4.14A42 42 0 01385 93.6zm-6.834-26.608l4.222-2.983 13.889 19.659-4.223 2.983zM407.5 77.73l-4.93 1.53a36.87 36.87 0 00-13.15-18.6l3.1-4.14a42 42 0 0114.98 21.21zm68.34-54.28c-.16 1.72-.33 3.43-.49 5.15a35 35 0 01-23.62-12.53l4-3.3a29.75 29.75 0 0020.11 10.68z" fill="#fff"/><path d="M157 14a14.34 14.34 0 00-3.39 20l65.22 91.85a14.35 14.35 0 0020 3.39l10.27-7.3-81.53-115.4z" fill="#156a41"/><path d="M167.57 6.54l81.55 115.44 8.57-6.08L176.14.45z" fill="#5b91f4"/><path d="M587 3.75a72.6 72.6 0 00-19.22 3.41l-21 6.75L500 20.17A51 51 0 00466.14 40l-40.91 54.22-26.41 40.88a23.66 23.66 0 00-2.92 6.53l-9.24 33.8a4.9 4.9 0 005.92 6l3.27-.81a25.73 25.73 0 0016.73-13.41l7.24-14.43 5.88-4.28a57.25 57.25 0 0017.54-20.7l31.21-22.8 13-1.08a11.72 11.72 0 019.6 3.73l16.33 17.7a13.52 13.52 0 013.3 12l-1.52 7.19a27.54 27.54 0 01-2 6l-5.61 11.87a59.34 59.34 0 00-2.53 44.4 18.14 18.14 0 0022.07 11.63 2.93 2.93 0 002.14-2.64l1.66-25.21a41.56 41.56 0 018.13-22.1l11-14.78a143.27 143.27 0 0018.93-34.53l6.32-16.62A39.43 39.43 0 01587 86.2z" fill="#bc8b2c"/><path d="M587 241.38a192.69 192.69 0 00-173.7-109.2c-106.41 0-192.67 86.26-192.67 192.67A191.84 191.84 0 00242.92 415H583.6c1.17-2.2 2.28-4.43 3.36-6.68z" fill="#bc8b2c"/><path d="M587 207.06a192.51 192.51 0 00-161.3-87.28C319.25 119.78 233 206 233 312.45a191.81 191.81 0 0029.48 102.47H587z" fill="#174291"/><path d="M587 227.74a182.19 182.19 0 10-312 187.18h301.29A182.56 182.56 0 00587 397.17z" fill="#d4e2fc"/><g fill="#174291"><circle cx="581.44" cy="405.35" r="4.27"/><path d="M558.05 395.77a5.32 5.32 0 003.9 3.87l14.67 3.59a.68.68 0 00.67-1.12l-10.12-11.21a5.34 5.34 0 00-5.26-1.6 5.33 5.33 0 00-3.86 6.47zm9.02-11.21a5.32 5.32 0 001.15 5.37l10.33 11a.69.69 0 001.18-.58l-2.37-14.91a5.29 5.29 0 00-3.53-4.2 5.32 5.32 0 00-6.76 3.32zm19.93-4.69a5.32 5.32 0 00-6.23.21 5.36 5.36 0 00-2 5.14l2.66 14.86a.69.69 0 001.3.16l4.23-9.48zm-30.78 22.86a5.32 5.32 0 015.28-1.53l14.59 3.87a.69.69 0 010 1.31l-14.25 5a5.34 5.34 0 01-5.38-1.12 5.31 5.31 0 01-.24-7.53zM573 414.92l4.5-5.84a.69.69 0 00-.76-1.07l-14.34 4.71a5.32 5.32 0 00-2.83 2.2z"/><circle cx="582.79" cy="221.84" r="4.27"/><path d="M563 237.58a5.32 5.32 0 005.28-1.52l10.29-11a.69.69 0 00-.66-1.14l-14.72 3.36a5.31 5.31 0 00-4 3.81 5.32 5.32 0 003.81 6.49zm-5.38-13.34a5.32 5.32 0 005.25 1.61l14.66-3.64a.69.69 0 00.07-1.31l-14.17-5.22a5.33 5.33 0 00-5.4 1 5.33 5.33 0 00-.41 7.56zm2.77-14.12a5.32 5.32 0 003.52 4.22l14.27 4.94a.69.69 0 00.77-1.06l-9-12.1a5.34 5.34 0 00-5.09-2.08 5.33 5.33 0 00-4.47 6.08zm7.79 32.45a5.33 5.33 0 011.24-5.35l10.51-10.84a.68.68 0 011.16.59l-2.6 14.87a5.31 5.31 0 01-3.6 4.15 5.33 5.33 0 01-6.71-3.42zm18.87-8.49l-3-6.94a.68.68 0 00-1.3.14l-2.85 14.82a5.3 5.3 0 007.15 6z"/><circle cx="519.2" cy="157.05" r="4.27"/><path d="M509.52 180.4a5.32 5.32 0 003.89-3.88l3.65-14.65a.69.69 0 00-1.12-.68l-11.25 10.07a5.34 5.34 0 00-1.62 5.25 5.32 5.32 0 006.45 3.89zm-11.17-9.06a5.32 5.32 0 005.37-1.13l11-10.29a.68.68 0 00-.57-1.18L499.28 161a5.36 5.36 0 00-4.22 3.52 5.33 5.33 0 003.29 6.82zm-4.42-13.69a5.34 5.34 0 005.12 2l14.87-2.6a.69.69 0 00.17-1.3l-13.76-6.21a5.34 5.34 0 00-5.46.65 5.32 5.32 0 00-.94 7.46zm22.54 24.61A5.34 5.34 0 01515 177l3.94-14.58a.68.68 0 011.3 0l4.94 14.27A5.34 5.34 0 01524 182a5.33 5.33 0 01-7.53.26zm14.17-2.48a5.32 5.32 0 01-4.15-3.61l-4.65-14.36a.68.68 0 011.07-.75l11.92 9.27a5.31 5.31 0 012 5.12 5.32 5.32 0 01-6.19 4.33z"/><circle cx="426.85" cy="131.07" r="4.27"/><path d="M430.44 156.09a5.32 5.32 0 001.36-5.32l-4.33-14.46a.69.69 0 00-1.31 0l-4.54 14.4a5.32 5.32 0 001.28 5.29 5.34 5.34 0 007.54.09zM416.21 154a5.3 5.3 0 004-3.72l4.26-14.48a.68.68 0 00-1.09-.72l-11.66 9.59a5.32 5.32 0 00-1.84 5.18 5.33 5.33 0 006.33 4.15zm-10.79-9.52a5.3 5.3 0 005.42-.91l11.47-9.81a.68.68 0 00-.52-1.2l-15 1.67a5.34 5.34 0 00-4.36 3.34 5.32 5.32 0 002.99 6.91zm31.94 9.67a5.33 5.33 0 01-4-3.77l-4.05-14.55a.68.68 0 011.1-.7l11.52 9.75a5.31 5.31 0 011.76 5.21 5.32 5.32 0 01-6.33 4.06zm10.92-9.36a5.32 5.32 0 01-5.4-1l-11.33-10a.68.68 0 01.54-1.19l15 1.89a5.35 5.35 0 014.32 3.4 5.33 5.33 0 01-3.13 6.9z"/><circle cx="333.59" cy="156.17" r="4.27"/><path d="M349.52 175.8a5.32 5.32 0 00-1.57-5.26l-11.14-10.19a.68.68 0 00-1.13.66l3.5 14.69a5.29 5.29 0 003.84 3.92 5.33 5.33 0 006.5-3.82zm-13.29 5.51a5.33 5.33 0 001.56-5.27L334 161.43a.68.68 0 00-1.31-.06l-5.08 14.21a5.34 5.34 0 001.09 5.42 5.34 5.34 0 007.53.31zm-14.14-2.63a5.35 5.35 0 004.18-3.56l4.81-14.32a.69.69 0 00-1.08-.8l-12 9.14a5.3 5.3 0 00-2 5.1 5.32 5.32 0 006.09 4.44zm32.37-8.1a5.31 5.31 0 01-5.36-1.19L338.16 159a.68.68 0 01.58-1.17l14.9 2.46a5.33 5.33 0 014.18 3.56 5.33 5.33 0 01-3.36 6.73zm4.54-13.64a5.33 5.33 0 01-5.15 1.93L339 156.12a.68.68 0 01-.15-1.3l13.82-6.07a5.32 5.32 0 015.45.71 5.32 5.32 0 01.88 7.48z"/><circle cx="269" cy="221.03" r="4.27"/><path d="M292.48 230.39a5.32 5.32 0 00-3.93-3.84l-14.7-3.45a.68.68 0 00-.66 1.13l10.22 11.11a5.31 5.31 0 005.27 1.55 5.32 5.32 0 003.8-6.5zm-8.91 11.29a5.32 5.32 0 00-1.2-5.36l-10.44-10.91a.69.69 0 00-1.17.59l2.51 14.89a5.32 5.32 0 003.57 4.17 5.32 5.32 0 006.73-3.38zM270 246.29a5.32 5.32 0 001.91-5.15l-2.79-14.84a.69.69 0 00-1.3-.15l-6 13.85a5.35 5.35 0 00.72 5.45 5.34 5.34 0 007.46.84zm24.25-22.88A5.32 5.32 0 01289 225l-14.63-3.73a.69.69 0 01-.06-1.31l14.2-5.13a5.32 5.32 0 015.39 1.07 5.33 5.33 0 01.35 7.51zm-2.68-14.13a5.33 5.33 0 01-3.55 4.2l-14.29 4.85a.69.69 0 01-.77-1.07l9.1-12a5.36 5.36 0 015.1-2.05 5.33 5.33 0 014.41 6.07z"/><circle cx="244.28" cy="312.37" r="4.27"/><path d="M269.27 308.63a5.31 5.31 0 00-5.33-1.33l-14.43 4.42a.68.68 0 000 1.31l14.42 4.45a5.35 5.35 0 005.34-1.32 5.32 5.32 0 000-7.53zm-2 14.24a5.33 5.33 0 00-3.74-4L249 314.68a.69.69 0 00-.72 1.1l9.66 11.6a5.34 5.34 0 005.19 1.8 5.33 5.33 0 004.14-6.31zm-9.45 10.84a5.33 5.33 0 00-.94-5.41L247 316.89a.69.69 0 00-1.2.53l1.77 15a5.35 5.35 0 003.37 4.35 5.33 5.33 0 006.88-3.06zm9.47-32a5.33 5.33 0 01-3.75 4L249 309.87a.69.69 0 01-.71-1.1l9.71-11.58a5.35 5.35 0 015.2-1.79 5.33 5.33 0 014.09 6.31zm-9.43-10.86a5.33 5.33 0 01-.95 5.41L247 307.65a.69.69 0 01-1.2-.53l1.8-15a5.32 5.32 0 013.4-4.32 5.33 5.33 0 016.86 3.05z"/><circle cx="269.94" cy="405.46" r="4.27"/><path d="M289.48 389.42a5.32 5.32 0 00-5.26 1.6l-10.12 11.2a.69.69 0 00.67 1.13l14.67-3.59a5.34 5.34 0 003.9-3.87 5.33 5.33 0 00-3.86-6.47zm5.58 13.26a5.31 5.31 0 00-5.27-1.53l-14.6 3.85a.68.68 0 00-.05 1.3l14.25 5a5.35 5.35 0 005.38-1.11 5.33 5.33 0 00.29-7.51zm-10.84-18.17a5.32 5.32 0 01-1.15 5.37l-10.34 11a.69.69 0 01-1.18-.57l2.37-14.91a5.33 5.33 0 013.54-4.21 5.33 5.33 0 016.76 3.32zM270.56 380a5.34 5.34 0 012 5.13l-2.7 14.87a.69.69 0 01-1.3.16l-6.15-13.79a5.32 5.32 0 01.67-5.45 5.32 5.32 0 017.48-.92zm7.81 34.92h13.41a5.3 5.3 0 00-2.85-2.25L274.59 408a.69.69 0 00-.76 1.07z"/></g><path d="M272.27 330.05A46.39 46.39 0 00284 373.9l4.43 4.54a46.54 46.54 0 0111.45 19.84l1.72 6.11a46.64 46.64 0 004.4 10.53h239.27a46.67 46.67 0 004.43-10.53l1.72-6.11a46.44 46.44 0 0111.45-19.84l4.43-4.54a46.39 46.39 0 0011.75-43.85l-1.57-6.15a46.48 46.48 0 010-22.9l1.57-6.15A46.39 46.39 0 00567.3 251l-4.43-4.54a46.33 46.33 0 01-11.45-19.84l-1.72-6.11a46.41 46.41 0 00-32.1-32.1l-6.11-1.72a46.33 46.33 0 01-19.84-11.45l-4.54-4.43a46.39 46.39 0 00-43.85-11.75l-6.15 1.57a46.48 46.48 0 01-22.9 0l-6.15-1.57a46.39 46.39 0 00-43.85 11.75l-4.55 4.43a46.35 46.35 0 01-19.83 11.45l-6.11 1.72a46.41 46.41 0 00-32.1 32.1l-1.72 6.11a46.43 46.43 0 01-11.45 19.84L284 251a46.39 46.39 0 00-11.75 43.85l1.56 6.15a46.24 46.24 0 010 22.9z" fill="#fff"/><path d="M425.66 387.14a74.69 74.69 0 1152.81-21.88 74.17 74.17 0 01-52.81 21.88zm0-142.33a67.64 67.64 0 1047.83 19.81 67.17 67.17 0 00-47.83-19.81z" fill="#d4e2fc"/><path d="M587 353.35a6.87 6.87 0 00-.61 12.12 5.07 5.07 0 00.61.32zm0-86.46a6.85 6.85 0 000 10.11z" fill="#5b91f4"/><circle cx="549.4" cy="194.66" fill="#5b91f4" r="6.87"/><circle cx="472.07" cy="148.04" fill="#5b91f4" r="6.87"/><circle cx="384.44" cy="146.66" fill="#5b91f4" r="6.87"/><circle cx="305.94" cy="190.57" fill="#5b91f4" r="6.87"/><circle cx="261.59" cy="264.85" fill="#5b91f4" r="6.87"/><circle cx="260.05" cy="354.41" fill="#5b91f4" r="6.87"/><path d="M587 308.8a5.32 5.32 0 100 10.38zm0-11.1a5.32 5.32 0 00-2.82 5.8 5.31 5.31 0 002.82 3.69zm0 23.24a5.32 5.32 0 000 9.73z" fill="#174291"/><path d="M262.39 253l32.95-21a57.6 57.6 0 0130.92-9h88.21l-2 110.72h-57.69a28.78 28.78 0 01-19.5-7.61l-23-21.19a41.92 41.92 0 00-28.38-11.07h-9.6a22.18 22.18 0 01-22.18-22.18A22.18 22.18 0 01262.39 253z" fill="#662a16"/><path d="M268.48 272a27.86 27.86 0 0012.39-12.39 27.91 27.91 0 0112.39-12.39 27.86 27.86 0 0012.39-12.39 28 28 0 019.35-10.69 55.79 55.79 0 00-6.72 1.76 27.81 27.81 0 01-6.76 4.77 27.86 27.86 0 00-12.39 12.39 27.91 27.91 0 01-12.39 12.39 27.89 27.89 0 00-12.38 12.39 27.82 27.82 0 01-10.88 11.56 22.25 22.25 0 002.58 4.93A27.91 27.91 0 01268.48 272zm144.02 24.29a27.83 27.83 0 01-8.89 7.06 27.91 27.91 0 00-12.39 12.39 27.91 27.91 0 01-12.39 12.39 27.85 27.85 0 00-7.59 5.61h10.86c.29-.49.57-1 .83-1.51a27.91 27.91 0 0112.39-12.39 28 28 0 0012.39-12.39 28.13 28.13 0 014.79-6.77zm-53.59 23.55a28 28 0 0012.39-12.39 28 28 0 0112.39-12.39 28 28 0 0012.39-12.39 27.86 27.86 0 0112.39-12.39 27.14 27.14 0 004-2.48v-11.36a27.93 27.93 0 00-8.12 9.73A27.86 27.86 0 01392 278.56 28 28 0 00379.6 291a28 28 0 01-12.39 12.39 28 28 0 00-12.39 12.39 27.86 27.86 0 01-12.39 12.39 27.55 27.55 0 00-2.53 1.45 28.69 28.69 0 006.5 2.9l.13-.25a27.86 27.86 0 0112.39-12.39zm-76.1-25.96a28.05 28.05 0 007.86-9.53A27.86 27.86 0 01303.06 272a27.86 27.86 0 0012.39-12.39 28 28 0 0112.39-12.39 27.91 27.91 0 0012.39-12.39A28 28 0 01351.42 223h-5.91a27.83 27.83 0 01-9.37 7.64 27.86 27.86 0 00-12.39 12.39 27.91 27.91 0 01-12.39 12.39A28 28 0 00299 267.85a28 28 0 01-12.39 12.39 27.81 27.81 0 00-12.39 12.39l-.62 1.22h.74zm55.73 11.75a28 28 0 0112.39-12.39 27.91 27.91 0 0012.39-12.39 27.86 27.86 0 0112.39-12.39 27.81 27.81 0 0012.39-12.39 28 28 0 0112.4-12.39 27.84 27.84 0 0012-11.64v-6.71l-3.7 1.86a27.93 27.93 0 00-12.39 12.4A28 28 0 01384 252a27.81 27.81 0 00-12.39 12.39 27.86 27.86 0 01-12.39 12.39 28 28 0 00-12.39 12.39 28 28 0 01-12.39 12.39 28 28 0 00-12.39 12.39l4.3 4a27.88 27.88 0 0012.19-12.32zm-20.62-13.96a27.91 27.91 0 0112.39-12.39 27.91 27.91 0 0012.39-12.39 27.86 27.86 0 0112.39-12.39 27.91 27.91 0 0012.39-12.39 27.91 27.91 0 0112.39-12.39 28 28 0 008.57-6.68h-11.17a27.43 27.43 0 00-1.49 2.58A27.86 27.86 0 01363.39 238 28 28 0 00351 250.39a28 28 0 01-12.39 12.39 27.86 27.86 0 00-12.39 12.39 27.81 27.81 0 01-12.39 12.39 27.9 27.9 0 00-11.43 10.64 40.83 40.83 0 016.41 3.91 27.91 27.91 0 009.11-10.44z" fill="#5a0a00"/><path d="M411.1 224.43a24 24 0 00-7 17v66.4a44 44 0 008.44 25.92 12 12 0 0012-12v-53.81a16.77 16.77 0 00-2-7.91 28.07 28.07 0 01-3.27-13.16V227.8a4.77 4.77 0 00-4.78-4.77 4.76 4.76 0 00-3.39 1.4z" fill="#e8503d"/><path d="M350.47 204.1v-.89a10.65 10.65 0 013.07-7.56l18.62-18.88a16.17 16.17 0 0111.41-4.77l13.23-.1a16.17 16.17 0 0111.48 4.67l9.56 9.41a13.36 13.36 0 003.22 2.36l4.06 2.14a17.61 17.61 0 019.41 15.47v2.75z" fill="#662a16"/><path d="M383 175.5a25.9 25.9 0 0013.17 9.5 25.75 25.75 0 0113.15 9.47 25.75 25.75 0 0013.15 9.47 25.9 25.9 0 018.47 4.55l3.61.19v-1.36a25.82 25.82 0 01-8.94-7.72 25.75 25.75 0 00-13.15-9.47 25.83 25.83 0 01-13.15-9.47 25.85 25.85 0 00-11.05-8.71h-4.68a15.62 15.62 0 00-3.28.36 25.24 25.24 0 012.7 3.19zm11.82 27.65a25.75 25.75 0 01-13.15-9.47 25.76 25.76 0 00-13.14-9.47l-2.84-.89-2.36 2.39 2.06 2.85a25.94 25.94 0 0013.15 9.44 25.75 25.75 0 0112.2 8.25l11.52.63a25.93 25.93 0 00-7.44-3.73z" fill="#5a0a00"/><path d="M367.56 212.18l64-.45a3.05 3.05 0 003-3.08 3.05 3.05 0 00-2.16-2.9l-10.15-3.1a32.13 32.13 0 00-9.55-1.39l-59.51.42a2.73 2.73 0 00-1.7 4.84 25.17 25.17 0 0016.07 5.66z" fill="#e8503d"/><path d="M430.49 222.06a24 24 0 00-7 17v75.14a17.19 17.19 0 003.29 10.12 17.19 17.19 0 0013.89 7.06h1l2.21-70-5.24-9.88 7-30.83h-11.78a4.76 4.76 0 00-3.37 1.39z" fill="#662a16"/><path d="M425.27 285.67a31.35 31.35 0 0014-14 31.63 31.63 0 014.31-6.44l.17-5.07a31.49 31.49 0 01-9.1 6.9 31.47 31.47 0 00-11.16 9.41v10.16c.59-.35 1.19-.68 1.81-1zm-1.82-40.39v9.12c.56-.89 1.09-1.8 1.56-2.74a31.42 31.42 0 0114-14 30.32 30.32 0 003.22-1.87l3.45-15.16a31.41 31.41 0 00-11.26 12.41 31.39 31.39 0 01-10.97 12.24zm9.3 72.37a31.65 31.65 0 009.59-7.46l.36-11.44-.61.32a31.42 31.42 0 00-14 14l-3.6 7.14c.17.45.36.89.56 1.33z" fill="#5a0a00"/><path d="M442.48 222.06a24 24 0 00-7 17v86.36a6 6 0 006 6 6 6 0 004.22-1.74l3.63-3.63a22.6 22.6 0 006.62-16v-44.48a16.88 16.88 0 00-2-7.91 28.08 28.08 0 01-3.28-13.16v-19.07a4.77 4.77 0 00-4.77-4.77 4.74 4.74 0 00-3.42 1.4z" fill="#e8503d"/><path d="M457.54 197.61a24 24 0 00-7 17v75.15a17.18 17.18 0 003.29 10.11 17.2 17.2 0 0013.89 7.07h1l2.22-70-5.26-9.94 7-30.83h-11.77a4.8 4.8 0 00-3.37 1.44z" fill="#662a16"/><path d="M469.81 272.26a31.32 31.32 0 01-8.73 6.51 31.46 31.46 0 00-10.57 8.64v2.35a17.12 17.12 0 001.67 7.36 31.46 31.46 0 0013.52-13.73 31.32 31.32 0 014-6zm.07-37.26a31.46 31.46 0 00-12.74 13.31 31.53 31.53 0 01-6.64 8.86v5.29a31.44 31.44 0 0111.25-9.53 31.68 31.68 0 008.88-6.67l.29-9.29zm-19.38-3.17a31.37 31.37 0 007.31-9.46 31.44 31.44 0 0111.84-12.78l3-13.37h-.19a31.46 31.46 0 00-5.35 7.58 31.47 31.47 0 01-14 14 29.87 29.87 0 00-2.7 1.54z" fill="#5a0a00"/><path d="M469.53 197.61a24.06 24.06 0 00-7 17V301a6 6 0 006 6 6 6 0 004.22-1.75l3.63-3.63a22.58 22.58 0 006.62-16v-44.5a16.91 16.91 0 00-2-7.91 28 28 0 01-3.28-13.16V201a4.78 4.78 0 00-4.77-4.77 4.77 4.77 0 00-3.42 1.38z" fill="#e8503d"/><path d="M496.79 219.42a24 24 0 00-7.05 17v62a17.19 17.19 0 003.26 10.15 17.19 17.19 0 0013.89 7.06h1l2.21-56.9-5.24-9.88 7-30.83h-11.71a4.72 4.72 0 00-3.36 1.4z" fill="#662a16"/><path d="M509.47 276.93a26.93 26.93 0 00-9.76 10.73 27 27 0 01-10 10.86 17.24 17.24 0 001.25 6.36c.24-.41.47-.83.68-1.25a27 27 0 0112-12 26.52 26.52 0 005.36-3.55zm-19.73-34.4a27 27 0 017-5.06 27 27 0 0012-12 25.88 25.88 0 012.41-3.9l.8-3.55h-1.89a27.1 27.1 0 01-5.28 3.48 27 27 0 00-12 12 27.69 27.69 0 01-3 4.72zm5.05 27.15a27 27 0 0012-12 27.18 27.18 0 011.48-2.57l-1.89-3.55a25.6 25.6 0 01-3.55 2.15 27 27 0 00-12 12c-.33.67-.69 1.31-1.08 1.94V273a27.31 27.31 0 015-3.29z" fill="#5a0a00"/><path d="M508.77 219.42a24 24 0 00-7 17v73.25a6 6 0 006 6 6 6 0 004.22-1.74l3.63-3.63a22.6 22.6 0 006.62-16v-31.37a16.88 16.88 0 00-2-7.91 28.08 28.08 0 01-3.28-13.16v-19.07a4.77 4.77 0 00-4.77-4.77 4.74 4.74 0 00-3.42 1.4z" fill="#e8503d"/><path d="M313.76 412.35a27.55 27.55 0 001.81 2.57h119.05a52.7 52.7 0 001.07-10.59v-27a28.77 28.77 0 00-28.77-28.76h-44.21a28.75 28.75 0 01-20.34-8.43l-3.87-3.87a28.77 28.77 0 00-40.68 0l-3.28 3.29a28.77 28.77 0 00-4.05 35.59z" fill="#3d281e"/><path d="M392.51 402.33l43.18-17.03v15.9zm-81.12 6.24l26.88-19.53-31.07 12.83z"/><path d="M379 406l66.37-17.78a2.07 2.07 0 00.92-3.46l-48.59-48.63a2.07 2.07 0 00-3.46.92l-17.78 66.37A2.06 2.06 0 00379 406z" fill="#ffc043"/><path d="M393.59 414.92a23.74 23.74 0 00-40.35-19.66l19.65 19.66z" fill="#3d281e"/><path d="M364.42 370.27l-61.29-35.38a2.13 2.13 0 00-3.19 1.84v70.77a2.13 2.13 0 003.19 1.84L364.42 374a2.12 2.12 0 000-3.73z" fill="#ffc043"/><path d="M350.46 406.29A23.74 23.74 0 01384 372.71z" fill="#3d281e"/><path d="M365 376l-.26-.55a1.27 1.27 0 00-1.89-.51l-.49.35-.6-.05a1.27 1.27 0 00-1.39 1.38l.06.6-.35.49a1.28 1.28 0 00.51 1.9l.55.25.25.55a1.26 1.26 0 001.89.5l.49-.35.6.06a1.27 1.27 0 001.39-1.38l-.06-.6.35-.5a1.26 1.26 0 00-.5-1.89zm-10.1 24.69l.29-.76a1.71 1.71 0 00-1.32-2.28l-.8-.14-.52-.62a1.7 1.7 0 00-2.63 0l-.51.62-.8.14a1.71 1.71 0 00-1.32 2.28l.29.76-.29.76a1.7 1.7 0 001.32 2.27l.8.14.51.62a1.7 1.7 0 002.63 0l.52-.62.8-.14a1.7 1.7 0 001.32-2.27zm20.04-5.63l-.45-1a2.31 2.31 0 00-3.43-.92l-.89.64-1.09-.11a2.31 2.31 0 00-2.51 2.51l.11 1.09-.64.89a2.31 2.31 0 00.92 3.43l1 .45.45 1a2.3 2.3 0 003.43.92l.89-.64 1.09.11a2.3 2.3 0 002.51-2.51l-.11-1.09.64-.89a2.3 2.3 0 00-.92-3.43z" fill="#fff"/><circle cx="387.67" cy="405.82" fill="#fff" r="1.61"/><circle cx="352.65" cy="384.92" fill="#fff" r="1.32"/><circle cx="364.44" cy="389.14" fill="#fff" r="1.33"/><circle cx="340.27" cy="394.66" fill="#fff" r=".85"/><circle cx="343.95" cy="411.07" fill="#fff" r="1.33"/><circle cx="360.46" cy="404.22" fill="#fff" r=".85"/><circle cx="375.08" cy="410.65" fill="#fff" r=".87"/><circle cx="376.56" cy="382.88" fill="#fff" r="1.78"/><circle cx="365.52" cy="366.75" fill="#fff" r=".67"/><path d="M398.9 389.42a1.11 1.11 0 000 2.21 1.11 1.11 0 000-2.21zm-7.17-11.76a1.12 1.12 0 00-1.11 1.1v.14a1.12 1.12 0 001.11 1.11 1.13 1.13 0 001.1-1.11v-.14a1.11 1.11 0 00-1.1-1.1zm13.62-13.2a1.11 1.11 0 000 2.21 1.11 1.11 0 000-2.21zm8.03 16.21h-.14a1.11 1.11 0 000 2.21h.14a1.11 1.11 0 100-2.21zm23.81 2.58a1.11 1.11 0 000 2.21 1.11 1.11 0 000-2.21zm-14.48-19.65a1.11 1.11 0 000 2.21 1.11 1.11 0 000-2.21zm-20.94-19.22a1.11 1.11 0 000 2.21 1.11 1.11 0 000-2.21zm-5.69 15.27a1.11 1.11 0 000 2.21 1.11 1.11 0 000-2.21zm32.08 13.7a1.11 1.11 0 000 2.21 1.11 1.11 0 000-2.21zM417.54 392a1.11 1.11 0 000 2.21 1.11 1.11 0 000-2.21zm-30.98-5.31a1.13 1.13 0 00-1.1 1.11v.14a1.11 1.11 0 102.21 0v-.14a1.13 1.13 0 00-1.11-1.11zm-74.62 8.14a1.14 1.14 0 000 2.27 1.14 1.14 0 000-2.27zm16.11-3.4h-.15a1.14 1.14 0 00-1.14 1.13 1.16 1.16 0 001.14 1.14h.15a1.14 1.14 0 000-2.27zm-12.86-11.52H315a1.14 1.14 0 000 2.27h.15a1.14 1.14 0 100-2.27zm16.99 1.03a1.14 1.14 0 000 2.27 1.14 1.14 0 000-2.27zm-25.26 2.66a1.14 1.14 0 000 2.28 1.14 1.14 0 000-2.28zm.44-21.28a1.14 1.14 0 000 2.28 1.14 1.14 0 000-2.28zm17.14 10.94a1.14 1.14 0 000 2.27 1.14 1.14 0 000-2.27zm15.5-6.06a1.14 1.14 0 000 2.27 1.14 1.14 0 000-2.27zm-21.26-10.34h-.15a1.14 1.14 0 100 2.27h.15a1.14 1.14 0 100-2.27zm9.45 5.91a1.14 1.14 0 000 2.27 1.14 1.14 0 000-2.27zm-20.83-17.58h-.14a1.14 1.14 0 100 2.27h.14a1.14 1.14 0 001.14-1.13 1.16 1.16 0 00-1.14-1.14zm29.85 13.74a1.14 1.14 0 000 2.27 1.14 1.14 0 000-2.27zm11.37 4.43a1.14 1.14 0 000 2.27 1.14 1.14 0 000-2.27z" fill="#ffe3ac"/><path d="M507.87 414.92a27.79 27.79 0 0118.37-6.92h1a10.27 10.27 0 0010.27-10.27v-15.5A14.18 14.18 0 01551.67 368h2.22a13.45 13.45 0 0013.45-13.45v-3.72a13.45 13.45 0 00-3.94-9.51l-5.11-5.11a33.82 33.82 0 00-23.92-9.91h-29.73a34.54 34.54 0 00-24.43 10.12l-12.89 12.88a49.12 49.12 0 00-14.38 34.73v21.88a26.48 26.48 0 001.56 9z" fill="#fa9269"/><ellipse cx="520.26" cy="364.36" fill="#ffe1d6" rx="1.43" ry="4.84"/><ellipse cx="506.54" cy="342.77" fill="#ffe1d6" rx="1.43" ry="4.84"/><ellipse cx="546.99" cy="366.44" fill="#ffe1d6" rx="1.43" ry="4.84"/><ellipse cx="529.59" cy="358.3" fill="#ffe1d6" rx="4.84" ry="1.43"/><ellipse cx="516.18" cy="351.26" fill="#ff6937" rx="4.84" ry="1.43"/><ellipse cx="482.86" cy="376.73" fill="#ffe1d6" rx="4.84" ry="1.43"/><ellipse cx="446.62" cy="371.29" fill="#ffe1d6" rx="4.84" ry="1.43"/><ellipse cx="477.89" cy="400.56" fill="#ffe1d6" rx="1.43" ry="4.84"/><ellipse cx="481.46" cy="410.56" fill="#ff6937" rx="4.84" ry="1.43" transform="rotate(-45 481.457 410.554)"/><ellipse cx="516.98" cy="393.91" fill="#ff6937" rx="1.43" ry="4.84" transform="rotate(-45 516.974 393.912)"/><ellipse cx="487.75" cy="353.73" fill="#ffe1d6" rx="1.43" ry="4.84" transform="rotate(-45 487.757 353.724)"/><ellipse cx="513.49" cy="408.98" fill="#ffe1d6" rx="1.43" ry="4.84" transform="rotate(-45 513.493 408.974)"/><ellipse cx="506.22" cy="407.97" fill="#ffe1d6" rx="1.43" ry="4.84" transform="rotate(-45 506.216 407.968)"/><ellipse cx="551.39" cy="355.58" fill="#ff6937" rx="1.43" ry="4.84" transform="rotate(-45 551.382 355.57)"/><ellipse cx="570.37" cy="345.51" fill="#ff6937" rx="1.43" ry="4.84" transform="rotate(-45 570.367 345.516)"/><ellipse cx="498.16" cy="390.34" fill="#ffe1d6" rx="4.84" ry="1.43" transform="rotate(-45 498.162 390.335)"/><ellipse cx="552.66" cy="341.44" fill="#ffe1d6" rx="4.84" ry="1.43" transform="rotate(-45 552.663 341.45)"/><ellipse cx="550.12" cy="332.43" fill="#fa9269" rx="4.84" ry="1.43" transform="rotate(-45 550.118 332.433)"/><ellipse cx="544.85" cy="329.02" fill="#fa9269" rx="4.84" ry="1.43" transform="rotate(-45 544.856 329.023)"/><ellipse cx="495.56" cy="387.74" fill="#ffe1d6" rx="4.84" ry="1.43" transform="rotate(-45 495.558 387.743)"/><ellipse cx="538.06" cy="378.17" fill="#fa9269" rx="4.84" ry="1.43"/><ellipse cx="535.48" cy="386.95" fill="#fa9269" rx="4.84" ry="1.43"/><ellipse cx="474.43" cy="394.61" fill="#ffe1d6" rx="1.43" ry="4.84"/><ellipse cx="476.74" cy="371.32" fill="#ffe1d6" rx="4.84" ry="1.43"/><ellipse cx="515.54" cy="333.76" fill="#ffe1d6" rx="1.43" ry="4.84"/><ellipse cx="523.37" cy="340.24" fill="#ffe1d6" rx="4.84" ry="1.43" transform="rotate(-45 523.37 340.233)"/><ellipse cx="460.89" cy="369.2" fill="#ffe1d6" rx="4.84" ry="1.43" transform="rotate(-45 460.898 369.2)"/><ellipse cx="508.04" cy="367.93" fill="#ffe1d6" rx="4.84" ry="1.43" transform="rotate(-45 508.039 367.923)"/><ellipse cx="530.64" cy="320.21" fill="#ffe1d6" rx="4.84" ry="1.43" transform="rotate(-45 530.645 320.21)"/><ellipse cx="521.03" cy="381.38" fill="#ffe1d6" rx="4.84" ry="1.43"/><ellipse cx="459.8" cy="388.02" fill="#ffe1d6" rx="4.84" ry="1.43" transform="rotate(-45 459.804 388.023)"/><ellipse cx="452.38" cy="406.46" fill="#fa9269" rx="4.84" ry="1.43" transform="rotate(-45 452.38 406.458)"/><ellipse cx="491.33" cy="401.57" fill="#ff6937" rx="4.84" ry="1.43" transform="rotate(-45 491.328 401.575)"/><ellipse cx="534.99" cy="406.46" fill="#fa9269" rx="1.43" ry="4.84" transform="rotate(-45 534.987 406.45)"/><ellipse cx="481.35" cy="361.81" fill="#ff6937" rx="1.43" ry="4.84"/><ellipse cx="478.01" cy="338.6" fill="#fa9269" rx="1.43" ry="4.84"/><ellipse cx="464.47" cy="355.58" fill="#fa9269" rx="1.43" ry="4.84" transform="rotate(-45 464.463 355.573)"/><ellipse cx="452.79" cy="353.73" fill="#fa9269" rx="4.84" ry="1.43" transform="rotate(-45 452.798 353.725)"/><ellipse cx="476.74" cy="321.74" fill="#ffe1d6" rx="4.84" ry="1.43"/><ellipse cx="481.88" cy="334.52" fill="#fa9269" rx="1.43" ry="4.84"/><ellipse cx="497.71" cy="333.76" fill="#ff6937" rx="4.84" ry="1.43" transform="rotate(-45 497.709 333.762)"/><path d="M507.9 13l-33.41 14.38a22.94 22.94 0 00-8.94 6.86L425.6 84.69a28.43 28.43 0 00-6.1 19.08l1.66 33.23 15.27-10z" fill="#993f21"/><path d="M454.93 107.07l1.66 21.33a17 17 0 005.79 11.51L495 168.29a4.07 4.07 0 005.49-.14 4.08 4.08 0 001.24-2.92v-3a31.79 31.79 0 00-10.06-23.27l-11.09-10.39.28-1.45a49.67 49.67 0 00.07-18.59 30.31 30.31 0 01-.73-4.81c.27-.38 12.24-10 12.24-10L508.57 89 511 64.33l-34.92 8.92z" fill="#662a16"/><path d="M422.19 130.35l11.89 32.16a3.22 3.22 0 005.42 1l.58-.65a26.25 26.25 0 006.24-22.8l-4.71-23.29z" fill="#993f21"/><path d="M486.55 162.88a62.48 62.48 0 00-59.89 6.45A52.79 52.79 0 01524.1 210a62.46 62.46 0 00-37.55-47.12z" fill="#05a357"/><path d="M486.55 162.88A62.46 62.46 0 01524.1 210l-97.44-40.65a62.48 62.48 0 0159.89-6.47z" fill="#ffe3ac"/><path d="M484.74 167.23a57.53 57.53 0 00-47.63 1.4l80.14 33.44a57.51 57.51 0 00-32.51-34.84z" fill="#ffcf70"/><path d="M507.6 180.58l.32 2.85-23.1 2.57a2.07 2.07 0 00-1.85 1.85 6.37 6.37 0 01-.48 2l-12.24-5.11a6.87 6.87 0 011.25-1.94 2.1 2.1 0 00.13-2.65l-14-18.94 2.3-1.71 14.25 19.25a5.3 5.3 0 003.36 2l6.67-16 2.65 1.11-6.67 16 .3.23a5 5 0 003.63 1.1z" fill="#ffe3ac"/><path d="M572.49 0l-1.73.56L524 6.82a50.91 50.91 0 00-33.9 19.81l-40.88 54.24-26.41 40.87a23.72 23.72 0 00-2.92 6.54l-9.24 33.79a4.91 4.91 0 005.92 6.06l3.26-.82a25.73 25.73 0 0016.74-13.41l7.24-14.43 5.88-4.28a57.3 57.3 0 0017.54-20.69l31.21-22.9 13-1.08a11.75 11.75 0 019.6 3.73L537.39 112a13.52 13.52 0 013.3 12l-1.52 7.19a27.19 27.19 0 01-2 6L531.53 149a59.32 59.32 0 00-2.53 44.43 18.13 18.13 0 0022.07 11.64 3 3 0 002.14-2.64l1.66-25.22a41.53 41.53 0 018.13-22.09l11-14.78a144.17 144.17 0 0013-21V0z" fill="#c14f29"/><path d="M411 160.64a2.82 2.82 0 003.8 1.61l.14-.07a3 3 0 001.67-1.94l3.09-11a3.51 3.51 0 00-2.43-4.33 1.89 1.89 0 00-2.32 1.31zm142.21 41.79l-2.32-1.13a5.21 5.21 0 01-2.83-5.61l1.74-9.51a3.79 3.79 0 013.2-3.08 1.24 1.24 0 011.42 1.31z" fill="#fa9269"/><path d="M210.29 309.24a8.22 8.22 0 00-5.36-9.28 5.16 5.16 0 01-1.6-.93 8.25 8.25 0 00-10.57-.05l-.09.08a5.09 5.09 0 01-1.67.94 8.22 8.22 0 00-5.36 9.28 5.34 5.34 0 010 1.87 8.22 8.22 0 005.36 9.28 5.09 5.09 0 011.61.93 8.25 8.25 0 0010.63 0 5.45 5.45 0 011.6-.93 8.22 8.22 0 005.36-9.28 5.34 5.34 0 01.09-1.91z" fill="#bc8b2c"/><path d="M204.43 305.26l-1.56-1.56a4.73 4.73 0 01-1.39-3.35v-2.45h-2v2.45a4.76 4.76 0 01-1.38 3.35l-1.56 1.56a4.75 4.75 0 01-3.36 1.39h-2.38v2h2.45a4.75 4.75 0 013.36 1.39l1.56 1.55a4.79 4.79 0 011.38 3.36v2.45c.32 0 .64.05 1 .05s.64 0 1-.05v-2.45a4.75 4.75 0 011.39-3.36l1.56-1.55a4.75 4.75 0 013.35-1.39h2.45c0-.32.05-.64.05-1s0-.64-.05-1h-2.45a4.75 4.75 0 01-3.42-1.39z" fill="#ffe3ac"/><circle cx="203.33" cy="314.25" fill="#fff2d9" r="1.24"/><circle cx="205.37" cy="312.22" fill="#fff2d9" r="1.24"/><circle cx="207.4" cy="310.18" fill="#fff2d9" r="1.24"/><circle cx="207.17" cy="305.07" fill="#fff2d9" r="1.24"/><circle cx="205.18" cy="302.99" fill="#fff2d9" r="1.24"/><circle cx="203.18" cy="300.92" fill="#fff2d9" r="1.24"/><circle cx="197.94" cy="301.1" fill="#fff2d9" r="1.24"/><circle cx="195.86" cy="303.1" fill="#fff2d9" r="1.24"/><circle cx="193.79" cy="305.09" fill="#fff2d9" r="1.24"/><circle cx="193.97" cy="310.34" fill="#fff2d9" r="1.24"/><circle cx="195.96" cy="312.41" fill="#fff2d9" r="1.24"/><circle cx="197.96" cy="314.48" fill="#fff2d9" r="1.24"/><path d="M212.86 306.68a8.25 8.25 0 00-5.36-9.29 5.13 5.13 0 01-1.6-.93 8.28 8.28 0 00-10.58-.06l-.1.08a5.09 5.09 0 01-1.61.93 8.24 8.24 0 00-5.36 9.29 4.9 4.9 0 010 1.87 8.23 8.23 0 005.36 9.28 5.09 5.09 0 011.61.93 8.26 8.26 0 0010.64 0 5 5 0 011.59-.93 8.24 8.24 0 005.36-9.28 4.9 4.9 0 01.05-1.89zm-12.34 9.75a8.82 8.82 0 118.81-8.82 8.81 8.81 0 01-8.81 8.82z" fill="#156a41"/><path d="M211.33 306.4a6.71 6.71 0 00-4.35-7.55 6.74 6.74 0 01-2.11-1.21 6.71 6.71 0 00-8.71 0 6.58 6.58 0 01-2.1 1.21 6.72 6.72 0 00-4.36 7.55 6.62 6.62 0 010 2.43 6.72 6.72 0 004.36 7.55 6.58 6.58 0 012.1 1.21 6.71 6.71 0 008.71 0 6.74 6.74 0 012.11-1.21 6.72 6.72 0 004.35-7.55 7.08 7.08 0 010-2.43zm-10.81 10a8.82 8.82 0 118.81-8.82 8.81 8.81 0 01-8.81 8.85z" fill="#06c167"/><path d="M189.74 414.79a60.2 60.2 0 004.62-23.16c0-33.81-27.84-61.22-62.18-61.22S70 357.82 70 391.63a60.2 60.2 0 004.62 23.16z" fill="#bc8b2c"/><path d="M194 414.79a60.18 60.18 0 008.89-31.54c0-33.81-27.84-61.22-62.19-61.22s-62.18 27.41-62.18 61.22a60.26 60.26 0 008.88 31.54z" fill="#c14f29"/><path d="M190.07 414.79a57.08 57.08 0 009.49-31.54c0-32-26.35-58-58.87-58s-58.87 25.95-58.87 58a57 57 0 009.5 31.54z" fill="#662a16"/><path d="M179.2 414.79a48.67 48.67 0 0011.59-31.54c0-27.24-22.43-49.32-50.1-49.32S90.6 356 90.6 383.25a48.62 48.62 0 0011.59 31.54z" fill="#3d281e"/><path d="M142.44 351.45a8.91 8.91 0 00-5.91-10.07 5.58 5.58 0 01-1.76-1 9.25 9.25 0 00-11.66-.06l-.11.09a5.54 5.54 0 01-1.77 1 8.92 8.92 0 00-5.9 10.07 5.33 5.33 0 010 2 8.92 8.92 0 005.9 10.07 5.57 5.57 0 011.77 1 9.21 9.21 0 0011.73 0 5.67 5.67 0 011.75-1 8.91 8.91 0 005.91-10.07 5.33 5.33 0 01.05-2.03z"/><path d="M136 347.13l-1.72-1.69a5.09 5.09 0 01-1.53-3.64v-2.65a11.26 11.26 0 00-2.12 0v2.65a5.06 5.06 0 01-1.54 3.64l-1.71 1.69a5.25 5.25 0 01-3.7 1.51H121v2.05h2.7a5.25 5.25 0 013.7 1.51l1.71 1.69a5.06 5.06 0 011.54 3.64v2.66h2.12v-2.66a5.09 5.09 0 011.53-3.64l1.72-1.69a5.25 5.25 0 013.69-1.51h2.7a8.94 8.94 0 000-1 9.12 9.12 0 000-1.05h-2.7a5.25 5.25 0 01-3.71-1.51z" fill="#ffe3ac"/><ellipse cx="134.77" cy="356.89" fill="#fff2d9" rx="1.36" ry="1.34"/><ellipse cx="137.01" cy="354.68" fill="#fff2d9" rx="1.36" ry="1.34"/><ellipse cx="139.25" cy="352.47" fill="#fff2d9" rx="1.36" ry="1.34"/><ellipse cx="139" cy="346.92" fill="#fff2d9" rx="1.36" ry="1.34"/><ellipse cx="136.8" cy="344.67" fill="#fff2d9" rx="1.36" ry="1.34"/><ellipse cx="134.6" cy="342.42" fill="#fff2d9" rx="1.36" ry="1.34"/><ellipse cx="128.82" cy="342.62" fill="#fff2d9" rx="1.36" ry="1.34"/><ellipse cx="126.54" cy="344.79" fill="#fff2d9" rx="1.36" ry="1.34"/><ellipse cx="124.25" cy="346.95" fill="#fff2d9" rx="1.36" ry="1.34"/><ellipse cx="124.45" cy="352.64" fill="#fff2d9" rx="1.36" ry="1.34"/><ellipse cx="126.65" cy="354.89" fill="#fff2d9" rx="1.36" ry="1.34"/><ellipse cx="128.85" cy="357.14" fill="#fff2d9" rx="1.36" ry="1.34"/><path d="M145.26 348.67a8.91 8.91 0 00-5.9-10.07 5.81 5.81 0 01-1.76-1 9.23 9.23 0 00-11.65-.06l-.11.09a5.44 5.44 0 01-1.77 1 8.91 8.91 0 00-5.91 10.07 5.33 5.33 0 010 2 8.91 8.91 0 005.84 10.07 5.29 5.29 0 011.77 1 9.19 9.19 0 0011.72 0 5.61 5.61 0 011.76-1 8.91 8.91 0 005.9-10.07 5.77 5.77 0 01.11-2.03zm-13.59 10.58a9.56 9.56 0 119.71-9.56 9.63 9.63 0 01-9.71 9.56z" fill="#156a41"/><path d="M143.59 348.37a7.29 7.29 0 00-4.8-8.19 7.31 7.31 0 01-2.32-1.32 7.49 7.49 0 00-9.6 0 7.42 7.42 0 01-2.32 1.32 7.27 7.27 0 00-4.8 8.19 7.32 7.32 0 010 2.64 7.26 7.26 0 004.8 8.18 7.42 7.42 0 012.32 1.32 7.49 7.49 0 009.6 0 7.31 7.31 0 012.32-1.32 7.28 7.28 0 004.8-8.18 6.9 6.9 0 010-2.64zm-11.92 10.88a9.56 9.56 0 119.71-9.56 9.63 9.63 0 01-9.71 9.56z" fill="#06c167"/><path d="M151.44 384.75a8.92 8.92 0 00-5.91-10.07 5.77 5.77 0 01-1.77-1 9.21 9.21 0 00-11.65-.05l-.1.09a5.77 5.77 0 01-1.77 1 8.91 8.91 0 00-5.9 10.07 5.77 5.77 0 010 2 8.9 8.9 0 005.9 10.07 5.82 5.82 0 011.78 1 9.19 9.19 0 0011.72 0 5.84 5.84 0 011.76-1 8.9 8.9 0 005.91-10.06 5.38 5.38 0 01.03-2.05z"/><path d="M145 380.44l-1.71-1.69a5.13 5.13 0 01-1.53-3.64v-2.66c-.35 0-.71-.05-1.07-.05s-.71 0-1.06.05v2.66a5.13 5.13 0 01-1.53 3.64l-1.71 1.69a5.3 5.3 0 01-3.7 1.5H130c0 .35-.05.7-.05 1.05s0 .7.05 1h2.7a5.31 5.31 0 013.7 1.51l1.71 1.69a5.13 5.13 0 011.53 3.64v2.66c.35 0 .71.05 1.06.05s.72 0 1.07-.05v-2.66a5.13 5.13 0 011.53-3.64l1.71-1.69a5.3 5.3 0 013.7-1.51h2.7v-2.05h-2.7a5.29 5.29 0 01-3.71-1.5z" fill="#ffe3ac"/><ellipse cx="143.76" cy="390.19" fill="#fff2d9" rx="1.36" ry="1.34"/><ellipse cx="146.01" cy="387.98" fill="#fff2d9" rx="1.36" ry="1.34"/><ellipse cx="148.25" cy="385.78" fill="#fff2d9" rx="1.36" ry="1.34"/><ellipse cx="148" cy="380.23" fill="#fff2d9" rx="1.36" ry="1.34"/><ellipse cx="145.8" cy="377.98" fill="#fff2d9" rx="1.36" ry="1.34"/><ellipse cx="143.6" cy="375.73" fill="#fff2d9" rx="1.36" ry="1.34"/><ellipse cx="137.82" cy="375.92" fill="#fff2d9" rx="1.36" ry="1.34"/><ellipse cx="135.53" cy="378.09" fill="#fff2d9" rx="1.36" ry="1.34"/><ellipse cx="133.25" cy="380.26" fill="#fff2d9" rx="1.36" ry="1.34"/><ellipse cx="133.45" cy="385.94" fill="#fff2d9" rx="1.36" ry="1.34"/><ellipse cx="135.65" cy="388.19" fill="#fff2d9" rx="1.36" ry="1.34"/><ellipse cx="137.85" cy="390.44" fill="#fff2d9" rx="1.36" ry="1.34"/><path d="M154.26 382a8.92 8.92 0 00-5.91-10.07 5.72 5.72 0 01-1.76-1 9.23 9.23 0 00-11.66-.05l-.11.09a5.65 5.65 0 01-1.77 1 8.92 8.92 0 00-5.9 10.07 5.33 5.33 0 010 2 8.91 8.91 0 005.9 10.07 5.77 5.77 0 011.77 1 9.21 9.21 0 0011.73 0 5.67 5.67 0 011.75-1 8.9 8.9 0 005.96-10.11 5.38 5.38 0 010-2zm-13.6 10.58a9.56 9.56 0 119.71-9.56 9.64 9.64 0 01-9.71 9.53z" fill="#156a41"/><path d="M152.58 381.67a7.27 7.27 0 00-4.8-8.19 7.4 7.4 0 01-2.32-1.31 7.48 7.48 0 00-9.59 0 7.35 7.35 0 01-2.31 1.31 7.27 7.27 0 00-4.8 8.19 7.32 7.32 0 010 2.64 7.25 7.25 0 004.8 8.18 7.58 7.58 0 012.31 1.32 7.48 7.48 0 009.59 0 7.63 7.63 0 012.32-1.32 7.25 7.25 0 004.8-8.18 7.32 7.32 0 010-2.64zm-11.92 10.88a9.56 9.56 0 119.71-9.56 9.64 9.64 0 01-9.71 9.56z" fill="#06c167"/><path d="M103.94 414.79h27.4a9.07 9.07 0 00-.1-2.54 5.33 5.33 0 010-2 8.91 8.91 0 00-5.91-10.07 5.77 5.77 0 01-1.77-1 9.23 9.23 0 00-11.65-.06l-.1.08a5.57 5.57 0 01-1.77 1 8.91 8.91 0 00-5.9 10.07 5.77 5.77 0 010 2 9.08 9.08 0 00-.2 2.52z"/><path d="M107.52 414.79h5.69a9.44 9.44 0 01-2.46-6.33 9.72 9.72 0 0119.43 0 9.44 9.44 0 01-2.46 6.33h5.69a8.81 8.81 0 00.65-5.32 5.33 5.33 0 010-2 8.91 8.91 0 00-5.91-10.07 5.72 5.72 0 01-1.76-1 9.25 9.25 0 00-11.66-.06l-.11.08a5.47 5.47 0 01-1.77 1 8.91 8.91 0 00-5.91 10.07 5.33 5.33 0 010 2 8.81 8.81 0 00.58 5.3z" fill="#156a41"/><ellipse cx="125.81" cy="413.45" fill="#fff2d9" rx="1.36" ry="1.34"/><ellipse cx="128.05" cy="411.24" fill="#fff2d9" rx="1.36" ry="1.34"/><ellipse cx="127.8" cy="405.69" fill="#fff2d9" rx="1.36" ry="1.34"/><ellipse cx="125.6" cy="403.44" fill="#fff2d9" rx="1.36" ry="1.34"/><ellipse cx="123.4" cy="401.19" fill="#fff2d9" rx="1.36" ry="1.34"/><ellipse cx="117.62" cy="401.39" fill="#fff2d9" rx="1.36" ry="1.34"/><ellipse cx="115.33" cy="403.55" fill="#fff2d9" rx="1.36" ry="1.34"/><ellipse cx="113.05" cy="405.72" fill="#fff2d9" rx="1.36" ry="1.34"/><ellipse cx="113.25" cy="411.41" fill="#fff2d9" rx="1.36" ry="1.34"/><ellipse cx="115.45" cy="413.66" fill="#fff2d9" rx="1.36" ry="1.34"/><path d="M112.46 409.5a5.25 5.25 0 013.7 1.51l1.71 1.69a5.09 5.09 0 011.27 2.09h2.65a5.09 5.09 0 011.27-2.09l1.71-1.69a5.25 5.25 0 013.7-1.51h2.7c0-.34.05-.69.05-1s0-.71-.05-1h-2.7a5.25 5.25 0 01-3.7-1.51l-1.71-1.69a5.09 5.09 0 01-1.53-3.64v-2.65a9.48 9.48 0 00-2.13 0v2.65a5.09 5.09 0 01-1.53 3.64l-1.71 1.69a5.25 5.25 0 01-3.7 1.51h-2.7c0 .34-.05.69-.05 1s0 .7.05 1z" fill="#ffe3ac"/><path d="M109.45 414.79h3.76a9.44 9.44 0 01-2.46-6.33 9.72 9.72 0 0119.43 0 9.44 9.44 0 01-2.46 6.33h3.76a7.13 7.13 0 00.9-5 7.27 7.27 0 010-2.63 7.27 7.27 0 00-4.8-8.19 7.54 7.54 0 01-2.32-1.32 7.48 7.48 0 00-9.59 0 7.54 7.54 0 01-2.32 1.32 7.27 7.27 0 00-4.8 8.19 7.27 7.27 0 010 2.63 7.13 7.13 0 00.9 5z" fill="#06c167"/><path d="M117.25 387.8a8.85 8.85 0 003.06-11.23 5.44 5.44 0 01-.53-1.94v-.05a8.93 8.93 0 00-2.64-5.57 9.17 9.17 0 00-5.56-2.59h-.15a5.58 5.58 0 01-2-.52 9.15 9.15 0 00-11.41 3 5.52 5.52 0 01-1.46 1.43 8.85 8.85 0 00-3 11.23 5.61 5.61 0 01.44 1.94v.06a8.87 8.87 0 002.63 5.57 9.16 9.16 0 005.65 2.59h.06a5.81 5.81 0 012 .52 9.16 9.16 0 0011.41-3 5.71 5.71 0 011.5-1.44z"/><path d="M115.11 377v-2.39a5.13 5.13 0 011.53-3.64l1.91-1.87a10.55 10.55 0 00-.72-.78 10.27 10.27 0 00-.78-.7l-1.91 1.88a5.29 5.29 0 01-3.7 1.5H109a5.28 5.28 0 01-3.69-1.5l-1.91-1.88a9.84 9.84 0 00-1.5 1.48l1.91 1.87a5.13 5.13 0 011.53 3.64V377a5.09 5.09 0 01-1.53 3.64l-1.91 1.88a9.84 9.84 0 001.5 1.48l1.91-1.88a5.25 5.25 0 013.69-1.51h2.43a5.25 5.25 0 013.7 1.51l1.91 1.88a10.27 10.27 0 00.78-.7 10.55 10.55 0 00.72-.78l-1.91-1.88a5.09 5.09 0 01-1.52-3.64z" fill="#ffe3ac"/><ellipse cx="107.24" cy="383.04" fill="#fff2d9" rx="1.36" ry="1.34"/><ellipse cx="110.42" cy="383.04" fill="#fff2d9" rx="1.36" ry="1.34"/><ellipse cx="113.59" cy="383.04" fill="#fff2d9" rx="1.36" ry="1.34"/><ellipse cx="117.4" cy="378.94" fill="#fff2d9" rx="1.36" ry="1.34"/><ellipse cx="117.46" cy="375.82" fill="#fff2d9" rx="1.36" ry="1.34"/><ellipse cx="117.52" cy="372.69" fill="#fff2d9" rx="1.36" ry="1.34"/><ellipse cx="113.29" cy="368.81" fill="#fff2d9" rx="1.36" ry="1.34"/><ellipse cx="110.12" cy="368.75" fill="#fff2d9" rx="1.36" ry="1.34"/><ellipse cx="106.95" cy="368.69" fill="#fff2d9" rx="1.36" ry="1.34"/><ellipse cx="103" cy="372.85" fill="#fff2d9" rx="1.36" ry="1.34"/><ellipse cx="102.94" cy="375.98" fill="#fff2d9" rx="1.36" ry="1.34"/><ellipse cx="102.88" cy="379.1" fill="#fff2d9" rx="1.36" ry="1.34"/><path d="M120.57 384.53a8.85 8.85 0 003.06-11.23 5.44 5.44 0 01-.53-1.94 9 9 0 00-2.63-5.57 9.22 9.22 0 00-5.57-2.59h-.15a5.64 5.64 0 01-2-.52 9.15 9.15 0 00-11.41 3 5.52 5.52 0 01-1.46 1.32 8.85 8.85 0 00-3 11.23 5.4 5.4 0 01.53 2v.06a8.87 8.87 0 002.63 5.57 9.18 9.18 0 005.66 2.59 5.81 5.81 0 012 .52 9.16 9.16 0 0011.41-3 5.88 5.88 0 011.46-1.44zm-17.21-2a9.46 9.46 0 010-13.52 9.8 9.8 0 0113.73 0 9.44 9.44 0 010 13.52 9.82 9.82 0 01-13.73.02z" fill="#156a41"/><path d="M119.6 383.15a7.22 7.22 0 002.49-9.13 7.29 7.29 0 01-.7-2.54 7.35 7.35 0 00-6.78-6.69 7.47 7.47 0 01-2.59-.68 7.47 7.47 0 00-9.27 2.45 7.31 7.31 0 01-1.9 1.86 7.22 7.22 0 00-2.48 9.13 7.33 7.33 0 01.69 2.55 7.34 7.34 0 006.79 6.68 7.47 7.47 0 012.58.68 7.49 7.49 0 009.28-2.45 7.47 7.47 0 011.89-1.86zm-16.24-.6a9.46 9.46 0 010-13.52 9.8 9.8 0 0113.73 0 9.44 9.44 0 010 13.52 9.82 9.82 0 01-13.73 0z" fill="#06c167"/><path d="M185.38 392.24a8.83 8.83 0 00-2.38-11.39 5.57 5.57 0 01-1.35-1.51 9.17 9.17 0 00-11-3.71l-.13.05a5.7 5.7 0 01-2 .4 9 9 0 00-8.86 7.7 5.33 5.33 0 01-.65 1.92 8.84 8.84 0 002.34 11.4 5.72 5.72 0 011.35 1.51v.05a9.06 9.06 0 004.87 3.83 9.22 9.22 0 006.24-.16h.05a5.93 5.93 0 012-.4 9 9 0 008.86-7.69 5.53 5.53 0 01.66-2z"/><path d="M180.42 384.58l-1.08-2.14a5.07 5.07 0 01-.28-3.93l.86-2.52c-.32-.14-.65-.27-1-.38a9.06 9.06 0 00-1-.28l-.86 2.52a5.15 5.15 0 01-2.63 3l-2.17 1.07a5.31 5.31 0 01-4 .27l-2.56-.85c-.15.32-.27.64-.39 1s-.21.68-.29 1l2.56.85a5.16 5.16 0 013 2.59l1.08 2.14a5.11 5.11 0 01.27 3.93l-.86 2.52c.32.14.65.26 1 .38s.68.2 1 .28l.86-2.52a5.19 5.19 0 012.63-3l2.18-1.06a5.31 5.31 0 014-.27l2.56.85a10.47 10.47 0 00.38-1 9.41 9.41 0 00.29-1l-2.56-.85a5.21 5.21 0 01-2.99-2.6z" fill="#ffe3ac"/><ellipse cx="176.11" cy="393.45" fill="#fff2d9" rx="1.36" ry="1.34"/><ellipse cx="178.95" cy="392.06" fill="#fff2d9" rx="1.36" ry="1.34"/><ellipse cx="181.8" cy="390.67" fill="#fff2d9" rx="1.36" ry="1.34"/><ellipse cx="183.35" cy="385.33" fill="#fff2d9" rx="1.36" ry="1.34"/><ellipse cx="181.99" cy="382.51" fill="#fff2d9" rx="1.36" ry="1.34"/><ellipse cx="180.64" cy="379.69" fill="#fff2d9" rx="1.36" ry="1.34"/><ellipse cx="175.1" cy="378.06" fill="#fff2d9" rx="1.36" ry="1.34"/><ellipse cx="172.23" cy="379.39" fill="#fff2d9" rx="1.36" ry="1.34"/><ellipse cx="169.36" cy="380.73" fill="#fff2d9" rx="1.36" ry="1.34"/><ellipse cx="167.71" cy="386.19" fill="#fff2d9" rx="1.36" ry="1.34"/><ellipse cx="169.07" cy="389.01" fill="#fff2d9" rx="1.36" ry="1.34"/><ellipse cx="170.42" cy="391.83" fill="#fff2d9" rx="1.36" ry="1.34"/><path d="M188.72 389a8.84 8.84 0 00-2.34-11.4A5.55 5.55 0 01185 376a9 9 0 00-4.87-3.84 9.3 9.3 0 00-6.16.12l-.13.05a5.76 5.76 0 01-2 .4 9 9 0 00-8.86 7.69 5.53 5.53 0 01-.66 1.93 8.83 8.83 0 002.34 11.39 5.65 5.65 0 011.36 1.52 9.18 9.18 0 004.88 3.84 9.29 9.29 0 006.24-.16h.05a5.6 5.6 0 012-.4 9 9 0 008.85-7.69 5.53 5.53 0 01.68-1.85zm-16.31 5.76a9.53 9.53 0 01-6.11-12.11 9.75 9.75 0 0112.3-6 9.53 9.53 0 016.11 12.11 9.75 9.75 0 01-12.3 5.95z" fill="#156a41"/><path d="M187.23 388.14a7.22 7.22 0 00-1.9-9.27 7.37 7.37 0 01-1.77-2 7.47 7.47 0 00-9.1-3 7.56 7.56 0 01-2.62.53 7.35 7.35 0 00-7.2 6.25 7.15 7.15 0 01-.86 2.5 7.23 7.23 0 001.9 9.27 7.28 7.28 0 011.78 2 7.45 7.45 0 009.09 3 7.65 7.65 0 012.63-.52 7.37 7.37 0 007.2-6.25 7.34 7.34 0 01.85-2.51zm-14.82 6.57a9.53 9.53 0 01-6.11-12.11 9.75 9.75 0 0112.3-6 9.53 9.53 0 016.11 12.11 9.75 9.75 0 01-12.3 6z" fill="#06c167"/><path d="M167.45 414.79a8.78 8.78 0 00-.88-4.07 5.48 5.48 0 01-.52-1.94v-.05a8.89 8.89 0 00-2.63-5.57 9.19 9.19 0 00-5.57-2.59h-.14a5.69 5.69 0 01-2-.52 9.16 9.16 0 00-11.41 3 5.71 5.71 0 01-1.46 1.44 8.84 8.84 0 00-3.43 10.33z"/><path d="M143.1 412.43a5.77 5.77 0 01.53 1.95v.06c0 .12 0 .23.05.35h4.46a9.44 9.44 0 011.49-11.61 9.8 9.8 0 0113.73 0 9.44 9.44 0 011.49 11.61h5.21a8.81 8.81 0 00-.17-7.34 5.48 5.48 0 01-.52-1.94v-.05a8.84 8.84 0 00-2.63-5.57 9.17 9.17 0 00-5.56-2.59H161a5.69 5.69 0 01-2-.52 9.16 9.16 0 00-11.41 3 5.71 5.71 0 01-1.46 1.44 8.85 8.85 0 00-3.06 11.23z" fill="#156a41"/><ellipse cx="163.66" cy="413.09" fill="#fff2d9" rx="1.36" ry="1.34"/><ellipse cx="163.72" cy="409.97" fill="#fff2d9" rx="1.36" ry="1.34"/><ellipse cx="163.78" cy="406.84" fill="#fff2d9" rx="1.36" ry="1.34"/><ellipse cx="159.56" cy="402.96" fill="#fff2d9" rx="1.36" ry="1.34"/><ellipse cx="156.38" cy="402.9" fill="#fff2d9" rx="1.36" ry="1.34"/><ellipse cx="153.21" cy="402.84" fill="#fff2d9" rx="1.36" ry="1.34"/><ellipse cx="149.27" cy="407" fill="#fff2d9" rx="1.36" ry="1.34"/><ellipse cx="149.21" cy="410.12" fill="#fff2d9" rx="1.36" ry="1.34"/><ellipse cx="149.15" cy="413.25" fill="#fff2d9" rx="1.36" ry="1.34"/><path d="M151.61 408.74v2.39a5.09 5.09 0 01-1.53 3.64h4.71a4.4 4.4 0 01.51-.05h2.43a4.4 4.4 0 01.51.05h4.7a5.09 5.09 0 01-1.53-3.64v-2.39a5.13 5.13 0 011.53-3.64l1.91-1.88c-.22-.26-.46-.52-.71-.77a8.6 8.6 0 00-.79-.7l-1.91 1.87a5.25 5.25 0 01-3.69 1.51h-2.43a5.25 5.25 0 01-3.7-1.51l-1.91-1.87a8.5 8.5 0 00-.78.7c-.26.25-.49.51-.72.77l1.91 1.88a5.13 5.13 0 011.49 3.64z" fill="#ffe3ac"/><path d="M144.63 411.7a7.34 7.34 0 01.7 2.55c0 .18 0 .36.06.54h2.75a9.44 9.44 0 011.49-11.61 9.8 9.8 0 0113.73 0 9.44 9.44 0 011.49 11.61h3.31a7.16 7.16 0 00.19-6.62 7.27 7.27 0 01-.69-2.55 7.36 7.36 0 00-6.79-6.68 7.47 7.47 0 01-2.58-.68 7.47 7.47 0 00-9.28 2.45 7.27 7.27 0 01-1.89 1.86 7.22 7.22 0 00-2.49 9.13z" fill="#06c167"/><path d="M169.9 369.63a8.85 8.85 0 003.1-11.23 5.64 5.64 0 01-.52-1.94v-.05a8.93 8.93 0 00-2.64-5.57 9.15 9.15 0 00-5.56-2.58h-.15a5.8 5.8 0 01-2-.52 9.16 9.16 0 00-11.41 3 5.56 5.56 0 01-1.46 1.44 8.84 8.84 0 00-3.05 11.23 5.49 5.49 0 01.53 1.95v.05a8.93 8.93 0 002.64 5.57 9.16 9.16 0 005.65 2.59H155a5.57 5.57 0 012 .51 9.15 9.15 0 0011.41-3 5.52 5.52 0 011.49-1.45z"/><path d="M167.76 358.81v-2.39a5.09 5.09 0 011.53-3.64l1.91-1.88a10.55 10.55 0 00-.72-.78 10.27 10.27 0 00-.78-.7l-1.91 1.88a5.3 5.3 0 01-3.7 1.51h-2.43a5.29 5.29 0 01-3.66-1.51l-1.91-1.88a9.84 9.84 0 00-1.5 1.48l1.91 1.88a5.09 5.09 0 011.53 3.64v2.39a5.13 5.13 0 01-1.53 3.64l-1.91 1.87a9.84 9.84 0 001.5 1.48l1.91-1.88a5.28 5.28 0 013.69-1.5h2.43a5.29 5.29 0 013.7 1.5l1.91 1.88a10.27 10.27 0 00.78-.7 10.55 10.55 0 00.72-.78l-1.91-1.87a5.13 5.13 0 01-1.56-3.64z" fill="#ffe3ac"/><ellipse cx="159.89" cy="364.86" fill="#fff2d9" rx="1.36" ry="1.34"/><ellipse cx="163.07" cy="364.86" fill="#fff2d9" rx="1.36" ry="1.34"/><ellipse cx="166.24" cy="364.86" fill="#fff2d9" rx="1.36" ry="1.34"/><ellipse cx="170.05" cy="360.76" fill="#fff2d9" rx="1.36" ry="1.34"/><ellipse cx="170.11" cy="357.64" fill="#fff2d9" rx="1.36" ry="1.34"/><ellipse cx="170.17" cy="354.52" fill="#fff2d9" rx="1.36" ry="1.34"/><ellipse cx="165.94" cy="350.63" fill="#fff2d9" rx="1.36" ry="1.34"/><ellipse cx="162.77" cy="350.57" fill="#fff2d9" rx="1.36" ry="1.34"/><ellipse cx="159.6" cy="350.51" fill="#fff2d9" rx="1.36" ry="1.34"/><ellipse cx="155.65" cy="354.68" fill="#fff2d9" rx="1.36" ry="1.34"/><ellipse cx="155.59" cy="357.8" fill="#fff2d9" rx="1.36" ry="1.34"/><ellipse cx="155.53" cy="360.92" fill="#fff2d9" rx="1.36" ry="1.34"/><path d="M173.22 366.36a8.85 8.85 0 003.06-11.23 5.44 5.44 0 01-.53-1.94v-.05a8.93 8.93 0 00-2.64-5.57 9.15 9.15 0 00-5.56-2.58h-.15a5.87 5.87 0 01-2-.52 9.16 9.16 0 00-11.41 3 5.56 5.56 0 01-1.46 1.44 8.84 8.84 0 00-3.05 11.23 5.29 5.29 0 01.53 1.95v.05a8.87 8.87 0 002.63 5.57 9.16 9.16 0 005.66 2.59h.05a5.57 5.57 0 012 .51 9.15 9.15 0 0011.41-3 5.84 5.84 0 011.46-1.45zm-17.21-2a9.46 9.46 0 010-13.52 9.82 9.82 0 0113.73 0 9.44 9.44 0 010 13.52 9.82 9.82 0 01-13.74.01z" fill="#156a41"/><path d="M172.25 365a7.22 7.22 0 002.49-9.13 7.29 7.29 0 01-.7-2.54 7.33 7.33 0 00-6.78-6.68 7.48 7.48 0 01-2.59-.69 7.47 7.47 0 00-9.27 2.45 7.51 7.51 0 01-1.9 1.87 7.22 7.22 0 00-2.48 9.13 7.27 7.27 0 01.69 2.54 7.34 7.34 0 006.79 6.68 7.47 7.47 0 012.58.68 7.48 7.48 0 009.28-2.45 7.27 7.27 0 011.89-1.86zm-16.25-.63a9.46 9.46 0 010-13.52 9.82 9.82 0 0113.73 0 9.44 9.44 0 010 13.52 9.82 9.82 0 01-13.73 0z" fill="#06c167"/><ellipse cx="178.53" cy="408.34" fill="#fff2d9" rx="1.36" ry="1.34"/><ellipse cx="174.73" cy="412.09" fill="#fff2d9" rx="1.36" ry="1.34"/><ellipse cx="180.43" cy="365.8" fill="#fff2d9" rx="1.36" ry="1.34"/><ellipse cx="100.52" cy="395.87" fill="#fff2d9" rx="1.36" ry="1.34"/><ellipse cx="129.41" cy="371.06" fill="#fff2d9" rx="1.36" ry="1.34"/><ellipse cx="134.21" cy="368.05" fill="#fff2d9" rx="1.36" ry="1.34"/><ellipse cx="109.71" cy="351.86" fill="#fff2d9" rx="1.36" ry="1.34"/><ellipse cx="150.3" cy="342.42" fill="#fff2d9" rx="1.36" ry="1.34"/><path d="M163.08 0l-3.92 2.78a14.36 14.36 0 00-3.39 20L221 114.63a14.35 14.35 0 0020 3.37L407.19 0z" fill="#662a16"/><path d="M291.38 64.28a137.38 137.38 0 00-38.66-3.73 209 209 0 00-37.3 4.51 109.06 109.06 0 00-24 8l1.11 1.56a102.13 102.13 0 0118.92-6.66 197.07 197.07 0 0136-5.24 146.49 146.49 0 0138.09 2.2 107.9 107.9 0 0120.96 6.58l1.81-1.28a108.87 108.87 0 00-16.93-5.94zm-47.01 29.05a83 83 0 00-27.05 3.86 83.87 83.87 0 00-6.91 2.53l1.11 1.57a82 82 0 0129.87-6.11 51.44 51.44 0 0114 1.47 23.09 23.09 0 019.34 4.49l1.55-1.1a22.61 22.61 0 00-7.9-4.43 45.57 45.57 0 00-14.01-2.28zm104.15-77.52c-4.32.57-9.95.82-13 4.44s-1.75 8.83 1.23 12c3.51 3.79 9 5.75 13.81 7.34l.57.19 1.87-1.29a56 56 0 01-10.22-4.12c-4-2.09-8.69-6.35-6.74-11.38 1.76-4.55 8.45-4.77 12.48-5.31a227.78 227.78 0 0134.13-1.9l2.25.05 2.5-1.77a227.71 227.71 0 00-38.88 1.75zM250.6 38.1a254.2 254.2 0 0147.55 3.73 238 238 0 0136.94 9.37l1.91-1.34a233 233 0 00-32.52-8.75 255.4 255.4 0 00-95.48-.82 243.88 243.88 0 00-34.46 8.92l1.13 1.6a243.29 243.29 0 0127.8-7.53 249.76 249.76 0 0147.13-5.18zM387.94 0c-11.23 2.42-22.65 4.11-34 5.5-25.62 3.13-51.42 4.4-77.17 5.8-23.22 1.26-46.56 2.35-69.53 6.16-15.7 2.6-31.36 6.6-45.92 13.08l1.13 1.59A180.1 180.1 0 01201 20.46c22.88-4.4 46.24-5.65 69.45-6.94 25.88-1.44 51.79-2.58 77.55-5.45 12.53-1.4 25-3.17 37.4-5.63C389 1.72 392.61.92 396.19 0z" fill="#c14f29"/><path d="M238.57 0l-34 23.17a35.19 35.19 0 00-9.3 48.9 35.21 35.21 0 0048.91 9.3L363.7 0z" fill="#3d281e"/><path d="M208.93 0c-.64.8-1.3 1.59-2 2.36-9.61 10.78-23.67 15.64-37.87 16.14a83.22 83.22 0 01-15.63-1.05 13.94 13.94 0 00.57 2 87.58 87.58 0 009.84.93c13.68.5 28-2.66 38.82-11.34a49.15 49.15 0 008.64-9z" fill="#c14f29"/><path d="M252.72 60.55a209 209 0 00-37.3 4.51 113.66 113.66 0 00-20.58 6.42l.39.59c.23.33.46.66.7 1a106.73 106.73 0 0115.54-5.14 197.07 197.07 0 0136-5.24 164 164 0 0123.87.18l2.42-1.65a157.52 157.52 0 00-21.04-.67zM209 40.29q-9.58 1.76-19 4.26c-.15.67-.28 1.36-.4 2q6.9-1.86 13.88-3.31a249.76 249.76 0 0147.12-5.14 254.2 254.2 0 0147.55 3.73l3.22.59 2.18-1.48a255.12 255.12 0 00-94.55-.65zm67.73-28.99c-20.74 1.13-41.57 2.11-62.15 5l-3.53 2.41c19.65-3 39.57-4.11 59.39-5.21 25.88-1.44 51.79-2.58 77.55-5.45l4.65-.54L356 5.24l-2.11.26c-25.61 3.13-51.41 4.4-77.16 5.8z" fill="#662a16"/><path d="M221.77 0l-18.59 12.65a35.19 35.19 0 00-9.29 48.9 35.19 35.19 0 0048.9 9.3L346.9 0z" fill="#ffc043"/><path d="M226.1 74.68l-6.66-1.27a4.9 4.9 0 01-3.91-5.74 5.3 5.3 0 00-4.23-6.21l-1.61-.31a4.93 4.93 0 01-3.91-5.75l.37-1.93a5.31 5.31 0 00-4.23-6.21L195.2 46a4.91 4.91 0 01-3.91-5.75l2.08-11a7.46 7.46 0 013.09-4.73l18.76-12.82 30 50.56-7.88 8.66a12.19 12.19 0 01-11.24 3.76z" fill="#05a357"/><path d="M251.59 44.67l.12 6.86a4.84 4.84 0 01-2.33 4.23l-10.72 6.52a22.43 22.43 0 01-22.42.51l-8.84-4.85a10.68 10.68 0 00-5.3-1.31l-4.46.08a4.57 4.57 0 01-4.64-4.49l-.11-6.57z" fill="#662a16"/><path d="M226.33 65.53a21.84 21.84 0 003.61-.18l9.48-20.47-3.55.06zm-28.51-8.82L203 45.48l-3.55.06-4.72 10.19a4.49 4.49 0 002.89 1zm17.87 5.78l.55.3a23.51 23.51 0 002.33 1.1l8.72-18.81-3.56.06zm-9.64-5.17a11.71 11.71 0 011.35.62l1.51.83 6.25-13.49-3.56.06zm45.51-12.65l-3.56.06-7.66 16.52 4.92-2.98z" fill="#5a0a00"/><path d="M251.6 45.11v1.11a2.92 2.92 0 01-1.4 2.54l-11.67 7.09a22.4 22.4 0 01-22.42.51l-8.84-4.84a10.65 10.65 0 00-5.3-1.31l-4.45.07a4.56 4.56 0 01-4.64-4.48 4.56 4.56 0 014.48-4.64l49.29-.82a4.84 4.84 0 014.95 4.77z" fill="#e8503d"/><path d="M263.58 44.13l-2.52 7.51a5.64 5.64 0 01-4.18 3.7l-14.17 2.94a25.91 25.91 0 01-24.59-8.12l-7.74-8.69a12.32 12.32 0 00-5.25-3.47l-4.88-1.64a5.27 5.27 0 01-3.31-6.68l2.42-7.18z" fill="#662a16"/><path d="M228 57a25.54 25.54 0 004 1.2l18.24-18.6-3.89-1.31zm-27.55-20.58l10-10.19-3.89-1.31-9.08 9.25a5.31 5.31 0 002.78 2.19zm17.2 13.2l.47.54a24.69 24.69 0 002.12 2.1L237 35.17l-3.89-1.31zm-8.5-9.34a10.63 10.63 0 011.23 1.19L211.7 43l12-12.25-3.9-1.31zm54.39 3.84l-3.89-1.31-14.71 15 6.5-1.34z" fill="#5a0a00"/><path d="M263.42 44.61l-.42 1.21a3.34 3.34 0 01-2.5 2.22l-15.44 3.21a25.9 25.9 0 01-24.58-8.12l-7.74-8.69a12.29 12.29 0 00-5.25-3.44l-4.87-1.65a5.26 5.26 0 01-3.31-6.67 5.26 5.26 0 016.69-3.34l53.9 18.17a5.59 5.59 0 013.52 7.1z" fill="#e8503d"/><path d="M279.45 33.34l-2.53 7.5a5.59 5.59 0 01-4.17 3.7l-14.18 2.94A25.86 25.86 0 01234 39.36l-7.75-8.69A12.32 12.32 0 00221 27.2l-4.88-1.64a5.26 5.26 0 01-3.31-6.67l2.42-7.19z" fill="#662a16"/><path d="M243.9 46.25a25.23 25.23 0 004 1.2l18.23-18.6-3.89-1.31zm-27.59-20.62l10-10.2-3.89-1.31-9.07 9.26a5.23 5.23 0 002.77 2.18zm17.2 13.2l.48.53a24.71 24.71 0 002.11 2.11l16.75-17.09-3.85-1.31zM225 29.48a12.59 12.59 0 011.23 1.19l1.33 1.49 12-12.25-3.89-1.32zm54.4 3.84l-3.89-1.31-14.71 15.01 6.5-1.35z" fill="#5a0a00"/><path d="M279.29 33.81l-.41 1.19a3.37 3.37 0 01-2.51 2.22l-15.43 3.2a25.89 25.89 0 01-24.59-8.12l-7.74-8.69a12.32 12.32 0 00-5.25-3.47l-4.88-1.64a5.26 5.26 0 01-3.31-6.67 5.26 5.26 0 016.67-3.31l53.93 18.16a5.61 5.61 0 013.52 7.13z" fill="#e8503d"/><path d="M208.043 49.718l-2.33-3.422 3.423-2.33 2.33 3.423z" fill="#ffe3ac"/><path d="M205.64 51.355l-2.329-3.422 3.423-2.33 2.33 3.423z" fill="#f4f1fa"/><path d="M240.518 34.506l-4.067-.772.773-4.068 4.067.773z" fill="#ffe3ac"/><path d="M239.97 37.367l-4.066-.773.773-4.067 4.067.773z" fill="#f4f1fa"/><path d="M221.12 37.56l3.423-2.329 2.33 3.423-3.423 2.33z" fill="#ffe3ac"/><path d="M220.115 35.857l3.436-2.318 2.318 3.436-3.436 2.318z" fill="#f4f1fa"/><path d="M278 0l-14.82 10.11a45 45 0 00-19.68 36.68 28.44 28.44 0 01-33.57 27.65 34.5 34.5 0 0032.54-3.37L346.9 0z" fill="#ffe3ac"/><path d="M221.77 0l-18.91 12.87a34.48 34.48 0 00-15.08 29 28.45 28.45 0 0138-21.09A45 45 0 00267.17 16l23.47-16z" fill="#fff2d9"/><path d="M237.39 46.76c0-.15 0-.31-.07-.47a4.13 4.13 0 00-.37-1.24 4.77 4.77 0 00-.73-1.06l-.25-.27-.14.38v.06a4.34 4.34 0 00-.19 2.17 4.54 4.54 0 00.12.5c0 .14.08.27.13.41s.07.21.11.31a19 19 0 01-1-2 5.92 5.92 0 00-2.41-2.73l-.44-.26v.66a6 6 0 000 1 7.53 7.53 0 00-2.57-1.22l-.63-.17.16.83a7.59 7.59 0 002.37 4.21l.28.24a20.45 20.45 0 01-2.58-1.25 6.34 6.34 0 00-3.82-.79h-.55l.39.61a6.43 6.43 0 001.34 1.51 10.23 10.23 0 00-1.94.56l-2 .82a.24.24 0 000 .42l1.85 1.18a10.18 10.18 0 001.81.9 6.28 6.28 0 00-1.6 1.25l-.49.52.53.16a6.34 6.34 0 003.9-.09c.51-.18 1-.33 1.54-.47l7.33-6.69s-.08.04-.08.01z" fill="#156a41"/><path d="M209.93 26.43h2.51v2.51h-2.51zM198.88 43.3h1.16v4.15h-1.16z" fill="#05a357"/><path d="M236.4 25.63h4.47v1.47h-4.47z" fill="#156a41"/><path d="M220.76 62.83h2.18v4.37h-2.18z" fill="#05a357"/><path d="M276.75 0l14.61 37.8L346.9 0z" fill="#fff"/><path d="M109.17 45.86A8.5 8.5 0 00112 35.15a5.34 5.34 0 01-.49-1.85v-.05a8.58 8.58 0 00-7.7-7.78h-.14a5.45 5.45 0 01-1.86-.49 8.52 8.52 0 00-10.7 2.82 5.25 5.25 0 01-1.37 1.37 8.51 8.51 0 00-2.87 10.72 5.25 5.25 0 01.5 1.86v.05a8.58 8.58 0 007.79 7.79 5.46 5.46 0 011.85.49 8.51 8.51 0 0010.72-2.87 5.25 5.25 0 011.44-1.35z" fill="#bc8b2c"/><path d="M107.16 35.54v-2.28a4.92 4.92 0 011.44-3.48l1.79-1.78c-.21-.25-.43-.5-.67-.74a9.32 9.32 0 00-.74-.67l-1.79 1.79a4.91 4.91 0 01-3.47 1.44h-2.28A4.92 4.92 0 0198 28.37l-1.79-1.79a9.32 9.32 0 00-.74.67c-.24.24-.46.49-.67.74l1.79 1.79A4.92 4.92 0 0198 33.26v2.28A4.91 4.91 0 0196.55 39l-1.79 1.8a10.07 10.07 0 001.41 1.41L98 40.42a4.92 4.92 0 013.44-1.42h2.28a4.91 4.91 0 013.47 1.44l1.81 1.77a10.07 10.07 0 001.41-1.41L108.6 39a4.91 4.91 0 01-1.44-3.46z" fill="#ffe3ac"/><circle cx="99.77" cy="41.32" fill="#fff2d9" r="1.28"/><circle cx="102.75" cy="41.32" fill="#fff2d9" r="1.28"/><circle cx="105.73" cy="41.32" fill="#fff2d9" r="1.28"/><circle cx="109.31" cy="37.4" fill="#fff2d9" r="1.28"/><circle cx="109.37" cy="34.42" fill="#fff2d9" r="1.28"/><circle cx="109.42" cy="31.44" fill="#fff2d9" r="1.28"/><circle cx="105.45" cy="27.74" fill="#fff2d9" r="1.28"/><circle cx="102.47" cy="27.68" fill="#fff2d9" r="1.28"/><circle cx="99.49" cy="27.62" fill="#fff2d9" r="1.28"/><circle cx="95.79" cy="31.59" fill="#fff2d9" r="1.28"/><circle cx="95.73" cy="34.57" fill="#fff2d9" r="1.28"/><circle cx="95.67" cy="37.55" fill="#fff2d9" r="1.28"/><path d="M112.29 42.74A8.51 8.51 0 00115.16 32a5.34 5.34 0 01-.49-1.85 8.58 8.58 0 00-7.7-7.78h-.14a5.45 5.45 0 01-1.86-.49 8.52 8.52 0 00-10.72 2.87 5.25 5.25 0 01-1.37 1.37A8.51 8.51 0 0090 36.77a5.25 5.25 0 01.5 1.86 8.58 8.58 0 007.79 7.79 5.46 5.46 0 011.85.49 8.51 8.51 0 0010.72-2.87 5.25 5.25 0 011.43-1.3zm-16.17-1.89a9.13 9.13 0 1112.91 0 9.13 9.13 0 01-12.91 0z" fill="#156a41"/><path d="M111.38 41.42a7 7 0 002.34-8.71 6.65 6.65 0 01-.65-2.43 7 7 0 00-6.38-6.37 6.87 6.87 0 01-2.43-.66 7 7 0 00-8.71 2.34 7 7 0 01-1.78 1.78 7 7 0 00-2.34 8.71 6.7 6.7 0 01.65 2.43 7 7 0 006.38 6.38 6.85 6.85 0 012.43.65 7 7 0 008.71-2.34 7.17 7.17 0 011.78-1.78zm-15.26-.57a9.13 9.13 0 1112.91 0 9.13 9.13 0 01-12.91 0z" fill="#06c167"/><path d="M23.14 409.54A8.51 8.51 0 0026 398.82a5.4 5.4 0 01-.49-1.85v-.05a8.58 8.58 0 00-7.7-7.78h-.14a5.25 5.25 0 01-1.86-.5 8.51 8.51 0 00-10.72 2.87 5.25 5.25 0 01-1.37 1.37 8.51 8.51 0 00-2.88 10.69 5.19 5.19 0 01.5 1.86v.05a8.58 8.58 0 007.79 7.79 5.4 5.4 0 011.85.49 8.52 8.52 0 0010.72-2.87 5.25 5.25 0 011.44-1.35z" fill="#bc8b2c"/><path d="M21.13 399.21v-2.28a4.91 4.91 0 011.44-3.47l1.79-1.79a10.07 10.07 0 00-1.36-1.41l-1.79 1.79a4.91 4.91 0 01-3.47 1.44h-2.33a4.92 4.92 0 01-3.48-1.44l-1.79-1.79c-.25.21-.5.43-.74.67a9.32 9.32 0 00-.67.74l1.79 1.79a4.91 4.91 0 011.48 3.47v2.28a4.92 4.92 0 01-1.44 3.48l-1.79 1.79c.21.25.43.5.67.74s.49.46.74.67l1.79-1.79a4.92 4.92 0 013.48-1.44h2.28a4.91 4.91 0 013.47 1.44l1.8 1.79a9.32 9.32 0 00.74-.67c.24-.24.46-.49.67-.74l-1.79-1.79a4.92 4.92 0 01-1.49-3.48z" fill="#ffe3ac"/><circle cx="13.74" cy="404.99" fill="#fff2d9" r="1.28"/><circle cx="16.72" cy="404.99" fill="#fff2d9" r="1.28"/><circle cx="19.7" cy="404.99" fill="#fff2d9" r="1.28"/><circle cx="23.28" cy="401.08" fill="#fff2d9" r="1.28"/><circle cx="23.34" cy="398.1" fill="#fff2d9" r="1.28"/><circle cx="23.39" cy="395.12" fill="#fff2d9" r="1.28"/><circle cx="19.42" cy="391.41" fill="#fff2d9" r="1.28"/><circle cx="16.44" cy="391.36" fill="#fff2d9" r="1.28"/><circle cx="13.46" cy="391.3" fill="#fff2d9" r="1.28"/><circle cx="9.76" cy="395.27" fill="#fff2d9" r="1.28"/><circle cx="9.7" cy="398.25" fill="#fff2d9" r="1.28"/><circle cx="9.64" cy="401.23" fill="#fff2d9" r="1.28"/><path d="M26.26 406.42a8.51 8.51 0 002.87-10.72 5.4 5.4 0 01-.49-1.85v-.05a8.58 8.58 0 00-7.7-7.78h-.14a5.25 5.25 0 01-1.86-.5 8.51 8.51 0 00-10.74 2.84 5.25 5.25 0 01-1.37 1.37A8.5 8.5 0 004 400.44a5.19 5.19 0 01.5 1.86v.05a8.58 8.58 0 007.79 7.79h.05a5.4 5.4 0 011.85.49 8.52 8.52 0 0010.72-2.87 5.25 5.25 0 011.35-1.34zm-16.16-1.9a9.12 9.12 0 1112.9 0 9.11 9.11 0 01-12.9 0z" fill="#156a41"/><path d="M25.35 405.1a7 7 0 002.34-8.71A6.7 6.7 0 0127 394a7 7 0 00-6.38-6.38 7.07 7.07 0 01-2.43-.65 7 7 0 00-8.71 2.34 7 7 0 01-1.78 1.78 7 7 0 00-2.34 8.71 6.87 6.87 0 01.66 2.43 6.94 6.94 0 006.37 6.37 6.87 6.87 0 012.43.66 7 7 0 008.71-2.34 7 7 0 011.82-1.82zm-15.25-.58a9.12 9.12 0 1112.9 0 9.11 9.11 0 01-12.9 0z" fill="#06c167"/><path d="M405.45 104.75l.52-.14-.46-.53a6.91 6.91 0 00-.78-.75 8.13 8.13 0 002.79-1l.6-.35-.74-.49a7.88 7.88 0 00-4.9-1.33h-.4a21.68 21.68 0 012.86-1 6.58 6.58 0 003.4-2.26l.37-.46-.74-.16a6.58 6.58 0 00-2.12-.11 10.23 10.23 0 001-1.87l.89-2.12a.25.25 0 00-.29-.34l-2.24.51a10.25 10.25 0 00-2 .69 6.88 6.88 0 00.25-2.12v-.75l-.51.28a6.65 6.65 0 00-2.8 3 22.14 22.14 0 01-1.48 2.65c0-.13.07-.26.1-.38a8 8 0 00-.49-5.06l-.37-.81-.44.53A8.09 8.09 0 00396 93a6 6 0 00-.62-.9l-.44-.54-.22.5a6.19 6.19 0 00-.44 3.77 20 20 0 01.35 2.32c0-.11-.06-.22-.1-.33s-.08-.29-.13-.43a3.07 3.07 0 00-.2-.5 4.38 4.38 0 00-1.47-1.75l-.08-.06-.33-.23-.05.38a4.23 4.23 0 00.08 1.7 4.29 4.29 0 00.36 1c.07.14.15.29.22.44a.89.89 0 00.08.17l.12.28a1.47 1.47 0 00.1.22l.09.23a2.77 2.77 0 00.1.26l.06.17.11.32c.14.42.26.85.36 1.28.09.37.16.75.22 1.13l.06.44a.67.67 0 00.47.56l.42.13c.36.12.72.25 1.08.4a12.19 12.19 0 011.21.57l.29.16.16.09.24.15.21.12a1.37 1.37 0 00.2.13l.25.17.16.11.4.29a4.34 4.34 0 001.2.64 4.4 4.4 0 001.34.24h.39l-.18-.38v-.07a4.46 4.46 0 00-1.48-1.74 4.34 4.34 0 00-.46-.28l-.41-.21-.31-.15a21.52 21.52 0 012.23.73 6.14 6.14 0 003.81.22z" fill="#156a41"/><path d="M154.583 87.838l4.212 4.174-4.174 4.212-4.212-4.174z" fill="#ffe3ac"/><path d="M156.673 89.92l4.212 4.175-4.174 4.212-4.212-4.174z" fill="#fff"/><path d="M54.162 392.615l4.212 4.174-4.174 4.212-4.212-4.174z" fill="#ffe3ac"/><path d="M56.27 394.7l4.211 4.175-4.174 4.212-4.212-4.174z" fill="#fff"/><path d="M377.87 110.924l5.93-.027.026 5.93-5.93.027z" fill="#ffe3ac"/><path d="M380.84 110.9l5.93-.026.026 5.93-5.93.027z" fill="#fff"/><path d="M138.24 71.33v3.02h-7.66v-3.02z" fill="#156a41"/><path d="M138.24 73.93v3.02h-7.66v-3.02z" fill="#05a357"/><path d="M227.634 400.645l-2.135 2.135-5.416-5.416 2.135-2.136z" fill="#156a41"/><path d="M225.794 402.473l-2.135 2.135-5.416-5.416 2.135-2.136zM52.35 365.65h5.78v2.21h-5.78z" fill="#05a357"/><path d="M211.52 351a1.62 1.62 0 00-.4-.68l-.31-.25a1.58 1.58 0 00-.79-.21h-.18a1.79 1.79 0 00-1.1.46 1.71 1.71 0 00-.45 1.09l.06.42a1.5 1.5 0 00.39.68l.32.24a1.52 1.52 0 00.78.21h.16a1.1 1.1 0 00.6-.13 1.38 1.38 0 00.82-.82 1.1 1.1 0 00.13-.6zm10.82 28.19a1.51 1.51 0 00-.4-.69l-.31-.24a1.52 1.52 0 00-.78-.21h-.19a1.71 1.71 0 00-1.09.45 1.22 1.22 0 00-.32.5 1.26 1.26 0 00-.14.6l.06.41a1.55 1.55 0 00.4.69l.31.24a1.52 1.52 0 00.78.21h.19a1.09 1.09 0 00.59-.13 1.11 1.11 0 00.5-.32 1.79 1.79 0 00.46-1.1zm5.55-236.57a1.55 1.55 0 00-.4-.69l-.31-.24a1.58 1.58 0 00-.79-.21h-.18a1.15 1.15 0 00-.6.13 1.22 1.22 0 00-.5.32 1.71 1.71 0 00-.45 1.1l.06.41a1.59 1.59 0 00.39.69l.32.24a1.52 1.52 0 00.78.21h.18a1.2 1.2 0 00.6-.13 1.26 1.26 0 00.5-.32 1.22 1.22 0 00.32-.5 1.15 1.15 0 00.13-.6zM137.64 15.08a1.52 1.52 0 00-.4-.68l-.31-.25a1.58 1.58 0 00-.79-.21H136a1.15 1.15 0 00-.6.14 1.22 1.22 0 00-.5.32 1.2 1.2 0 00-.32.5 1.19 1.19 0 00-.13.59l.06.41a1.48 1.48 0 00.39.69l.32.24a1.52 1.52 0 00.78.17h.18a1.1 1.1 0 00.6-.13 1.38 1.38 0 00.82-.82 1.1 1.1 0 00.13-.6zm230.49 106.1a1.52 1.52 0 00-.4-.68l-.31-.24a1.52 1.52 0 00-.78-.21h-.19a1.09 1.09 0 00-.59.13 1.11 1.11 0 00-.5.32 1.16 1.16 0 00-.32.5 1.11 1.11 0 00-.14.6l.06.41a1.43 1.43 0 00.4.68l.31.25a1.52 1.52 0 00.78.21h.19a1.1 1.1 0 00.59-.14 1.16 1.16 0 00.5-.32 1.11 1.11 0 00.32-.5 1.2 1.2 0 00.14-.59zm214.56 34.25a1.52 1.52 0 00-.4-.68l-.31-.25a1.56 1.56 0 00-.79-.21H581a1.15 1.15 0 00-.6.14 1.46 1.46 0 00-.82.82 1.19 1.19 0 00-.13.59l.06.42a1.43 1.43 0 00.4.68l.31.24a1.52 1.52 0 00.78.21h.18a1.1 1.1 0 00.6-.13 1.38 1.38 0 00.82-.82 1.1 1.1 0 00.13-.6zM501.93 7.86a1.5 1.5 0 00-.4-.69l-.31-.24a1.56 1.56 0 00-.79-.21h-.18a1.15 1.15 0 00-.6.13 1.13 1.13 0 00-.49.32 1.08 1.08 0 00-.32.5 1.13 1.13 0 00-.14.6l.06.41a1.43 1.43 0 00.4.68l.31.25a1.52 1.52 0 00.78.21h.18a1.11 1.11 0 00.6-.14 1.08 1.08 0 00.5-.32 1.13 1.13 0 00.32-.49 1.26 1.26 0 00.14-.6zM172.16 124.22a1.62 1.62 0 00-.4-.68l-.32-.24a1.53 1.53 0 00-.78-.22h-.18a1.26 1.26 0 00-.6.14 1.16 1.16 0 00-.5.32 1.11 1.11 0 00-.32.5 1.09 1.09 0 00-.13.59v.42a1.62 1.62 0 00.4.68l.32.24a1.52 1.52 0 00.78.21h.18a1.12 1.12 0 00.6-.13 1.38 1.38 0 00.82-.82 1.1 1.1 0 00.13-.6zm59.04 98.45a1.52 1.52 0 00-.4-.68l-.31-.24a1.5 1.5 0 00-.79-.22h-.18a1.26 1.26 0 00-.6.14 1.22 1.22 0 00-.5.32 1.71 1.71 0 00-.45 1.09l.06.42a1.5 1.5 0 00.39.68l.32.24a1.52 1.52 0 00.78.21h.18a1.1 1.1 0 00.6-.13 1.38 1.38 0 00.82-.82 1.1 1.1 0 00.13-.6zm26.96-28.42a1.52 1.52 0 00-.4-.68l-.31-.25a1.52 1.52 0 00-.78-.21h-.19a1.51 1.51 0 00-1.41 1 1.2 1.2 0 00-.14.59l.06.42a1.52 1.52 0 00.4.68l.31.24a1.52 1.52 0 00.78.21h.19a1.09 1.09 0 00.59-.13 1.11 1.11 0 00.5-.32 1.16 1.16 0 00.32-.5 1.11 1.11 0 00.14-.6zM73.22 349.57a1.43 1.43 0 00-.4-.68l-.31-.24a1.52 1.52 0 00-.78-.21h-.18a1.1 1.1 0 00-.6.13 1.38 1.38 0 00-.82.82 1.21 1.21 0 00-.14.6l.06.41a1.52 1.52 0 00.4.68l.31.25a1.56 1.56 0 00.79.21h.18a1.15 1.15 0 00.6-.14 1.13 1.13 0 00.49-.32 1 1 0 00.32-.5 1.1 1.1 0 00.14-.59zm-27 57.43a1.62 1.62 0 00-.4-.68l-.32-.32a1.52 1.52 0 00-.78-.21h-.18a1.11 1.11 0 00-.6.14 1.08 1.08 0 00-.5.32 1.13 1.13 0 00-.32.49 1.15 1.15 0 00-.13.6v.41a1.59 1.59 0 00.4.69l.31.24a1.58 1.58 0 00.79.21h.18a1.15 1.15 0 00.6-.13 1.16 1.16 0 00.5-.32 1.26 1.26 0 00.32-.5 1.23 1.23 0 00.13-.6z" fill="#fff2d9"/><path d="M571.758 165.052l4.016 4.017-4.016 4.016-4.017-4.016z" fill="#156a41"/><path d="M479.098 13.634l6.802-6.802 2.503 2.503-6.802 6.802z" fill="#05a357"/></svg>