<svg viewBox="0 0 500 415" xmlns="http://www.w3.org/2000/svg"><path d="M493 24.63a25.72 25.72 0 00-1.16-8.13 34.51 34.51 0 00-3.95-8.5 34.29 34.29 0 00-6.78-7.94h-38c7.23 3.57 15.18 9.73 22.76 21.77s9.72 22 9.77 30.15a28.42 28.42 0 004.21 15c21.49-2.75 24.32-23.87 15.49-35a11.22 11.22 0 01-2.34-7.35z" fill="#f1998e"/><path d="M490.7 22.36a25.76 25.76 0 00-1.16-8.13 35 35 0 00-3.91-8.55 36.21 36.21 0 00-4.37-5.62h-36.37c6.08 3.78 12.51 9.69 18.68 19.5 7.64 12.14 9.72 22.05 9.78 30.15a28.21 28.21 0 004.21 15c21.49-2.74 24.32-23.87 15.48-35a11.31 11.31 0 01-2.34-7.35z" fill="#05a357"/><path d="M143.4 404.54a105.23 105.23 0 01-1.81 10.46H.07V292.3a106.31 106.31 0 01119.22 30.92 105.94 105.94 0 0124.11 81.32z" fill="#f1998e"/><path d="M161.19 397.48c-2.78-12.74-1.51-21.85.94-28.8 1.62-4.58 3.15-12.86-.68-16.29-10.56-2.35-16.3 4-20.2 10.19a106 106 0 013.86 44.14c-.34 2.75-.78 5.45-1.32 8.12l.14.16h23.86a58.89 58.89 0 01-6.6-17.52z" fill="#f1998e"/><path d="M159.49 395.3c-2.79-12.75-1.52-21.86.94-28.8a25.86 25.86 0 001-14.11c-10.56-2.35-18 1.78-21.9 8a105.79 105.79 0 013.85 44.14q-.5 4.11-1.31 8.12a19.19 19.19 0 001.6 1.74 8.08 8.08 0 01.57.6h23.2a56.33 56.33 0 01-7.95-19.69z" fill="#05a357"/><path d="M266.48 375.21a11.21 11.21 0 01-6.17 4.57c-4.84 1.48-10 5-14.16 10.17a34.44 34.44 0 00-4.91 8 25.58 25.58 0 00-2.13 7.94 11.25 11.25 0 01-3.2 7 19.73 19.73 0 00-1.86 2.12h26.24a76.48 76.48 0 016.09-8.63c9-11.14 17.75-16.3 25.4-19a28.32 28.32 0 0012.84-8.8c-9.51-19.44-30.43-15.32-38.14-3.37z" fill="#f1998e"/><path d="M265.56 372a11.28 11.28 0 01-6.18 4.58c-4.84 1.48-10 5-14.16 10.16a34.71 34.71 0 00-4.91 8 25.51 25.51 0 00-2.13 7.94 11.25 11.25 0 01-3.2 7 21.28 21.28 0 00-3.88 5.32h26.46a71.36 71.36 0 017.89-11.82c9-11.14 17.75-16.3 25.4-19a28.39 28.39 0 0012.84-8.8c-9.51-19.38-30.43-15.31-38.13-3.38z" fill="#05a357"/><path d="M187.32 305.95l5-7.54L.07 170.98v10.84zm7.22-10.89l4.99-7.53L.07 155.31v10.85zm7.21-10.88l5-7.54-206.68-137v10.85zm7.22-10.89l4.99-7.53L.07 123.98v10.84zm7.21-10.88l5-7.54L.07 108.31v10.85zm7.22-10.89l4.99-7.53L.07 92.64v10.85zm7.21-10.88l5-7.54L.07 76.98v10.84zm7.22-10.89l4.99-7.53L.07 61.31v10.85zm7.21-10.88l5-7.53L.07 45.64v10.85zm7.22-10.88l4.99-7.54L.07 29.98v10.84zm7.21-10.89l5-7.53L.07 14.31v10.84zM.07 9.49l266.62 176.73 4.99-7.54L2.21.06H.07zM273.9 175.33l5-7.53L25.84.06H9.48zm7.22-10.88l4.99-7.54L49.48.06H33.12zm7.21-10.89l5-7.53L73.11.06H56.75zm7.22-10.88l4.99-7.54L96.75.06H80.39zm7.21-10.89l5-7.53L120.39.06h-16.37zm7.22-10.88l4.99-7.54L144.02.06h-16.36zm7.21-10.88l5-7.54L167.66.06h-16.37zm7.22-10.89l4.99-7.53L191.29.06h-16.36zm7.21-10.88l5-7.54L214.93.06h-16.37zm7.22-10.89l4.99-7.53L238.56.06H222.2zm14.42-21.77l5-7.53L285.83.06h-16.36zm7.22-10.88l5-7.54L309.47.06h-16.36zm-14.43 21.77l5-7.54L262.2.06h-16.37zm-21.39-19.85a5.84 5.84 0 011.22.21 4 4 0 012.12 1.21 4.68 4.68 0 01.65 3.61 4.74 4.74 0 01-3.36-1.49 4.18 4.18 0 01-.69-2.31 5.78 5.78 0 01.09-1.23zm43.03-12.81l5-7.53L333.1.06h-16.36zm7.22-10.88l4.99-7.54L356.74.06h-16.36zm7.22-10.89l4.99-7.53-6.74-4.47h-16.37zm7.21-10.88l.74-1.12h-2.43z" fill="#fa9269"/><path d="M422.24 76.93a17.46 17.46 0 012.52 4.33c1.8 4.51 1.36 9.19-2.2 11-2.57 1.31-4.4.58-5.68-.84a27.62 27.62 0 00-6.37-5.31 23.4 23.4 0 00-2.22-1.11c-.41-.19-.83-.36-1.26-.53a7.58 7.58 0 01-1.71-.9 6.87 6.87 0 003.52 2.86c.43.16.85.34 1.26.52.76.35 1.5.74 2.22 1.16a27.41 27.41 0 016.37 5.31c1.28 1.42 3.11 2.15 5.68.84 3.56-1.81 4-6.5 2.2-11a17.52 17.52 0 00-4.33-6.33z" fill="#f1998e"/><path d="M416.49 73.61a14.7 14.7 0 015.75 3.32 15.3 15.3 0 00-7.56-5.27c-10-3-14.29 3.85-11.44 9.45a6.63 6.63 0 002.08 2.42l-.27-.47c-2.85-5.6 1.41-12.39 11.44-9.45z" fill="#06c167"/><path d="M408.29 85a23.4 23.4 0 012.22 1.16c5.58 2.13 15.76 1.73 14.25-4.86a17.46 17.46 0 00-2.52-4.33 14.7 14.7 0 00-5.75-3.32c-10-2.94-14.29 3.85-11.44 9.45l.27.47a7.58 7.58 0 001.71.9c.43.13.85.3 1.26.53z" fill="#06c167"/><path d="M410.51 86.12a27.62 27.62 0 016.37 5.31c1.28 1.42 3.11 2.15 5.68.84 3.56-1.82 4-6.5 2.2-11 1.51 6.58-8.67 6.98-14.25 4.85z" fill="#05a357"/><path d="M346.45 215.74a6 6 0 00-1.24.14 4 4 0 00-2.15 1.08 4.69 4.69 0 00-.88 3.56 4.74 4.74 0 003.45-1.27 4 4 0 00.83-2.26 6 6 0 000-1.24zm-21.2-165.56a4.74 4.74 0 003.36 1.49 4.68 4.68 0 00-.65-3.61 4 4 0 00-2.08-1.22 5.84 5.84 0 00-1.22-.21 5.78 5.78 0 00-.09 1.23 4.18 4.18 0 00.68 2.32z" fill="#333"/><path d="M373.55 47.73a6.1 6.1 0 00-.82.93 4.15 4.15 0 00-.86 2.25 4.7 4.7 0 001.76 3.22 4.75 4.75 0 001.69-3.26 4.09 4.09 0 00-.91-2.23 5.92 5.92 0 00-.86-.91z" fill="#fff2d9"/><path d="M277.51.06H3q-1.49 2-2.93 4v198.5a172.23 172.23 0 00112.16 70.2 168.83 168.83 0 0021.67 2.15A171.88 171.88 0 00307 144.3q1.32-5.36 2.29-10.83 1.14-6.32 1.79-12.78c.29-2.91.51-5.83.66-8.78A172.31 172.31 0 00277.51.06z" fill="#f1998e"/><path d="M271.68 178.68L2.73.4Q1.38 2.22.07 4.06v5.43l266.62 176.73zM144 .06h-16.34L310 120.91l1.3-2q.32-3.49.5-7v-.64zM25.85.06H9.48L273.9 175.33l5-7.54zm47.27 0H56.74l231.59 153.51 5-7.54zm-23.65 0H33.12l248 164.39 5-7.53zm47.28 0H80.38l215.17 142.62 5-7.54zm23.63 0H104l198.76 131.73 5-7.53zm190 80c-.05-.4-.11-.79-.17-1.18L191.29.06h-16.36L311.5 90.59c-.27-3.5-.62-7.01-1.11-10.52zm-3.74-19.21L214.92.06h-16.36l110.8 73.44q-1.12-6.42-2.71-12.64zm-17.26-42.77L262.19.06h-16.35l51.74 34.29a170.7 170.7 0 00-8.2-16.27zM300.3 41L238.57.06H222.2L305.06 55c-1.39-4.79-2.99-9.45-4.76-14zm11.51 54.6L167.66.06h-16.37L312 106.55q.05-5.44-.19-10.95zM277.49.06h-8l15 9.93q-3.34-5.1-7-9.93zM.07 108.31v10.84l211.66 140.31q4.77-2.19 9.37-4.64zm0-62.67v10.85l245 162.38 5-7.53zm0 15.67v10.85l237.76 157.6 5-7.54zm0 31.34v10.83l223.33 148 5-7.54zm0 31.35v10.85L197 265.37q5.26-1.83 10.35-4zm0-94v10.82L252.25 208l5-7.54zm0-15.66v10.8l259.4 172 5-7.54zM.07 77v10.82l230.54 152.81 5-7.52zm0 78.34v10.86l162.09 107.4 1.28-.16q6-.82 11.78-2zm0 15.66v10.85L140.67 275c5.05 0 10.14-.25 15.27-.73zm0-31.33v10.85l180.59 119.7c3.89-.94 7.74-2 11.52-3.2z" fill="#c14f29"/><path d="M305.39 74.67a171.06 171.06 0 00-29-74.61H.07v203.8a172.23 172.23 0 00107.16 63.51 168.65 168.65 0 0021.67 2.15A172 172 0 00302 138.91c.87-3.57 1.64-7.18 2.28-10.83.77-4.21 1.36-8.47 1.8-12.78.29-2.91.51-5.83.66-8.78a172.76 172.76 0 00-1.35-31.85z" fill="#fff"/><path d="M299.53 75.47A165 165 0 00269.15.06H1.37C.94.65.5 1.24.07 1.84V194A165.84 165.84 0 00299.53 75.47z" fill="#ffe3ac"/><path d="M275.56 78.75A141 141 0 00237.65.06H32.83A142.12 142.12 0 00.07 55.49v84.74A141.28 141.28 0 0051.29 212c28.6 21 63.77 26.45 101.71 21.27 67.84-9.26 117.41-123 117.41-123s6.49-11.73 6.36-16.18c0-1.74-.12-3.49-.24-5.24q-.27-5.05-.97-10.1z" fill="#fff2d9"/><path d="M221.29 38.92l-4.7 16.84-10.28-12.34 4.7-16.84z" fill="#156a41"/><path d="M154.37 238.21A141.11 141.11 0 0151.29 212c3.69-5.22 15.91-4.83 27 7.79 12.4 14.08 20.54 5 23 1.37.44-.66.7-1.14.76-1.25a25.45 25.45 0 0114.49-10.06c9.49-2.5 19.52-.86 29.33-.94 77.57-.16 134-104.15-3.54-33.33l69.27-94.12 17.46 14.32s-.42-1 2 3.32 6.62 8.26 11.52 7.87c10.45-.83 11.07-18.13 20.82-22a9.49 9.49 0 013.5-.66 10.05 10.05 0 019.88 9.85 141.65 141.65 0 01-122.41 144.05z" fill="#870f00"/><path d="M270.9 138.61a140.84 140.84 0 005.91-44.56 10.05 10.05 0 00-9.88-9.85 9.49 9.49 0 00-3.5.66 10.7 10.7 0 00-2 1.09c6.77-3.82 18.57 4.16 9.47 52.66zm-52.46 37.26c15.22-18.4 9.58-34.67-35.75-18.41 25.88-10.32 81.08-26.66 35.75 18.41z" fill="#5a0a00"/><path d="M243.18 85.67c1.81-2.93 1.41-7-1-10.07L188.14 5.82c-3-3.92-8.29-5-11.7-2.31a373.71 373.71 0 00-73.23 75.55l-55.37 76.06c-2.13 2.92-1.85 7.26.67 10.52l29.09 37.53a9 9 0 009.5 3.45 280.07 280.07 0 0090.43-47.23 367.14 367.14 0 00-35.13 16.09l69.27-94.12 17.46 14.32s-.42-1 2 3.32a21.28 21.28 0 001.62 2.46q5.46-7.69 10.46-15.79z" fill="#ffe3ac"/><path d="M231.1 99c-2.39-4.3-2-3.32-2-3.32l-17.43-14.32-69.27 94.12a367.14 367.14 0 0135.13-16.09 279.16 279.16 0 0055.19-57.93A21.28 21.28 0 01231.1 99z" fill="#5a0a00"/><path d="M162.87 64.67c-16.47 22.11-33.36 44.64-56.09 60.25-10.69 7.34-60.95 22.27-60.95 22.27a15.93 15.93 0 003.05-9.36 15.75 15.75 0 00-3.67-10.12C34.84 115.3 28.71 97.88 36.4 83c5.46-10.6 16.94-16.35 26.19-23.86a74.6 74.6 0 0024.22-36.09c2.26-7.49 3.35-15.39 5.17-23h68.47a41.15 41.15 0 003.26 11.36c3 6.2 8.5 11.07 10.81 17.56 4.38 12.32-3.85 25.22-11.65 35.7z" fill="#870f00"/><path d="M34.05 106.37a53.81 53.81 0 0011.16 21.34A15.88 15.88 0 0147.64 144a1.84 1.84 0 01.17-.22 22.12 22.12 0 00-6.44-32.35 52.94 52.94 0 01-7.32-5.06z" fill="#5a0a00"/><path d="M149.29 212.31l-9.81-16.4 12.17 3.74 9.82 16.4zM63.13 78.76l-17.34-2.2 10.72-11.97 17.34 2.2zm46.27-61.01L97.23 30.31l-3.14-15.76L106.25 2z" fill="#05a357"/><path d="M54.01 70.94L43.3 57.12l8.02-.44 10.71 13.81zm94.49 129.21l12.36-12.36 1.45 7.91-12.37 12.36zm72.83-42.44l-10.06.23c-1.29 0-4.18 3.38-6.43 7.49s-3 7.42-1.72 7.39l10.06-.22z" fill="#156a41"/><ellipse cx="217.25" cy="165.16" fill="#05a357" rx="8.57" ry="2.02" transform="rotate(-59.3 217.24 165.155)"/><path d="M240.19 76.53a7.42 7.42 0 01-.06.94 7.55 7.55 0 01-1.06 3.17q-3.18 5.16-6.56 10.15c-.4.61-.81 1.2-1.22 1.8a282.33 282.33 0 01-25.08 31.47l-1.69 1.82q-6.11 6.51-12.6 12.59c-.65.62-1.3 1.23-2 1.82q-7 6.45-14.38 12.36c-.65.53-1.3 1-2 1.56l-1.53 1.2a275.75 275.75 0 01-37.31 24.36c-.95.53-1.9 1-2.86 1.54q-9.19 4.88-18.8 9.07c-1.07.48-2.15.94-3.23 1.4q-9 3.81-18.39 7c-1.23.42-2.47.84-3.71 1.24q-2.4.8-4.81 1.54a8.53 8.53 0 01-7.83-1.76 9.32 9.32 0 01-1.45-1.43l-.22-.27-9-11.57-1.62-2.08-18.4-23.83c-2.52-3.26-2.8-7.6-.67-10.52L54 135.94l1.4-1.92 13.1-18 1.4-1.91 13.81-18.94 1.49-2L99.1 74l.82-1.12 1.68-2.27q7.66-10.31 16-20l2-2.36C135.08 30.51 153.58 16 170.7 0h12.53c.27.25.53.52.78.8L200.42 22l5.27 6.8 32.39 41.8a10 10 0 011.84 3.84 8.47 8.47 0 01.27 2.09z" fill="#ff6937"/><path d="M204.91 64.4c-9 3.6-6 32.53-.39 61.48l1.69-1.82c-9.21-48.24-3.67-56.56-.56-57.8 2.3-.92 9.32-.08 25.64 26.33.41-.6.82-1.19 1.22-1.8-12.37-19.9-21.65-28.79-27.6-26.39zm35 10c-31.4-31.9-48.49-44-56.24-40.13-8.09 4.05-4.67 24.41-.35 50.19 2.89 17.16 6.26 37.3 6.62 55.81.66-.59 1.31-1.2 2-1.82-.53-18.16-3.8-37.65-6.61-54.33-4-24-7.49-44.67-.72-48.06 8.53-4.26 33.67 19 55.54 41.39a7.42 7.42 0 00.06-.94 8.47 8.47 0 00-.28-2.09zm-68.45-61c6.74-3.27 18.2 1.9 34.22 15.38L200.43 22q-3.34-2.55-6.38-4.51c-10.24-6.63-17.9-8.55-23.43-5.87-15.37 7.44-9.1 49.44-3 90.06 2.81 18.83 5.68 38 6 52.55.66-.51 1.31-1 2-1.56-.49-14.23-3.21-32.46-6-51.28-5.75-38.07-12.18-81.19 1.86-87.99zM60.4 146.48c-1.51-4.4-3.23-8.6-5-12.46l-1.4 1.92c6.2 14 11.77 32.25 8.87 48.55l1.62 2.08c2.51-11.34 1.14-24.85-4.09-40.09zm9.52-32.37l-1.4 1.89c9.12 22.86 22.45 58.33 5.18 82.39a9.32 9.32 0 001.45 1.43c18.48-25.31 4.08-62.42-5.23-85.71zm20.22-5.59c-1.82-5.45-3.57-10.66-4.94-15.39l-1.49 2c1.3 4.31 2.87 9 4.54 14 9.94 29.65 22.27 66.43-.46 90.91 1.24-.4 2.48-.82 3.71-1.24 20.41-25.37 7.9-62.68-1.36-90.28zm19.46-6c-3.53-11.76-6.79-22.68-8-31.82l-1.68 2.27c1.4 8.88 4.48 19.15 7.77 30.13 9 30.17 19.17 64 2.21 88.73 1.07-.46 2.15-.92 3.22-1.4 15.19-25.5 4.88-59.76-3.52-87.96zm19-6.77c-4.79-17.34-9.42-34.06-8.92-47.45l-2 2.36c.08 13.25 4.48 29.17 9 45.63 7.9 28.57 16.66 60.28 5.3 85.07 1-.5 1.91-1 2.86-1.54 10.03-25.04 1.46-56.06-6.29-84.12z" fill="#fa9269"/><path d="M102.11 219.83c-.06.11-.32.59-.76 1.25a12.25 12.25 0 01.76-1.25z" fill="#870f00"/><path d="M229.13 95.67a282.05 282.05 0 01-22.92 28.39c-.56.61-1.12 1.21-1.69 1.81q-6.11 6.51-12.6 12.6c-.65.62-1.3 1.23-2 1.83q-7 6.44-14.38 12.35c-.65.53-1.3 1-2 1.56Q165 161 155.89 167.05l-2.51 1.64q-8.87 5.77-18.2 10.87c6.27-11.22 7-16.41 3.87-18.16a5.42 5.42 0 00-2-.63c-3.5-.49-9.22.91-16.28 2.91l-1.9.54c-5 1.45-10.6 3.11-16.5 4.6l-1.89.46a131.18 131.18 0 01-16.44 3l-2 .2a67.28 67.28 0 01-16.38-.41c-.69-.11-1.38-.23-2.06-.37a41 41 0 01-15.83-6.7l-3.39-4.37c-2.52-3.26-2.8-7.6-.67-10.52L54 135.94l1.4-1.92 13.1-18 1.4-1.91 13.81-18.94 1.49-2L99.1 74l.82-1.12 1.68-2.27q7.66-10.31 16-20l2-2.36q8-9.14 16.49-17.74c.76-.77 1.53-1.53 2.3-2.29a368.93 368.93 0 0132-28.22h11.49c1.66 4.27 3.6 8.91 5.73 13.76l1.34 3c3.1 7 6.53 14.25 10 21.52.57 1.16 1.14 2.33 1.7 3.49 4.25 8.68 8.57 17.2 12.53 24.85l2.6 5c6.22 11.79 11.3 20.85 13.35 24.05z" fill="#ab1300"/><path d="M205.65 66.26c1.38-.55 4.44-.47 10.17 5.33l-2.6-5c-3.25-2.4-6-3.14-8.31-2.23-9 3.6-6 32.53-.39 61.47.57-.6 1.13-1.2 1.69-1.81-9.21-48.2-3.67-56.52-.56-57.76zm-21.06-30.18c3.28-1.64 9 .8 16.1 5.7-.56-1.16-1.13-2.33-1.7-3.49-7-4.41-12-5.64-15.3-4-8.09 4.05-4.67 24.41-.35 50.19 2.89 17.16 6.26 37.31 6.62 55.82.66-.6 1.31-1.21 2-1.83-.53-18.16-3.8-37.65-6.61-54.33-4.06-23.97-7.53-44.67-.76-48.06zM171.48 13.4q6.15-3 17.47 3.36l-1.34-3c-7.09-3.54-12.69-4.25-17-2.16-15.37 7.44-9.1 49.44-3 90.06 2.81 18.83 5.68 38 6 52.55.66-.51 1.31-1 2-1.56-.49-14.23-3.21-32.46-6-51.28-5.74-38.05-12.17-81.17 1.87-87.97zM60.4 146.48c-1.51-4.4-3.23-8.6-5-12.46l-1.4 1.92c4.61 10.43 8.87 23.19 9.56 35.75.68.14 1.37.26 2.06.37a91.48 91.48 0 00-5.22-25.58zm9.52-32.37l-1.4 1.89c6.19 15.51 14.32 36.84 13.5 56.45l2-.2c.78-20.41-7.82-42.43-14.1-58.14zm20.22-5.59c-1.82-5.45-3.57-10.66-4.94-15.39l-1.49 2c1.3 4.31 2.87 9 4.54 14 6.31 18.83 13.59 40.53 12.24 60.13l1.89-.46c1.2-20.21-6.21-42.3-12.24-60.28zm19.46-6c-3.53-11.76-6.79-22.68-8-31.82l-1.68 2.27c1.4 8.88 4.48 19.15 7.77 30.13 6 20 12.47 41.65 11.19 61.17l1.9-.54c1.13-20.14-5.45-42.1-11.18-61.26zm19-6.77c-4.79-17.34-9.42-34.06-8.92-47.45l-2 2.36c.08 13.25 4.48 29.17 9 45.63 5.85 21.15 12.16 44 10.44 64.53a5.42 5.42 0 012 .63c1.79-20.99-4.63-44.24-10.57-65.75zm18.68-7.16c-5.74-22.1-11.25-43.34-8.81-60.32-.77.76-1.54 1.52-2.3 2.29-1.69 16.84 3.62 37.27 9.13 58.44 7.17 27.6 14.52 55.89 8.08 79.65l2.51-1.64c5.58-23.68-1.62-51.41-8.66-78.47z" fill="#c14f29"/><path d="M124.06 217.47a4.06 4.06 0 011.59-1.81 5.91 5.91 0 011.09-.59 6 6 0 01.46 1.14 4 4 0 01.08 2.41 4.7 4.7 0 01-2.72 2.47 4.72 4.72 0 01-.5-3.62zm96.88-77.65a4 4 0 01-1.34-2 6.47 6.47 0 01-.29-1.21 6.34 6.34 0 011.23-.15 4.13 4.13 0 012.35.55 4.75 4.75 0 011.68 3.26 4.71 4.71 0 01-3.63-.45z" fill="#fff2d9"/><path d="M246.8 137.17a4 4 0 011.81-1.59 6.68 6.68 0 011.16-.44 6.12 6.12 0 01.31 1.2 4 4 0 01-.24 2.4 4.75 4.75 0 01-3 2.09 4.67 4.67 0 01-.04-3.66z" fill="#333"/><path d="M249.94 147.48a4.13 4.13 0 012.31.7 6.6 6.6 0 011 .75 5.46 5.46 0 01-.85.9 4 4 0 01-2.16 1.06 4.7 4.7 0 01-3.37-1.45 4.71 4.71 0 013.07-1.96zm-25.77-24.97a4.06 4.06 0 011.93-1.44 5.77 5.77 0 011.19-.35 6.26 6.26 0 01.22 1.22 4 4 0 01-.43 2.37 4.68 4.68 0 01-3.17 1.85 4.73 4.73 0 01.26-3.65zm38.68-8.04a4.18 4.18 0 01-1.59 1.81 6.07 6.07 0 01-1.1.58 5.86 5.86 0 01-.47-1.15 4.08 4.08 0 01-.07-2.41 4.67 4.67 0 012.71-2.46 4.7 4.7 0 01.52 3.63z" fill="#fff2d9"/><path d="M245 106.29a4.13 4.13 0 01-.14 2.41 6 6 0 01-.5 1.13 6.52 6.52 0 01-1.07-.62 4 4 0 01-1.54-1.85 4.74 4.74 0 01.62-3.62 4.67 4.67 0 012.63 2.55z" fill="#333"/><path d="M228 78.09a4.1 4.1 0 01-2-1.33 5.78 5.78 0 01-.72-1 6 6 0 011.07-.62 4.13 4.13 0 012.38-.4 4.71 4.71 0 012.81 2.36 4.69 4.69 0 01-3.54.99zm-53.88-23.33a4.07 4.07 0 011.67 1.73 5.93 5.93 0 01.5 1.14 6.27 6.27 0 01-1.18.37 4 4 0 01-2.41-.13 4.7 4.7 0 01-2.24-2.87 4.72 4.72 0 013.66-.24zm-29.56 7.41a4.11 4.11 0 01-2.41.15A5.8 5.8 0 01141 62a5.75 5.75 0 01.48-1.14 4.07 4.07 0 011.65-1.76 4.73 4.73 0 013.67.18 4.76 4.76 0 01-2.24 2.89zM87.54 62a4.13 4.13 0 01-1.68-1.72 5.93 5.93 0 01-.5-1.14 5.86 5.86 0 011.17-.38 4.09 4.09 0 012.41.11 4.68 4.68 0 012.25 2.9 4.74 4.74 0 01-3.65.23zm13.76 62.81a4.12 4.12 0 01-1.49-1.9 5.75 5.75 0 01-.37-1.18 5.54 5.54 0 011.21-.25 4 4 0 012.38.37A4.67 4.67 0 01105 125a4.68 4.68 0 01-3.7-.19zm54.84 26.68a4.11 4.11 0 01-1.34 2 5.78 5.78 0 01-1 .72 6.82 6.82 0 01-.62-1.07 4.14 4.14 0 01-.39-2.38 4.75 4.75 0 012.36-2.81 4.69 4.69 0 01.99 3.54zm-59.55-17.04a4 4 0 01.91-2.23 5.92 5.92 0 01.84-.91 5.78 5.78 0 01.81.93 4 4 0 01.86 2.25 4.7 4.7 0 01-1.76 3.22 4.69 4.69 0 01-1.66-3.26zm88.58-40.75a4 4 0 01-.4-2.38 5.8 5.8 0 01.23-1.22 6.27 6.27 0 011.19.36 4.06 4.06 0 011.92 1.47 4.75 4.75 0 01.2 3.66 4.74 4.74 0 01-3.14-1.89zm-15.64 2.56a4.13 4.13 0 01-2.28.77A6.14 6.14 0 01166 97a5.7 5.7 0 01.17-1.23 4.17 4.17 0 011.15-2.12 4.76 4.76 0 013.59-.76 4.73 4.73 0 01-1.38 3.37zM98.29 94.8a4 4 0 01-2.4-.23 5.65 5.65 0 01-1.12-.57 6.15 6.15 0 01.65-1 4.1 4.1 0 011.92-1.47 4.67 4.67 0 013.58.76 4.69 4.69 0 01-2.63 2.51zm-47.36 11.06a4.08 4.08 0 01-2.4-.23 6.51 6.51 0 01-1.11-.54 6.38 6.38 0 01.66-1 4.05 4.05 0 011.92-1.54 4.71 4.71 0 013.59.76 4.72 4.72 0 01-2.66 2.55zM155 141.91a4 4 0 012.4.22 6.11 6.11 0 011.11.53 5.89 5.89 0 01-.65 1 4.07 4.07 0 01-1.91 1.48 4.69 4.69 0 01-3.59-.74 4.66 4.66 0 012.64-2.49zm-96.55-50.4a4 4 0 01.13 2.41 5.75 5.75 0 01-.37 1.18 6.24 6.24 0 01-1.14-.49A4.15 4.15 0 0155.32 93a4.76 4.76 0 01.22-3.67 4.72 4.72 0 012.91 2.18zm79.72 136.27a4.08 4.08 0 012.4.22 6 6 0 011.12.54 6.15 6.15 0 01-.65 1.06 4.08 4.08 0 01-1.91 1.48 4.72 4.72 0 01-3.59-.75 4.76 4.76 0 012.63-2.55zm37.58-142.52a4.11 4.11 0 01.12-2.4 6.32 6.32 0 01.49-1.14 6.26 6.26 0 011.08.61 4.09 4.09 0 011.56 1.83 4.75 4.75 0 01-.59 3.62 4.73 4.73 0 01-2.66-2.52zM63 147.86a4.09 4.09 0 011.34 2 5.79 5.79 0 01.28 1.21 5.83 5.83 0 01-1.22.16 4.06 4.06 0 01-2.35-.56 4.64 4.64 0 01-1.68-3.26 4.68 4.68 0 013.63.45zm55.21-124.4a4.11 4.11 0 011.59-1.81 6.76 6.76 0 011.09-.59 6.7 6.7 0 01.47 1.15 4.08 4.08 0 01.07 2.41 4.71 4.71 0 01-2.72 2.46 4.72 4.72 0 01-.5-3.62z" fill="#fff2d9"/><path d="M68.67 20.47a4.05 4.05 0 011.07 2.16 5.83 5.83 0 01.12 1.23 6.52 6.52 0 01-1.24 0 4 4 0 01-2.26-.86 4.66 4.66 0 01-1.24-3.45 4.69 4.69 0 013.55.92zM40.62 166.7a4.08 4.08 0 011.07 2.17 5.79 5.79 0 01.12 1.23 6 6 0 01-1.24 0 4.05 4.05 0 01-2.25-.86 4.71 4.71 0 01-1.24-3.45 4.71 4.71 0 013.54.91zM58.66 35.86a4.07 4.07 0 012.27-.86 5.88 5.88 0 011.24 0 5.91 5.91 0 01-.17 1.3 4.1 4.1 0 01-1.11 2.15 4.73 4.73 0 01-3.57.84 4.75 4.75 0 011.34-3.43zm-6.9-7.69a4.14 4.14 0 01-2.38-.34 5.78 5.78 0 01-1.09-.6 6.12 6.12 0 01.71-1 3.93 3.93 0 012-1.38 4.72 4.72 0 013.55.92 4.76 4.76 0 01-2.79 2.4zm190.78 21.51a4 4 0 01-2 1.36 5.93 5.93 0 01-1.2.3 5.61 5.61 0 01-.18-1.22 4.14 4.14 0 01.52-2.36 4.76 4.76 0 013.24-1.76 4.73 4.73 0 01-.38 3.68zm-57.26 118.48a4.13 4.13 0 012.37-.47 6.36 6.36 0 011.22.2 5.93 5.93 0 01-.32 1.19 4.12 4.12 0 01-1.41 2 4.7 4.7 0 01-3.66.3 4.68 4.68 0 011.8-3.22zm.57 45.44a4.07 4.07 0 011.92 1.46 5.78 5.78 0 01.66 1 6.09 6.09 0 01-1.11.55 4.06 4.06 0 01-2.4.24 4.64 4.64 0 01-2.65-2.53 4.66 4.66 0 013.58-.72zM89 181.82a5.24 5.24 0 01.87 2.88 7.42 7.42 0 01-.09 1.49 8.67 8.67 0 01-1.52-.41 4.92 4.92 0 01-3.44-6.17c.18.02 2.94.39 4.18 2.21zm-47.6-1.39a5.24 5.24 0 01-1.65 2.51 7 7 0 01-1.21.88 8.52 8.52 0 01-.67-1.43 4.93 4.93 0 012.55-6.6c.09.14 1.58 2.51.98 4.64zM142.81 38.8a4.08 4.08 0 012.36-.47 6.36 6.36 0 011.22.2 5.93 5.93 0 01-.32 1.19 4.1 4.1 0 01-1.41 2A4.75 4.75 0 01141 42a4.71 4.71 0 011.81-3.2zm31.33 92.41a4.06 4.06 0 011.43 1.94 6.65 6.65 0 01.35 1.19 5.88 5.88 0 01-1.22.21 4 4 0 01-2.37-.44 4.73 4.73 0 01-1.84-3.18 4.77 4.77 0 013.65.28zm7.59-68.36a4.08 4.08 0 01-2 1.4 5.61 5.61 0 01-1.2.33 6.36 6.36 0 01-.2-1.22 4.05 4.05 0 01.47-2.37 4.71 4.71 0 013.2-1.79 4.75 4.75 0 01-.27 3.65zM99.49 171.54a4.1 4.1 0 01-2 1.41 5.93 5.93 0 01-1.19.32 6.57 6.57 0 01-.2-1.23 4.1 4.1 0 01.47-2.36 4.76 4.76 0 013.2-1.8 4.7 4.7 0 01-.28 3.66zm-17.9-101.2a4.07 4.07 0 01.21-2.4 6.41 6.41 0 01.54-1.12 6.32 6.32 0 011 .65 4 4 0 011.48 1.91 4.69 4.69 0 01-.67 3.62 4.73 4.73 0 01-2.56-2.66zM183.64 178a4.07 4.07 0 011.11 2.14 6.43 6.43 0 01.15 1.23 5.88 5.88 0 01-1.24 0 4 4 0 01-2.27-.81 4.71 4.71 0 01-1.31-3.42 4.66 4.66 0 013.56.86zM18.47 81.85a4.14 4.14 0 012.3-.74 6.48 6.48 0 011.23.06 6.19 6.19 0 01-.18 1.23 4.06 4.06 0 01-1.18 2.1 4.75 4.75 0 01-3.6.72 4.72 4.72 0 011.43-3.37zM236.3 36.76a4.09 4.09 0 012.29.76 6.45 6.45 0 011 .78 6.89 6.89 0 01-.87.88 4.12 4.12 0 01-2.2 1 4.74 4.74 0 01-3.33-1.54 4.74 4.74 0 013.11-1.88z" fill="#333"/><path d="M22.6 134.53l3.15-8.96 4.88 6.38-3.15 8.96z" fill="#156a41"/><path d="M26.27 135.93l5.4-16.63 4.88 6.38-5.4 16.63z" fill="#05a357"/><path d="M79.61 9.58l9.8-2.22c1.26-.28 4.87 2.27 8 5.71s4.71 6.47 3.45 6.75L91.1 22z" fill="#156a41"/><ellipse cx="85.36" cy="15.8" fill="#05a357" rx="2.02" ry="8.56" transform="rotate(-44.7 85.357 15.802)"/><path d="M152.67 105.31l-17.17 5.94-6.97-4.82 17.16-5.94z" fill="#156a41"/><path d="M132.52 102.26l-9.99 8.46 3.08-7.42 9.99-8.46z" fill="#05a357"/><path d="M137.17 98.84l-8.24 4.74 1.76-21.26 8.24-4.73z" fill="#156a41"/><path d="M156.57 45.31l.69-8 13.97-7.93-.7 7.99zm-21.11 98.22l-12.64-.92 3.65-4.54 12.63.92z" fill="#05a357"/><path d="M219.8 92.16l-12.27-1.54 5.26-6.07 12.27 1.54z" fill="#156a41"/><path d="M200.5 91.85l2.48-17.3 5.89 5.45-2.47 17.31z" fill="#05a357"/><path d="M90.47 165.44l-11.42 12.74-11.18-1.42 11.41-12.74z" fill="#156a41"/><path d="M71.59 168.37l1.27 11.52-5.78 5-1.26-11.52zm40.24 36.27l1.26 11.52-5.78 4.99-1.26-11.52zm205.49-23.32l3.72 17.08-7.43-3.05-3.72-17.08z" fill="#05a357"/><path d="M329.07 194.87l-8.49 7.88-7.46-1.65 8.49-7.89zM139.55 360.4a20.58 20.58 0 00-2.14 17.15 10.27 10.27 0 01-.26 7 27.84 27.84 0 00-.8 15.83 31.62 31.62 0 002.91 8 24.82 24.82 0 002.83 4.26q.81-4 1.31-8.12a105.79 105.79 0 00-3.85-44.12z" fill="#156a41"/><path d="M138.88 398.74a106.92 106.92 0 01-3.3 16.26H.07V284.89a106.28 106.28 0 01119.22 38.33 105.86 105.86 0 0119.59 75.52z" fill="#fff"/><path d="M45.47 287.94A98.28 98.28 0 00.07 293v122h127.5a98.06 98.06 0 003.69-17.2 98.56 98.56 0 00-85.79-109.86z" fill="#a0bff9"/><path d="M126.88 397.26A95.4 95.4 0 01123 415H.07V297.73a94.16 94.16 0 01126.81 99.53z" fill="#d4e2fc"/><path d="M112.3 395.59a79.52 79.52 0 01-4.9 19.41H.07V313.45a79.67 79.67 0 01112.23 82.14z" fill="#fff"/><path d="M96 338.93a6.81 6.81 0 00-4.59 2.1A25.5 25.5 0 0181 347.17c-1.82.58-3.23 1.95-3.09 4.84.39 7.69 15.25 9.17 22 1.21s2.38-14.61-3.91-14.29z" fill="#d4e2fc"/><path d="M94.65 337.56a6.79 6.79 0 00-4.58 2.11 25.34 25.34 0 01-10.41 6.13c-1.82.59-3.23 2-3.08 4.84.39 7.7 15.25 9.18 22 1.22s2.35-14.62-3.93-14.3z" fill="#05a357"/><path d="M10.93 326.14a28.38 28.38 0 009.51 12.32c6.47 4.88 13.17 12.46 18.36 25.84s5.34 23.5 3.84 31.46a28.4 28.4 0 001.28 15.51c21.62 1.4 28.42-18.79 21.88-31.41a11.3 11.3 0 01-.91-7.63c1.12-4.94.6-11.16-1.8-17.35a34.77 34.77 0 00-4.52-8.24 25.29 25.29 0 00-5.83-5.78 11.24 11.24 0 01-4.47-6.25c-3.67-13.74-22.27-24.07-37.34-8.47z" fill="#156a41"/><path d="M79.93 399.39a11.21 11.21 0 00-6.51 4.08 25.68 25.68 0 01-6.14 5.46 34.62 34.62 0 01-8.51 4c-6.32 2-12.57 2.13-17.42.71a11.18 11.18 0 00-7.66.42 19.78 19.78 0 01-2.61.94h-12.4c-8.23-2.3-15.24-9.26-15.24-20.78a30.58 30.58 0 01.26-4 28.36 28.36 0 0115.56-.3c7.85 2 18 2.46 31.63-1.88s21.67-10.54 26.94-16.69a28.35 28.35 0 0112.89-8.72c14.64 16.01 3.16 33.96-10.79 36.76zM51.3 359.9a11.28 11.28 0 00-7.52 1.58 25.3 25.3 0 01-7.63 3 35 35 0 01-9.37.83C20.15 365 14.25 363 10.18 360a11.19 11.19 0 00-7.35-2.24 18.16 18.16 0 01-2.76 0v-26c1.22.73 2.51 1.43 3.9 2.09l.28.13c6 2.79 13.58 4.87 23.68 5.32 14.33.63 24-2.46 31-6.42a28.36 28.36 0 0115.1-3.75c8.29 20.03-8.67 32.94-22.73 30.77z" fill="#0f462d"/><path d="M29.35 415H.07v-19.4q2.07 1.93 4.1 3.51t4.05 2.83c.61.39 1.21.75 1.81 1.09a46.42 46.42 0 007 3.3A28.38 28.38 0 0129.35 415zm18.7-38.79a18.33 18.33 0 01-2.37.7c-.27.07-.55.13-.82.18a11.23 11.23 0 00-6.55 4 25.37 25.37 0 01-6.2 5.39 34.56 34.56 0 01-8.55 3.91c-6.35 1.93-12.59 2-17.43.51-.3-.09-.61-.17-.92-.24a11.44 11.44 0 00-5.14 0v-22.2a68.52 68.52 0 0015.89-3c13.73-4.18 21.78-10.3 27.12-16.39a28.33 28.33 0 0113-8.58c13.32 14.88 4.41 31.21-8.03 35.72z" fill="#156a41"/><path d="M56.07 340.48a28.5 28.5 0 00-13 8.57c-5.34 6.09-13.39 12.22-27.12 16.4A69.49 69.49 0 01.83 368.4c-.41 7.75-.5 16.83 8.22 23.15a28.29 28.29 0 006.24.3A29 29 0 0022 381.31c2.83-7.59 8.19-16.17 19.53-25A64 64 0 0160 346.05a29.18 29.18 0 00-3.93-5.57z" fill="#0f462d"/><path d="M10 403l-1.34.38a79.44 79.44 0 00-8.59 3.12V382c.94-.17 1.61-.22 1.77 0l3.37 8.63L8.08 398l1.38 3.53z" fill="#0f462d"/><path d="M114.15 415H49.92c.35-.32.71-.63 1.09-.93a34.74 34.74 0 018.07-4.83c6.09-2.63 12.29-3.39 17.26-2.46a11.24 11.24 0 007.59-1.19c9.86-5.59 24.86-2.9 30.22 9.41z" fill="#d4e2fc"/><path d="M89.77 408.15a35.18 35.18 0 01-.63 6.85H63.45q.27-3.19.26-6.78c0-14.35-3.57-23.84-7.86-30.7a28.39 28.39 0 01-4.45-14.92c19.63-9.17 33.32 7.17 31.81 21.3a11.28 11.28 0 001.93 7.44 25.61 25.61 0 013.37 7.49 34.25 34.25 0 011.26 9.32z" fill="#156a41"/><path d="M89.77 408.15a35.18 35.18 0 01-.63 6.85H63.45c.17-2.11.26-4.34.26-6.71a27.5 27.5 0 0111-.42 11.24 11.24 0 007.59-1.19 21.36 21.36 0 017.22-2.49 34.24 34.24 0 01.25 3.96z" fill="#0f462d"/><path d="M112.38 415H45.07a26.62 26.62 0 013.34-3.16 34.35 34.35 0 018.07-4.84c6.09-2.63 12.29-3.38 17.26-2.45a11.25 11.25 0 007.59-1.2c10.44-5.92 26.61-2.56 31.05 11.65z" fill="#06c167"/><path d="M55.16 374.77a4 4 0 01-.35 2.38 5.78 5.78 0 01-.6 1.09 5.84 5.84 0 01-1-.7 4.05 4.05 0 01-1.37-2 4.69 4.69 0 01.94-3.54 4.68 4.68 0 012.38 2.77z" fill="#333"/><path d="M104.7 368.94a28.36 28.36 0 00-14.07-6.64c-8-1.41-17.4-5.11-28.1-14.67s-15.44-18.5-17.73-26.27a28.35 28.35 0 00-8.19-13.24c-19.89 8.58-16.77 29.67-5.2 37.93a11.32 11.32 0 014.28 6.38c1.24 4.91 4.53 10.21 9.48 14.63a34.47 34.47 0 007.83 5.29 25.62 25.62 0 007.82 2.5 11.25 11.25 0 016.83 3.53c9.51 10.57 30.81 11.3 37.1-9.44z" fill="#05a357"/><path d="M33.45 333.77a4.1 4.1 0 01-.58 2.38 6.17 6.17 0 01-.7 1 6.25 6.25 0 01-1-.81 4.06 4.06 0 01-1.17-2.09c-.3-1.71 1.17-3.38 1.27-3.49a4.79 4.79 0 012.18 3.01z" fill="#fff2d9"/><path d="M52.54 393.08a31.38 31.38 0 01-.33 4.43 28.37 28.37 0 01-15.56 0c-7.22-2-16.38-2.67-28.57.46-1 .26-2 .55-3.1.86l-.81.25c-1.43.44-2.8.9-4.1 1.39v-27.23a29.39 29.39 0 0114.9.25 11.28 11.28 0 007.68-.3 22.65 22.65 0 0118.6.75 20.44 20.44 0 014.43 3c4.1 3.57 6.86 8.97 6.86 16.14z" fill="#05a357"/><path d="M60.62 345.86l-7.46-19.31-31 14.09 16.26 18.3c1-.86 2-1.72 3.16-2.58a63.35 63.35 0 0119.04-10.5zM0 373.25l8.37 20.13c11-6 13.71-12.06 13.71-12.06a82.69 82.69 0 014.73-9.38c-1.43.28-26.81 1.31-26.81 1.31z" fill="#156a41"/><path d="M51.39 324.66a4.21 4.21 0 011.09 2.19 6.54 6.54 0 01.13 1.25 6.19 6.19 0 01-1.26 0 4.1 4.1 0 01-2.29-.86 4.78 4.78 0 01-1.27-3.49 4.81 4.81 0 013.6.91z" fill="#333"/><path d="M80.56 337.49a26.09 26.09 0 01-4.34 2.72 29.24 29.24 0 01-10.16 2.92C58 344 48.34 347 37 355.79a71 71 0 00-10.22 9.54 49.71 49.71 0 00-9.3 15.42 28.39 28.39 0 01-9.1 12.63 26.62 26.62 0 01-8.3-6.45v-26.5a21.64 21.64 0 015.77-5.25 11.23 11.23 0 004.72-6.07 25.49 25.49 0 013.88-7.24 32.29 32.29 0 013.22-3.7 35 35 0 013.39-3c5.25-4.07 11.06-6.34 16.11-6.67a11.27 11.27 0 007-3 22.68 22.68 0 0115.54-6.12c8.94-.03 17.93 5.29 20.85 18.11z" fill="#06c167"/><path d="M101 340.62c1.16 13.45-23.16 15.92-24.44 10 .39 7.7 15.25 9.18 22 1.22 3.85-4.51 4.07-8.6 2.41-11.24z" fill="#156a41"/><path d="M7 325a27.53 27.53 0 00-2.6 8.09c-.12.24-.25.48-.38.71a14.33 14.33 0 01-3.9 4.33v-19.85a6 6 0 015.55 1.18c2.12 1.9 2.12 3.87 1.33 5.54z" fill="#06c167"/><path d="M4.35 333.13c0 .28-.08.56-.1.84a20.19 20.19 0 00-.14 2.81 6.79 6.79 0 01-1.69 4.76 7.6 7.6 0 01-2.35 1.85v-5.22A14.33 14.33 0 004 333.84c.1-.23.23-.47.35-.71z" fill="#05a357"/><path d="M13.34 365.91a4.09 4.09 0 012.28-.78 6.76 6.76 0 011.24 0 6.59 6.59 0 01-.17 1.23 4.07 4.07 0 01-1.14 2.13 4.73 4.73 0 01-3.58.78 4.71 4.71 0 011.37-3.36z" fill="#fff2d9"/><path d="M64 391.54a4.12 4.12 0 012.4-.21 6.28 6.28 0 011.19.32 6.09 6.09 0 01-.45 1.15 4.11 4.11 0 01-1.61 1.8 4.73 4.73 0 01-3.66-.08 4.7 4.7 0 012.13-2.98z" fill="#333"/><path d="M77 361a4.09 4.09 0 011.07 2.16 6.28 6.28 0 01.13 1.23 6 6 0 01-1.24 0 4.13 4.13 0 01-2.26-.84 4.75 4.75 0 01-1.25-3.45 4.71 4.71 0 013.55.9zm-48.79-11.24a4.09 4.09 0 01-2.4-.15 6.28 6.28 0 01-1.14-.51 6.08 6.08 0 01.62-1.07 4.1 4.1 0 011.86-1.54 4.73 4.73 0 013.61.64 4.69 4.69 0 01-2.55 2.63zm36.42-11.64a4 4 0 011.79 1.62 5.62 5.62 0 01.57 1.1 6.2 6.2 0 01-1.16.46 4.09 4.09 0 01-2.41 0 4.82 4.82 0 01-2.42-2.71 4.75 4.75 0 013.63-.47zM34.2 376.5a4.05 4.05 0 011.07 2.16 6.28 6.28 0 01.13 1.23 6 6 0 01-1.24 0 4.07 4.07 0 01-2.26-.85 4.71 4.71 0 01-1.25-3.44 4.67 4.67 0 013.55.9zm-12.34-10.04a4.06 4.06 0 01-.86 2.24 6.78 6.78 0 01-.82.93 6 6 0 01-.83-.92 4.15 4.15 0 01-.9-2.24 4.76 4.76 0 011.71-3.25 4.69 4.69 0 011.7 3.24zM91 408.91a4.05 4.05 0 010 2.41 5.45 5.45 0 01-.41 1.17 6.51 6.51 0 01-1.12-.53 4.13 4.13 0 01-1.68-1.73 4.74 4.74 0 01.34-3.65 4.7 4.7 0 012.87 2.33zM114.66 389a4.05 4.05 0 010 2.41 5.45 5.45 0 01-.41 1.17 6.51 6.51 0 01-1.12-.53 4.13 4.13 0 01-1.68-1.73 4.72 4.72 0 01.34-3.66 4.73 4.73 0 012.87 2.34zm-24.29-61.16a4.07 4.07 0 01-2.16 1.06 5.83 5.83 0 01-1.21.1 6.52 6.52 0 010-1.24 4.05 4.05 0 01.86-2.25 4.72 4.72 0 013.45-1.24 4.71 4.71 0 01-.94 3.57zm-17.99 83.41a4.14 4.14 0 01-1.53-1.86 5.92 5.92 0 01-.39-1.18 6 6 0 011.21-.28 4.16 4.16 0 012.39.33 4.71 4.71 0 012 3.09 4.72 4.72 0 01-3.68-.1zm1.18 3.75H70.2a4.16 4.16 0 012.15-.8 6.11 6.11 0 011.24 0 6.7 6.7 0 01-.03.8z" fill="#fff2d9"/><path d="M118.11 380.35a4.13 4.13 0 012.36-.51 6.05 6.05 0 011.22.17 5.93 5.93 0 01-.3 1.2 4.11 4.11 0 01-1.37 2 4.68 4.68 0 01-3.65.38 4.73 4.73 0 011.74-3.24zm-23.52-14.99a4 4 0 01-2-1.33 6.56 6.56 0 01-.73-1 5.57 5.57 0 011.07-.62 4 4 0 012.38-.39 4.75 4.75 0 012.81 2.36 4.69 4.69 0 01-3.53.98z" fill="#333"/><circle cx="81.58" cy="372.83" fill="#c14f29" r="1.49"/><circle cx="102.3" cy="383.74" fill="#c14f29" r="1.49"/><circle cx="18.24" cy="316.82" fill="#c14f29" r="1.49"/><circle cx="93.61" cy="395.08" fill="#c14f29" r="1.49"/><circle cx="62.32" cy="385.37" fill="#993f21" r="1.49"/><circle cx="77.59" cy="374.9" fill="#993f21" r="1.49"/><circle cx="60.27" cy="357.77" fill="#993f21" r="1.49"/><circle cx="52.17" cy="337.06" fill="#993f21" r="1.19"/><circle cx="25.37" cy="385.49" fill="#993f21" r="1.19"/><circle cx="59.61" cy="411.69" fill="#993f21" r="1.19"/><circle cx="40.71" cy="349.72" fill="#993f21" r="1.19"/><circle cx="42.81" cy="342.36" fill="#c14f29" r="1.19"/><circle cx="87.46" cy="321.42" fill="#c14f29" r="1.19"/><circle cx="83.25" cy="338.48" fill="#c14f29" r="1.19"/><circle cx="43.51" cy="302.48" fill="#c14f29" r="1.19"/><circle cx="96.88" cy="384.25" fill="#c14f29" r="1.19"/><circle cx="21.17" cy="322.13" fill="#c14f29" r="1.19"/><circle cx="8.29" cy="345.73" fill="#c14f29" r="1.49"/><circle cx="118.43" cy="406.64" fill="#c14f29" r="1.49"/><circle cx="3.5" cy="389.45" fill="#c14f29" r="1.49"/><circle cx="30.21" cy="390.94" fill="#c14f29" r="1.49"/><path d="M32.756 384.014l3.513.432-.432 3.514-3.513-.432z" fill="#993f21"/><path d="M62.53 363.085l2.79-2.178 2.18 2.79-2.79 2.178zm31.826-18.047l2.79-2.18 2.18 2.79-2.79 2.18zM58.22 325.823l2.79-2.179 2.178 2.79-2.79 2.179z" fill="#c14f29"/><path d="M98.059 389.746l2.23-1.742 1.742 2.23-2.23 1.742z" fill="#993f21"/><path d="M5 312.73a4 4 0 011.79-1.6 6.31 6.31 0 011.21-.45 6.06 6.06 0 01.33 1.2 4 4 0 01-.22 2.4 4.73 4.73 0 01-3 2.12 4.65 4.65 0 01-.11-3.67z" fill="#fff2d9"/><circle cx="25.54" cy="300.05" fill="#993f21" r="1.19"/><path d="M212.81 393.6c4 .45 6.92-3.22 7.89-8a16.25 16.25 0 00-3.13-13.57c-6.75-8-14-4.65-14.75 1.59a6.82 6.82 0 001.34 4.87c.26.36.51.74.76 1.12.44.71.84 1.45 1.21 2.2a27.46 27.46 0 012.4 7.94c.28 1.92 1.41 3.53 4.28 3.85z" fill="#f1998e"/><path d="M219 384.85a16.22 16.22 0 00-3.13-13.56c-6.75-8-14-4.65-14.75 1.59a6.74 6.74 0 001.34 4.86c.26.37.51.75.76 1.13.44.71.84 1.44 1.21 2.19 3.51 4.86 12.23 10.12 14.57 3.79z" fill="#06c167"/><path d="M219 384.85c-2.36 6.33-11.08 1.07-14.57-3.79a27.61 27.61 0 012.4 7.95c.28 1.89 1.41 3.5 4.28 3.82 3.99.45 6.94-3.23 7.89-7.98z" fill="#05a357"/><path d="M261.05 305.92a4 4 0 01-2.41.13 5.75 5.75 0 01-1.18-.37 6.24 6.24 0 01.49-1.14 4.09 4.09 0 011.67-1.74 4.7 4.7 0 013.66.21 4.69 4.69 0 01-2.23 2.91z" fill="#fff2d9"/><path d="M267.87 313.42a28.3 28.3 0 0015.56-.29c7.77-2.29 17.85-3.15 31.68.66s22.05 9.72 27.56 15.66a30.13 30.13 0 006.27 5.19 14.65 14.65 0 0012.12 1.36c14-16.53-3.32-32.37-17.36-34.64a11.26 11.26 0 01-6.67-3.82c-3.29-3.84-8.6-7.13-15-8.89a34.48 34.48 0 00-9.32-1.28 25.54 25.54 0 00-8.12 1.23 11.21 11.21 0 01-7.68-.13c-13.22-5.24-32.63 3.56-29.05 24.93z" fill="#f1998e"/><path d="M279.13 320.85c3.41-7.35 9.41-15.5 21.4-23.39s21.84-10.16 29.94-10.38a28.45 28.45 0 0014.9-4.51c-3.18-21.43-24.36-23.84-35.32-14.78a11.2 11.2 0 01-7.27 2.49c-5.06 0-11 1.77-16.57 5.41a34.7 34.7 0 00-7.11 6.16 25.52 25.52 0 00-4.42 6.92 11.32 11.32 0 01-5.17 5.69c-12.66 6.47-18.78 27.63 2.57 38.79a140.64 140.64 0 007.05-12.4z" fill="#f1998e"/><path d="M273 311.77a28.4 28.4 0 0015.56-.3c7.77-2.28 17.86-3.15 31.69.67s22 9.71 27.55 15.66a28.42 28.42 0 0013.26 8.2c14-16.53 1.85-34-12.19-36.3a11.22 11.22 0 01-6.66-3.81c-3.3-3.84-8.6-7.14-15-8.9a34.8 34.8 0 00-9.31-1.28 25.49 25.49 0 00-8.12 1.24 11.3 11.3 0 01-7.69-.13c-13.21-5.25-32.62 3.56-29 24.93z" fill="#06c167"/><path d="M300.58 297.42c10.67-7 19.65-9.59 27.21-10.23l-.58-.18a34.8 34.8 0 00-9.31-1.28 25.49 25.49 0 00-8.12 1.24 11.3 11.3 0 01-7.69-.13c-13.21-5.25-32.62 3.56-29 24.93a27.53 27.53 0 0011.14.65 63.17 63.17 0 0116.35-15z" fill="#156a41"/><path d="M266.08 330.74a28.38 28.38 0 0010-11.89c3.41-7.35 9.4-15.5 21.39-23.38s21.85-10.17 29.95-10.39a28.32 28.32 0 0014.89-4.51C339.17 259.14 318 256.74 307 265.8a11.25 11.25 0 01-7.26 2.49c-5.06-.06-11 1.76-16.58 5.41a34.34 34.34 0 00-7.1 6.15 25.61 25.61 0 00-4.43 6.93 11.24 11.24 0 01-5.16 5.68c-12.66 6.48-18.84 26.88-.42 38.28z" fill="#05a357"/><path d="M293 275.79a4.12 4.12 0 01-2.36-.48 6 6 0 01-1-.66 5.83 5.83 0 01.76-1 4 4 0 012.06-1.26 4.65 4.65 0 013.48 1.13 4.68 4.68 0 01-2.94 2.27zm23.65 5.78a4.05 4.05 0 01-1.37 2 6.32 6.32 0 01-1 .71 5.88 5.88 0 01-.6-1.08 4.06 4.06 0 01-.35-2.38 4.71 4.71 0 012.4-2.77 4.66 4.66 0 01.92 3.52z" fill="#333"/><path d="M272.766 317.256l-.147 3.537-3.537-.147.147-3.537zm7.09 54.859l-2.504 2.503-2.503-2.503 2.503-2.504z" fill="#c14f29"/><path d="M315.32 296.21a4.09 4.09 0 01-1-2.21 6.39 6.39 0 01-.06-1.24 6.39 6.39 0 011.24.06 4.11 4.11 0 012.21 1 4.73 4.73 0 011.07 3.51 4.71 4.71 0 01-3.46-1.12zM320 275.1a4.16 4.16 0 01-2.21-1 6.38 6.38 0 01-.89-.86 6.26 6.26 0 01.95-.8 4.09 4.09 0 012.28-.8 4.69 4.69 0 013.17 1.83 4.67 4.67 0 01-3.3 1.63z" fill="#fff2d9"/><circle cx="320.62" cy="306.66" fill="#c14f29" r="1.49"/><circle cx="263.61" cy="311.01" fill="#993f21" r="1.19"/><path d="M351.09 318.55a4 4 0 012.14-1.11 6.43 6.43 0 011.23-.15 5.93 5.93 0 010 1.24 4.11 4.11 0 01-.81 2.27 4.73 4.73 0 01-3.43 1.31 4.68 4.68 0 01.87-3.56zm-65.78 59.62a4 4 0 01-2.29-.73 6.62 6.62 0 01-1-.77 6.56 6.56 0 01.87-.89 4.11 4.11 0 012.18-1 4.68 4.68 0 013.34 1.51 4.66 4.66 0 01-3.1 1.88zm-38.66 15.06a4.12 4.12 0 01-.42-2.38 6.7 6.7 0 01.23-1.22 6.27 6.27 0 011.19.36 4 4 0 011.93 1.45 4.74 4.74 0 01.22 3.66 4.68 4.68 0 01-3.15-1.87z" fill="#fff2d9"/><path d="M253.94 394a4.05 4.05 0 011.75-1.65 6.48 6.48 0 011.15-.49 6.14 6.14 0 01.36 1.19 4 4 0 01-.15 2.4 4.74 4.74 0 01-2.93 2.21 4.71 4.71 0 01-.18-3.66zM316 301.45a4 4 0 01-.76 2.28 6.76 6.76 0 01-.78 1 6 6 0 01-.88-.88 4.12 4.12 0 01-1-2.2 4.68 4.68 0 011.56-3.32 4.68 4.68 0 011.86 3.12z" fill="#333"/><path d="M347.2 227.74a4.08 4.08 0 012.39.34 6.65 6.65 0 011.09.59 6.11 6.11 0 01-.7 1 4.1 4.1 0 01-2 1.38 4.77 4.77 0 01-3.55-.92 4.69 4.69 0 012.77-2.39z" fill="#fff2d9"/><path d="M435.7 407.89a56.53 56.53 0 01.19 7.11h4.66c0-1.08-.1-2.16-.2-3.25A55.85 55.85 0 00418 372a55.78 55.78 0 0117.7 35.89z" fill="#f1998e"/><path d="M379.43 361.19A55.79 55.79 0 01418 372a56 56 0 00-94 43h4.66a56 56 0 0150.77-53.81z" fill="#fff"/><path d="M379.43 361.19A56 56 0 00328.68 415h5.53a45.79 45.79 0 1191.49 0h10.19a56.53 56.53 0 00-.19-7.11A55.78 55.78 0 00418 372a55.79 55.79 0 00-38.57-10.81z" fill="#fff"/><path d="M425.56 408.83a45.79 45.79 0 00-91.35 6.17h8.41a37.39 37.39 0 0174.58-5.34 38.22 38.22 0 01.11 5.34h8.39a45.59 45.59 0 00-.14-6.17z" fill="#ffe3ac"/><path d="M365.37 381a35.25 35.25 0 0146.68 17.47 33.87 33.87 0 011.77 4.76 16 16 0 01-1.16 11.77h4.65a38.22 38.22 0 00-.11-5.34 37.39 37.39 0 00-74.58 5.34h2.17a35.25 35.25 0 0120.58-34z" fill="#870f00"/><path d="M413.82 403.25a33.87 33.87 0 00-1.77-4.76A35.24 35.24 0 00344.79 415h67.87a16 16 0 001.16-11.75z"/><circle cx="458.85" cy="101.7" fill="#c14f29" r="1.49"/><path d="M453.693 96.453l3.433.92-.92 3.434-3.434-.92z" fill="#993f21"/><circle cx="159.37" cy="317.04" fill="#c14f29" r="1.49"/><circle cx="151.13" cy="371.9" fill="#993f21" r="1.49"/><path d="M151.091 312.682l3.538-.116.116 3.538-3.538.116z" fill="#993f21"/><path d="M162.51 327.74a4.12 4.12 0 01-.5 2.36 6.54 6.54 0 01-.67 1 6 6 0 01-1-.78 4.08 4.08 0 01-1.24-2.06 4.69 4.69 0 011.16-3.48 4.7 4.7 0 012.25 2.96zm-14.03 33.4a4 4 0 011.05 2.17 6.84 6.84 0 01.12 1.24 6.14 6.14 0 01-1.24 0 3.94 3.94 0 01-2.25-.87 4.74 4.74 0 01-1.22-3.46 4.72 4.72 0 013.54.92z" fill="#fff2d9"/><path d="M156 406.56a4.15 4.15 0 01-2.3.73 6 6 0 01-1.24-.07 5.71 5.71 0 01.19-1.22 4.06 4.06 0 011.18-2.1 4.73 4.73 0 013.6-.71 4.67 4.67 0 01-1.43 3.37z" fill="#333"/><path d="M282.969 232.553l1.118 3.359-3.358 1.118-1.119-3.358z" fill="#993f21"/><path d="M366.69 154.21a4.12 4.12 0 01.66-2.32 5.77 5.77 0 01.74-1 5.81 5.81 0 01.92.83 4.13 4.13 0 011.1 2.15 4.72 4.72 0 01-1.4 3.39 4.7 4.7 0 01-2.02-3.05z" fill="#fff2d9"/><circle cx="382.29" cy="154.57" fill="#c14f29" r="1.49"/><path d="M376.82 199c1.1-4.65-2.89-8.58-4.43-13.19-2.33-7-3.45-16.11-.45-28.81s8.09-20.35 13.31-25.55a25.84 25.84 0 007-12.28c-15.48-12.18-31-.55-32.57 12.28a10.18 10.18 0 01-3.25 6.18 27.87 27.87 0 00-7.58 13.92 31.69 31.69 0 00-.85 8.51 23.07 23.07 0 001.4 7.33 10.29 10.29 0 01.13 7c-4.32 12.18 4.32 29.52 23.62 25.56z" fill="#f1998e"/><path d="M371.3 197.69a25.75 25.75 0 00-.79-14.12c-2.33-7-3.46-16.12-.45-28.81s8.09-20.36 13.31-25.56a25.82 25.82 0 007-12.28c-15.47-12.18-31-.55-32.56 12.28a10.23 10.23 0 01-3.25 6.18A27.83 27.83 0 00347 149.3a31.73 31.73 0 00-.85 8.51 23.48 23.48 0 001.39 7.34 10.21 10.21 0 01.14 7c-4.32 12.18 4.32 29.52 23.62 25.56z" fill="#05a357"/><path d="M352.5 157a4.11 4.11 0 012.41 0 5.5 5.5 0 011.16.44 6.13 6.13 0 01-.56 1.11 4 4 0 01-1.76 1.64 4.77 4.77 0 01-3.65-.41 4.72 4.72 0 012.4-2.78z" fill="#333"/><path d="M362.3 184.66a4.13 4.13 0 012.38.4 6.82 6.82 0 011.07.62 5.78 5.78 0 01-.72 1 4.11 4.11 0 01-2 1.33 4.67 4.67 0 01-3.52-1 4.67 4.67 0 012.79-2.35z" fill="#fff2d9"/><circle cx="379.15" cy="122.3" fill="#c14f29" r="1.49"/><path d="M356.409 166l.88 3.429-3.428.88-.88-3.428z" fill="#993f21"/><circle cx="355.61" cy="186.15" fill="#993f21" r="1.19"/><path d="M382.14 127.52a4.06 4.06 0 012.29.75 6.83 6.83 0 011 .77 6.21 6.21 0 01-.87.88 4.1 4.1 0 01-2.19 1 4.78 4.78 0 01-3.34-1.53 4.71 4.71 0 013.11-1.87z" fill="#fff2d9"/><path d="M341.43 26.71l-10.61 4.67-6.51-4.01 10.61-4.67z" fill="#156a41"/><path d="M478.06 397.56a16.26 16.26 0 0011.17-8.31c4.6-9.39-1.38-14.73-7.38-12.87a6.83 6.83 0 00-3.92 3.17c-.23.4-.47.78-.73 1.15a19.73 19.73 0 01-1.52 2 27.23 27.23 0 01-6.31 5.39c-1.62 1-2.64 2.69-1.78 5.45 1.18 3.81 5.73 5.03 10.47 4.02z" fill="#f1998e"/><path d="M481.3 374.35a6.75 6.75 0 00-3.92 3.18c-.23.39-.48.77-.73 1.14a19.82 19.82 0 01-1.53 2 27.23 27.23 0 01-6.31 5.39c-1.61 1-2.64 2.7-1.78 5.45 1.18 3.82 5.73 5.05 10.47 4a16.25 16.25 0 0011.17-8.32c4.6-9.36-1.38-14.7-7.37-12.84z" fill="#05a357"/><path d="M489.84 378.24a14.24 14.24 0 01-1.63 6.19 16.29 16.29 0 01-11.21 8.32c-4.53 1-8.86-.12-10.29-3.53a5.8 5.8 0 00.28 2.28c1.18 3.82 5.73 5.05 10.47 4a16.25 16.25 0 0011.17-8.32c1.85-3.64 2.02-6.69 1.21-8.94zm-61.2-53.49l1.88-9.32 14.81 15.35-1.88 9.32z" fill="#156a41"/><path d="M396.05 327.39a4.12 4.12 0 01-2.4-.29 6.23 6.23 0 01-1.09-.58 6 6 0 01.69-1 4 4 0 011.95-1.41 4.75 4.75 0 013.57.86 4.72 4.72 0 01-2.72 2.42z" fill="#fff2d9"/><circle cx="413.68" cy="340.09" fill="#c14f29" r="1.49"/><path d="M447.942 51.05l3.317-1.237 1.237 3.317-3.317 1.236zm28.274-40.077l.931-3.415 3.416.932-.932 3.415z" fill="#c14f29"/><path d="M480.92 16.35a4.11 4.11 0 012-1.37 5.93 5.93 0 011.21-.3 6.65 6.65 0 01.18 1.22 4.14 4.14 0 01-.52 2.36 4.73 4.73 0 01-3.25 1.74 4.68 4.68 0 01.38-3.65zm-49.7.47a4 4 0 011.56 1.83 6.12 6.12 0 01.43 1.16 5.75 5.75 0 01-1.2.3 4.16 4.16 0 01-2.4-.27 4.68 4.68 0 01-2.05-3 4.75 4.75 0 013.66-.02z" fill="#fff2d9"/><path d="M480.21 25.92a4.12 4.12 0 011.2 2.09 6.3 6.3 0 01.2 1.22 6 6 0 01-1.23.07 4.05 4.05 0 01-2.31-.71 4.71 4.71 0 01-1.46-3.36 4.72 4.72 0 013.6.69z" fill="#333"/><circle cx="489.86" cy="39.29" fill="#993f21" r="1.49"/><path d="M24.2 244.15l-15.76-7.57-8.37 4.78v5.87l10.18 4.89z" fill="#05a357"/><path d="M3.41 251.96l.76-9.47 16.53 13.49-.77 9.47z" fill="#156a41"/></svg>