<svg viewBox="0 0 491.53 415.1" xmlns="http://www.w3.org/2000/svg"><path d="M0 132.69v282.2h15.3l122.78-86.72z" fill="#e8503d"/><path d="M0 229.18v185.71h15.3l77.31-54.6z" fill="#fff"/><path d="M0 251.98v162.91h15.3l66.56-47.01z" fill="#05a357"/><path d="M0 274.38v140.51h15.3l56.01-39.56z" fill="#ffcf70"/><path d="M0 315.31v99.58h15.3l36.72-25.94z" fill="#fff"/><path d="M0 344.62v70.27h15.3l22.91-16.18z" fill="#e8503d"/><path d="M46.03 414.89l102.28-72.24-13.25-18.74L6.25 414.89z" fill="#fff"/><path d="M370.15 414.89a168.94 168.94 0 10-331.67 0z" fill="#bc8b2c"/><path d="M35.2 394.45l.66.94-.09-1.39z" fill="#fff"/><path d="M138.08 328.17l-2.3-3.25z" fill="#bc8b2c"/><path d="M53.92 305.52L89.6 356l45.46-32.11-45.88-65a169.64 169.64 0 00-35.26 46.63z" fill="#993f21"/><path d="M89.6 356l-35.68-50.5c-2.31 4.5-4.41 9.13-6.32 13.85l31.25 44.24z" fill="#ffcf70"/><path d="M78.85 363.61L47.6 319.37q-3 7.33-5.24 15l25.93 36.71z" fill="#156a41"/><path d="M68.29 371.07l-25.93-36.71a169.36 169.36 0 00-6.22 32.11L49 384.69z" fill="#bc8b2c"/><path d="M36.14 366.47q-.75 7.95-.76 16.08c0 3.86.14 7.69.39 11.49L49 384.69z" fill="#ffcf70"/><path d="M135.06 323.91l.72 1.01z" fill="#bc8b2c"/><path d="M81.86 367.88l-3.01-4.27-10.55 7.46 3.01 4.26-19.29 13.62z" fill="#ffcf70"/><path d="M38.21 398.71l-1.93 1.37 15.74-11.13zm0 0l13.81-9.76zm13.81-9.76l-13.81 9.76zm-13.81 9.76l-1.93 1.37zm0 0l-1.93 1.37zm0 0l-1.93 1.37z" fill="#bc8b2c"/><path d="M138.08 328.17l-2.3-3.25-.72-1L89.6 356l-10.75 7.59 3 4.27L67 378.35l4.28-3-3-4.26L49 384.69 35.77 394l.09 1.35c.12 1.57.26 3.13.42 4.69.51 5 1.26 9.95 2.2 14.81H46l102.28-72.24z" fill="#ffcf70"/><path d="M193.81 160l7.55-16 8.83-18.67a10.73 10.73 0 001-4.27l1.28-38.71a11.15 11.15 0 00-3.8-8.76l-49.24-43.23a22.85 22.85 0 00-7.82-4.51L74.8 0H0v31.9l6.52 5.4a33.86 33.86 0 019.17 11.91l47.37 102.67a35.93 35.93 0 004.75 7.61L89.39 186a9.85 9.85 0 003.15 2.55 7 7 0 005.37 1.8 7 7 0 004.4-2.17l.16-.09a9.69 9.69 0 004.43-8.92l-.26-3.23 22.7 53.32a41.53 41.53 0 0030.79 24.59 42.17 42.17 0 0024.65-2.62 42.41 42.41 0 0022.41-55.63l-14.6-34.3a3 3 0 001.22-1.3z" fill="#bc8b2c"/><path d="M383.5 414.89a168.94 168.94 0 10-322.73 0z" fill="#fff"/><path d="M349.43 414.89a136.78 136.78 0 10-254.58 0z" fill="#fffaf0"/><path d="M284.17 414.89a76.45 76.45 0 00-138.57 0z" fill="#ffcf70"/><path d="M277.61 409.91a73 73 0 00-125.46 0z" fill="#ffe3ac"/><path d="M181.07 414.89h73.57l-6.83-6.82a11.78 11.78 0 010-16.67 4.06 4.06 0 00-2.87-6.92h-14.8a12.76 12.76 0 01-9-3.73l-1.69-1.69a9.67 9.67 0 00-13.7 0l-9.63 9.63a18.26 18.26 0 01-8.27 4.74l-9 2.34a8 8 0 00-3.61 13.32z" fill="#05a357"/><path d="M221.17 414.89l14.44-2.46 10.46-4.43-1.84-10.78a6.13 6.13 0 00-7.06-5L226.39 394a8 8 0 01-6-1.35l-3.82-2.71a5.22 5.22 0 00-7.29 1.24l-15.08 21.29a6.44 6.44 0 01-3.34 2.42z" fill="#e11900"/><path d="M224.45 412a11.88 11.88 0 00-1.25-7.33 11.72 11.72 0 01-1.2-7.37 12 12 0 000-3.83 8.56 8.56 0 01-1.48-.82l-2.23-1.59a11.9 11.9 0 001.33 6.65 11.9 11.9 0 011.25 7.34 11.88 11.88 0 001.25 7.33 11.91 11.91 0 01.91 2.22l1.4-.24a11.94 11.94 0 01.12-2.39zm17.21-3a11.79 11.79 0 00-1.25-7.33 11.86 11.86 0 01-1.25-7.33 11.5 11.5 0 00.12-2.19 6.22 6.22 0 00-2.11 0l-1.38.24a11.59 11.59 0 001 2.38 11.86 11.86 0 011.25 7.33 11.88 11.88 0 001.25 7.33 10.81 10.81 0 01.55 1.2l1.78-.76c0-.28.05-.57.09-.85zm-38.1-1a11.76 11.76 0 001.05 6.91h2.62a11.84 11.84 0 00-1.25-7.32 11.88 11.88 0 01-1.25-7.33 11.37 11.37 0 00.09-2.73l-2.39 3.38a11.9 11.9 0 011.13 7.09z" fill="#5a0a00"/><path d="M243.35 414.89l1.68-2.37a6.12 6.12 0 00-6-9.57l-10.78 1.84a8 8 0 01-6-1.36l-3.82-2.71a5.23 5.23 0 00-7.29 1.25L202 414.89z" fill="#fa9269"/><path d="M208.98 409.91h2.61v3.75h-2.61z" fill="#05a357"/><path d="M227.838 400.491l2.496-2.496 2.496 2.496-2.496 2.496z" fill="#156a41"/><path d="M202.399 390.01l1.676 1.675-1.676 1.676-1.676-1.676z" fill="#06c167"/><path d="M226.82 410.64h4.46v4.46h-4.46z" fill="#ffe3ac"/><path d="M229.05 410.64h4.46v4.46h-4.46z" fill="#fff"/><path d="M220.086 382.214l3.154 3.154-3.154 3.153-3.153-3.153z" fill="#ffe3ac"/><path d="M222.636 384.76l3.154 3.154-3.154 3.154-3.153-3.154z" fill="#fff"/><path d="M220.56 406.5l-3.28 3.28-11.54-7.64 5.23-5.23z" fill="#ffe3ac"/><path d="M223.84 403.23l-3.28 3.27-9.59-9.59 5.23-5.23z" fill="#ffcf70"/><path d="M195 397.14l-.18-.53-.5.51a5.72 5.72 0 00-.71.85 8.19 8.19 0 00-1.19-2.77l-.39-.58-.45.79a8.09 8.09 0 00-1 5.07l.06.4a24.15 24.15 0 01-1.23-2.81 6.83 6.83 0 00-2.55-3.3l-.49-.34-.11.76a6.8 6.8 0 000 2.16 10.6 10.6 0 00-2-.89l-2.22-.74a.25.25 0 00-.32.32l.68 2.24a10.93 10.93 0 00.85 2 6.86 6.86 0 00-2.17-.09l-.76.08.32.5a6.76 6.76 0 003.24 2.64 22 22 0 012.78 1.3l-.4-.07a8 8 0 00-5.09.87l-.8.43.57.4a8 8 0 002.74 1.26 5.73 5.73 0 00-.87.69l-.52.49.52.19a6.39 6.39 0 003.89.16 19.65 19.65 0 012.3-.52l-.33.12-.44.17c-.16.07-.33.15-.49.24a4.55 4.55 0 00-1.67 1.62v.09l-.2.34h.38A4.52 4.52 0 00188 411a4.3 4.3 0 001-.44l.43-.25.17-.1.27-.14.13-.07.22-.1.26-.13.17-.07.31-.14c.42-.17.85-.33 1.28-.46.37-.12.75-.22 1.13-.31s.59-.12.88-.16c.06-.3.12-.59.19-.88s.21-.76.33-1.13c.15-.43.31-.86.49-1.27.05-.1.1-.21.14-.31l.08-.16.13-.26.12-.22c0-.07.07-.14.11-.22l.16-.27.09-.16.27-.43A4.24 4.24 0 00197 402a4.54 4.54 0 00.15-1.38v-.38l-.37.2h-.07a4.48 4.48 0 00-1.66 1.63 4.59 4.59 0 00-.26.49l-.17.42c-.05.11-.09.22-.13.33A22.34 22.34 0 01195 401a6.38 6.38 0 000-3.86z" fill="#156a41"/><path d="M208.43 383.18a1.58 1.58 0 000 3.15 1.58 1.58 0 000-3.15z" fill="#ffcf70"/><path d="M320.127 380.437l1.584-1.086 1.64 2.392-1.584 1.086zm-4.204 25.255l.578-3.097 7.855 1.466-.578 3.096z" fill="#156a41"/><path d="M332.594 408.007l3.678-2.522 2.522 3.679-3.679 2.521z" fill="#ffe3ac"/><path d="M334.429 406.747l3.678-2.522 2.522 3.68-3.679 2.52z" fill="#fff"/><path d="M325.557 363.03l4.93.021-.021 4.93-4.93-.02z" fill="#ffe3ac"/><path d="M329.546 363.047l4.93.021-.02 4.93-4.93-.02z" fill="#fff"/><path d="M336.8 395.19l.44.32.12-.69a6.67 6.67 0 00.08-1.09 8.07 8.07 0 002.53 1.54l.64.24-.09-.89a7.93 7.93 0 00-2.09-4.62l-.28-.29a21.11 21.11 0 012.59 1.55 6.72 6.72 0 003.93 1.19h.58l-.35-.67a6.64 6.64 0 00-1.26-1.71 10.63 10.63 0 002.08-.41l2.2-.67a.25.25 0 00.08-.44l-1.82-1.4a10.35 10.35 0 00-1.82-1.12 6.33 6.33 0 001.79-1.16l.56-.5-.54-.21a6.62 6.62 0 00-4.1-.27 21.11 21.11 0 01-3 .54l.36-.17a8 8 0 003.58-3.6l.4-.79h-.69a8 8 0 00-2.91.55 6.3 6.3 0 00.3-1.05l.14-.68-.53.14a6.27 6.27 0 00-3.2 2.09 20.92 20.92 0 01-1.55 1.72c.07-.1.14-.19.2-.29l.25-.37a4.45 4.45 0 00.26-.48 4.33 4.33 0 00.41-2.25v-.49l-.33.2a4.39 4.39 0 00-1.25 1.14 3.74 3.74 0 00-.51.89l-.21.45a1.3 1.3 0 01-.08.17c0 .09-.09.18-.13.28a2.12 2.12 0 00-.11.21l-.12.21-.14.25-.09.15c-.06.1-.11.2-.17.29-.23.37-.49.74-.76 1.09-.24.3-.48.6-.74.89s-.4.42-.61.63a14.14 14.14 0 01.73 1.9c.13.42.24.86.33 1.29l.06.33v.18a2.7 2.7 0 010 .28 2 2 0 010 .24v1.23a4.31 4.31 0 00.94 2.51l.24.3.17-.37v-.07a4.49 4.49 0 00.4-2.25 5 5 0 00-.08-.54c0-.14-.06-.29-.1-.44s0-.22-.08-.33a21.9 21.9 0 01.84 2.16 6.23 6.23 0 002.51 3.16zm-216.44 4.54l-.28-.46-.38.58a5.93 5.93 0 00-.5 1 8.19 8.19 0 00-1.71-2.42l-.5-.48-.27.85a8 8 0 00.08 5.08c0 .12.09.24.14.37a23.33 23.33 0 01-1.76-2.45 6.61 6.61 0 00-3.13-2.66l-.54-.22.06.75a6.38 6.38 0 00.48 2.07 11.36 11.36 0 00-2.08-.46l-2.28-.26a.26.26 0 00-.25.38l1.11 2a11.09 11.09 0 001.22 1.74 6.85 6.85 0 00-2.1.35l-.72.24.42.41A6.64 6.64 0 00111 408a22.63 22.63 0 012.93.68h-.4a8 8 0 00-4.72 1.87l-.68.57.64.28a7.75 7.75 0 002.88.65 6.16 6.16 0 00-.69.84l-.4.58.54.07a6.17 6.17 0 003.77-.64 22.15 22.15 0 012.1-1c-.1 0-.19.12-.29.18l-.38.24c-.15.1-.29.22-.43.33a4.46 4.46 0 00-1.27 1.9v.1l-.12.37h.38a4.46 4.46 0 001.6-.54 4.18 4.18 0 00.83-.62l.36-.33.15-.12.23-.2.19-.15.19-.15.22-.17.15-.11.27-.19c.36-.25.74-.48 1.13-.7.33-.19.68-.36 1-.52s.54-.24.81-.34V410c0-.29 0-.77.09-1.15 0-.44.13-.88.22-1.32 0-.11 0-.22.07-.33s0-.11 0-.17 0-.18.07-.27 0-.16.07-.24 0-.15.07-.23l.09-.29.06-.18c0-.16.11-.31.17-.47a4.39 4.39 0 00.14-2.68l-.1-.37-.31.27-.06.05a4.47 4.47 0 00-1.27 1.91c0 .17-.1.34-.14.52s-.06.29-.08.44l-.06.34a19.91 19.91 0 01.08-2.32 6.19 6.19 0 00-.74-3.78z" fill="#156a41"/><circle cx="271.6" cy="298.25" fill="#ffcf70" r="76.44"/><path d="M302.26 232a73 73 0 00-103.49 71zm-90.85 107.51a72.72 72.72 0 0023.39 21.77l108.85-74.62A73.1 73.1 0 00307 234.41l-107.7 73.81a72.88 72.88 0 0012.11 31.29zm28 24.23a73 73 0 00104.88-71.9z" fill="#ffe3ac"/><path d="M321.77 333.67l-2.5 13.4a9.68 9.68 0 01-11.3 7.74l-2.35-.44a12.77 12.77 0 00-9.55 2l-12.21 8.37a4 4 0 01-6.27-4.08 11.79 11.79 0 00-9.43-13.75l-13.86-2.59a21.1 21.1 0 01-16.88-24.62l1.24-6.66a5 5 0 00-7.71-5l-.2.14a5.41 5.41 0 01-8.37-5.45l3.23-17.35a9.92 9.92 0 00-7.94-11.58l-2.07-.39a5.5 5.5 0 01-2.1-10l8.93-6.13a4.89 4.89 0 001.27-6.81l-.1-.15a3.68 3.68 0 013.71-5.7l16.94 3.16a14.17 14.17 0 0010.62-2.25l18.22-12.49a3.69 3.69 0 015.71 3.72l-1.6 8.56a14.92 14.92 0 0011.94 17.41l15.74 2.94a4.94 4.94 0 011.88 8.94l-2.18 1.5A3.76 3.76 0 00306 283l11.33 2.11a6.24 6.24 0 012.38 11.28l-2.43 1.61a3 3 0 001.14 5.38l9 1.68a8 8 0 014.55 13l-6 7a18.2 18.2 0 00-4.2 8.61z" fill="#05a357"/><path d="M248.09 329.47l-.54.14.48.54a5.75 5.75 0 00.8.76 8.2 8.2 0 00-2.83 1l-.61.35.75.5a8.13 8.13 0 005 1.32h.41a21.73 21.73 0 01-2.89 1.05 6.78 6.78 0 00-3.46 2.34l-.36.47.75.15a6.81 6.81 0 002.16.1 10.61 10.61 0 00-1 1.91l-.88 2.17a.25.25 0 00.3.34l2.27-.54a11.3 11.3 0 002.05-.71 7 7 0 00-.24 2.15v.77l.52-.29a6.81 6.81 0 002.84-3.07 24.25 24.25 0 011.47-2.69l-.09.4a8.06 8.06 0 00.54 5.14l.37.82.45-.54a8.21 8.21 0 001.43-2.65 6.16 6.16 0 00.63.91l.45.55.23-.51a6.35 6.35 0 00.4-3.87 22.58 22.58 0 01-.36-2.33c0 .12.07.23.1.34s.09.3.14.44a4.55 4.55 0 00.21.51 4.38 4.38 0 001.51 1.77l.08.06.33.22.05-.38a4.46 4.46 0 00-.46-2.7c-.08-.15-.16-.3-.23-.45s-.05-.12-.08-.17-.09-.19-.13-.29l-.1-.22-.09-.23-.11-.27-.06-.17-.12-.32c-.15-.43-.27-.86-.38-1.31-.09-.38-.16-.77-.23-1.16s-.08-.59-.11-.88l-.86-.25c-.37-.12-.74-.25-1.1-.4a17.2 17.2 0 01-1.23-.57l-.3-.17a1.29 1.29 0 01-.16-.09l-.25-.14-.21-.13-.21-.13-.26-.17-.15-.11-.42-.29a4.39 4.39 0 00-2.59-.87h-.39l.18.38v.07a4.49 4.49 0 001.52 1.77 3.64 3.64 0 00.47.28l.41.2.32.15a20.22 20.22 0 01-2.25-.71 6.28 6.28 0 00-3.88-.29z" fill="#156a41"/><path d="M238.43 305.3l19.31-18.72-2.5-15.35L269 257.85l6.09-9.61-7.61-7.85a6.13 6.13 0 00-8.66-.14l-7.82 7.61a8 8 0 01-5.69 2.26l-4.68-.07a5.22 5.22 0 00-5.31 5.14l-.41 26.09a6.45 6.45 0 01-2 4.56l-2.07 2a6.72 6.72 0 00-.15 9.5z" fill="#e11900"/><path d="M259.57 263.78a11.89 11.89 0 00-5.18-5.34 11.84 11.84 0 01-5.18-5.34A11.73 11.73 0 00247 250a7.78 7.78 0 01-1.68.16h-2.73a11.82 11.82 0 004.85 4.73 11.87 11.87 0 015.17 5.34 11.89 11.89 0 005.18 5.34 12.14 12.14 0 012 1.32l1-1a12.53 12.53 0 01-1.25-2zm12.53-12.16a11.82 11.82 0 00-5.17-5.34 11.84 11.84 0 01-5.18-5.34 11.63 11.63 0 00-1.14-1.88 6.31 6.31 0 00-1.75 1.19l-1 1a12.26 12.26 0 002.12 1.42 11.84 11.84 0 015.18 5.34 11.79 11.79 0 005.18 5.34c.39.21.77.44 1.13.68l1-1.63a7.88 7.88 0 01-.4-.76zm-27.25 47.15a11.89 11.89 0 00-5.18-5.34 11.84 11.84 0 01-5.18-5.34 11.36 11.36 0 00-1.48-2.31l-.06.06-2.07 2a5.36 5.36 0 00-.4.43 11.47 11.47 0 002.24 1.52 11.87 11.87 0 015.17 5.34 11.87 11.87 0 005.18 5.33l.21.11L245 299zm7.36-17.49a11.84 11.84 0 01-5.18-5.34 11.89 11.89 0 00-5.18-5.34 11.79 11.79 0 01-5.18-5.34 12.26 12.26 0 00-1.46-2.3l-.07 4.14a11.84 11.84 0 014.94 5.21 11.89 11.89 0 005.18 5.34 11.84 11.84 0 015.18 5.34 11.84 11.84 0 005.18 5.34l.21.11 1.66-1.61-.11-.21a11.77 11.77 0 00-5.17-5.34z" fill="#5a0a00"/><path d="M248.51 305.37l10.79-10.46a11.28 11.28 0 003.43-7.94v-3.2a11.36 11.36 0 013.44-7.95l7.84-7.61a8.69 8.69 0 002.65-6.11l.15-9.5a6.15 6.15 0 00-1.73-4.36 6.12 6.12 0 00-8.65-.13l-7.85 7.61a8 8 0 01-5.69 2.25l-4.69-.07a5.24 5.24 0 00-5.31 5.15l-.4 26.09a6.51 6.51 0 01-2 4.55l-2.08 2a6.72 6.72 0 00-.14 9.5 7.19 7.19 0 0010.24.18z" fill="#fa9269"/><path d="M250 325.47l23.37-16 .12-16.38 16.69-11.45 8-8.89-6.51-9.51a6.45 6.45 0 00-9-1.67l-9.5 6.51a8.44 8.44 0 01-6.31 1.33l-4.85-.9a5.51 5.51 0 00-6.43 4.41l-5 27a6.82 6.82 0 01-2.85 4.38l-2.47 1.7a7.08 7.08 0 00-1.83 9.84z" fill="#e11900"/><path d="M279.32 286.1a12.52 12.52 0 00-4.43-6.46 12.46 12.46 0 01-4.43-6.46 12.52 12.52 0 00-1.74-3.65 8.13 8.13 0 01-1.77-.14l-2.84-.52a12.54 12.54 0 004.21 5.77 12.46 12.46 0 014.43 6.46 12.56 12.56 0 004.43 6.46 12 12 0 011.84 1.72l1.24-.85a11.92 11.92 0 01-.94-2.34zm15.17-10.4a12.46 12.46 0 00-4.43-6.46 12.56 12.56 0 01-4.43-6.46 12.39 12.39 0 00-.85-2.14 6.23 6.23 0 00-2 .92l-1.22.83a12.27 12.27 0 001.95 1.86 12.41 12.41 0 014.43 6.46 12.55 12.55 0 004.43 6.47 11.31 11.31 0 011.05.9l1.37-1.51c-.11-.28-.2-.57-.29-.86zm-36.66 44.13a12.41 12.41 0 00-4.43-6.46 12.52 12.52 0 01-4.43-6.46 12.71 12.71 0 00-1.12-2.66l-.07.05-2.52 1.7a5.72 5.72 0 00-.49.37 12.87 12.87 0 002.06 2 12.52 12.52 0 014.43 6.46 12.45 12.45 0 004.43 6.46l.19.15 2-1.38zM268.58 303a12.49 12.49 0 01-4.42-6.46 12.45 12.45 0 00-4.42-6.46 12.52 12.52 0 01-4.43-6.46 12.37 12.37 0 00-1.11-2.65l-.8 4.29a12.47 12.47 0 014.21 6.28A12.46 12.46 0 00262 298a12.52 12.52 0 014.43 6.46 12.49 12.49 0 004.43 6.47l.2.14 2-1.37-.07-.24a12.52 12.52 0 00-4.41-6.46z" fill="#5a0a00"/><path d="M260.47 327.33l13-8.95a11.88 11.88 0 005-7.64l.62-3.31a12 12 0 015-7.65l9.5-6.5a9.22 9.22 0 003.83-5.88l1.83-9.85a6.39 6.39 0 00-1-4.82 6.43 6.43 0 00-9-1.67l-9.5 6.51a8.42 8.42 0 01-6.3 1.33l-4.86-.9a5.5 5.5 0 00-6.42 4.4l-5 27a6.86 6.86 0 01-2.86 4.38l-2.51 1.72a7.08 7.08 0 00-1.84 9.84 7.58 7.58 0 0010.51 1.99z" fill="#fa9269"/><path d="M265.16 347.55l23.36-16 .12-16.39 16.7-11.44 8-8.9-6.52-9.51a6.45 6.45 0 00-9-1.67l-9.5 6.51a8.38 8.38 0 01-6.3 1.34l-4.86-.91a5.5 5.5 0 00-6.42 4.41l-5 27a6.84 6.84 0 01-2.86 4.38l-2.51 1.73a7.08 7.08 0 00-1.84 9.84z" fill="#e11900"/><path d="M294.45 308.18a12.45 12.45 0 00-4.42-6.46 12.52 12.52 0 01-4.43-6.46 12.5 12.5 0 00-1.73-3.65 8.12 8.12 0 01-1.77-.13l-2.84-.53a12.49 12.49 0 004.21 5.77 12.52 12.52 0 014.43 6.46 12.46 12.46 0 004.43 6.46 12.5 12.5 0 011.84 1.72l1.24-.85a12.09 12.09 0 01-.94-2.33zm15.18-10.4a12.52 12.52 0 00-4.43-6.46 12.46 12.46 0 01-4.43-6.46 12.39 12.39 0 00-.85-2.14 6.6 6.6 0 00-2 .92l-1.21.83a12.27 12.27 0 001.95 1.86 12.46 12.46 0 014.43 6.46 12.55 12.55 0 004.43 6.47 12.92 12.92 0 011.06.9l1.36-1.51c-.1-.28-.2-.57-.28-.86zM273 341.91a12.46 12.46 0 00-4.43-6.46 12.46 12.46 0 01-4.43-6.46 12.57 12.57 0 00-1.12-2.67l-.08.05-2.51 1.73a5.72 5.72 0 00-.49.37 12.87 12.87 0 002.06 2 12.46 12.46 0 014.43 6.46 12.56 12.56 0 004.43 6.46l.2.15 2-1.38zm10.71-16.86a12.52 12.52 0 01-4.43-6.46 12.5 12.5 0 00-4.43-6.46 12.52 12.52 0 01-4.43-6.46 12.37 12.37 0 00-1.11-2.65l-.8 4.29a12.44 12.44 0 014.2 6.29 12.52 12.52 0 004.43 6.46 12.52 12.52 0 014.43 6.46A12.43 12.43 0 00286 333l.19.15 2-1.38-.07-.24a12.41 12.41 0 00-4.41-6.48z" fill="#5a0a00"/><path d="M275.61 349.41l13.05-9a11.88 11.88 0 005-7.64l.62-3.31a11.83 11.83 0 015-7.64l9.49-6.51a9.14 9.14 0 003.83-5.88l1.84-9.85a6.43 6.43 0 00-1-4.82 6.43 6.43 0 00-9-1.67l-9.5 6.51a8.43 8.43 0 01-6.34 1.4l-4.85-.9a5.51 5.51 0 00-6.43 4.4l-5 27a6.82 6.82 0 01-2.85 4.38l-2.51 1.72a7.08 7.08 0 00-1.84 9.85 7.57 7.57 0 0010.49 1.96z" fill="#fa9269"/><path d="M283.7 363.26l21-14.4.11-14.73 15-10.29 7.22-8-5.86-8.54a5.8 5.8 0 00-8.05-1.51l-8.54 5.86a7.6 7.6 0 01-5.67 1.2l-4.36-.82a5 5 0 00-5.78 4l-4.53 24.29a6.13 6.13 0 01-2.57 3.94l-2.26 1.55a6.37 6.37 0 00-1.65 8.85z" fill="#e11900"/><path d="M310 327.87a11.24 11.24 0 00-4-5.81 11.28 11.28 0 01-4-5.81 11.13 11.13 0 00-1.56-3.28 7.1 7.1 0 01-1.59-.12l-2.55-.48a11.21 11.21 0 003.78 5.19 11.22 11.22 0 014 5.81 11.2 11.2 0 004 5.81 11.55 11.55 0 011.65 1.55l1.11-.76a11.23 11.23 0 01-.84-2.1zm13.68-9.35a11.24 11.24 0 00-4-5.81 11.28 11.28 0 01-4-5.81 11.16 11.16 0 00-.68-1.9 6 6 0 00-1.82.83l-1.1.75a11.13 11.13 0 001.76 1.67 11.22 11.22 0 014 5.81 11.2 11.2 0 004 5.81 12.41 12.41 0 01.95.82l1.22-1.36c-.09-.26-.18-.51-.25-.77zm-32.96 39.67a11.18 11.18 0 00-4-5.81 11.22 11.22 0 01-4-5.81 11.83 11.83 0 00-1-2.4l-.07.05-2.26 1.55c-.15.1-.3.22-.44.33a11.2 11.2 0 001.86 1.78 11.21 11.21 0 014 5.8 11.28 11.28 0 004 5.81l.18.13 1.8-1.24zm9.66-15.19a11.22 11.22 0 01-4-5.81 11.2 11.2 0 00-4-5.81 11.28 11.28 0 01-4-5.81 10.89 10.89 0 00-1-2.38l-.72 3.85a11.22 11.22 0 013.78 5.65 11.16 11.16 0 004 5.81 11.21 11.21 0 014 5.8 11.21 11.21 0 004 5.8l.18.14 1.81-1.24-.07-.21a11.18 11.18 0 00-3.98-5.79z" fill="#5a0a00"/><path d="M293.1 364.93l9-6.15a11.58 11.58 0 004.77-12 9.2 9.2 0 016.4-10.76l4.28-1.25a13.82 13.82 0 009.69-10.77l.72-3.85a5.8 5.8 0 00-.92-4.34 5.79 5.79 0 00-8.05-1.5l-8.54 5.85a7.55 7.55 0 01-5.67 1.2l-4.37-.81a5 5 0 00-5.77 4l-4.54 24.29a6.1 6.1 0 01-2.56 3.93l-2.26 1.55a6.36 6.36 0 00-1.65 8.85 6.81 6.81 0 009.47 1.76z" fill="#fa9269"/><path d="M278.88 314.725l2.721-1.865 3.755 5.476-2.722 1.866z" fill="#156a41"/><path d="M281.1 313.2l1.584-1.085 3.755 5.477-1.584 1.085zm3.688-30.997l5.188-3.556 1.26 1.84-5.188 3.556zm-37.663-9.215l2.153-1.476 2.12 3.093-2.153 1.476z" fill="#05a357"/><path d="M255.882 252.415l.647-3.47 3.47.647-.647 3.47zm23.732 88.385l.578-3.096 7.854 1.466-.578 3.096zm-23.447-23.772l3.976-2.725.797 1.163-3.975 2.725zm4.367.386l3.976-2.725.797 1.163-3.976 2.725z" fill="#156a41"/><path d="M261.146 318.312l3.976-2.725.797 1.162-3.976 2.726z" fill="#05a357"/><path d="M290.019 273.879l.882-.605 2.788 4.066-.883.605zm-7.87-18.134l4.355-2.985 1.407 2.054-4.355 2.985zm-50.967 50.806l1.714-1.191 4.064 5.846-1.714 1.192zm78.926 38.322l.404-2.163 7.304 1.363-.404 2.163z" fill="#156a41"/><path d="M310.439 343.106l.403-2.163 7.304 1.363-.404 2.163z" fill="#05a357"/><path d="M228.962 258.134l2.33.435-.435 2.33-2.33-.435z" fill="#06c167"/><path d="M260.764 261.346l3.678-2.522 2.522 3.679-3.679 2.522z" fill="#ffe3ac"/><path d="M262.609 260.086l3.679-2.521 2.521 3.678-3.678 2.522z" fill="#fff"/><path d="M289.59 358.595l3.679-2.522 2.521 3.679-3.678 2.521z" fill="#ffe3ac"/><path d="M291.417 357.34l3.679-2.521 2.521 3.679-3.678 2.521z" fill="#fff"/><path d="M263.429 285.777l4.384.818-.818 4.384-4.384-.818z" fill="#ffe3ac"/><path d="M266.978 286.437l4.384.818-.818 4.384-4.385-.818z" fill="#fff"/><path d="M274.47 271l3.679-2.522 2.521 3.678-3.678 2.522z" fill="#ffe3ac"/><path d="M277.338 266.375l3.657-2.542 2.542 3.657-3.657 2.543z" fill="#fff"/><path d="M239.145 241.699l4.384.818-.818 4.384-4.384-.818z" fill="#ffe3ac"/><path d="M242.682 242.377l4.384.818-.818 4.384-4.384-.818z" fill="#fff"/><path d="M239.442 321.991l4.384.819-.818 4.384-4.384-.818z" fill="#ffe3ac"/><path d="M242.99 322.651l4.385.819-.818 4.384-4.385-.818zm-2.169-33.897l.819-4.384 4.384.818-.818 4.385z" fill="#fff"/><path d="M240.49 290.525l.819-4.384 4.384.818-.818 4.384zm34.725 42.411l.904-4.847 4.846.905-.904 4.846z" fill="#ffe3ac"/><path d="M275.945 329.02l.904-4.847 4.847.904-.905 4.846z" fill="#fff"/><path d="M299.23 335.957l.904-4.846 4.846.904-.904 4.847z" fill="#ffe3ac"/><path d="M299.96 332.04l.904-4.846 4.847.905-.905 4.846z" fill="#fff"/><path d="M298.417 271.841l.905-4.846 4.846.904-.904 4.847z" fill="#ffe3ac"/><path d="M299.148 267.913l.904-4.846 4.846.904-.904 4.846z" fill="#fff"/><path d="M285.012 302.422l2.522 3.678-3.679 2.522-2.521-3.679z" fill="#ffe3ac"/><path d="M285.92 303.754l2.522 3.679-3.68 2.522-2.52-3.68z" fill="#fff"/><path d="M253.27 261.47l-.85 4.56-13.84.22 1.36-7.27z" fill="#ffe3ac"/><path d="M254.13 256.91l-.86 4.56-13.33-2.49 1.35-7.27z" fill="#ffcf70"/><path d="M325.57 329.12l-.85 4.56-13.85.23 1.36-7.28z" fill="#ffe3ac"/><path d="M326.42 324.56l-.85 4.56-13.34-2.49 1.36-7.27z" fill="#ffcf70"/><path d="M252.72 305.96l-2.62-3.82 9.63-9.95 4.18 6.1z" fill="#ffe3ac"/><path d="M255.34 309.79l-2.62-3.83 11.19-7.67 4.19 6.1z" fill="#ffcf70"/><path d="M310 305.21l.31-.45-.69-.1a6.64 6.64 0 00-1.09-.06A7.93 7.93 0 00310 302l.23-.65-.88.11a7.91 7.91 0 00-4.59 2.18l-.28.28a21.9 21.9 0 011.5-2.62 6.66 6.66 0 001.11-3.95v-.58l-.66.36a6.65 6.65 0 00-1.68 1.29 10.63 10.63 0 00-.45-2.07l-.71-2.19a.25.25 0 00-.44-.07l-1.39 1.91a10.86 10.86 0 00-1.08 1.83 7 7 0 00-1.19-1.77l-.52-.54-.2.54a6.69 6.69 0 00-.19 4.1 22.82 22.82 0 01.6 3l-.18-.36a8 8 0 00-3.67-3.52l-.8-.38v.69a8 8 0 00.61 2.9 6.27 6.27 0 00-1-.29l-.69-.12.15.52a6.17 6.17 0 002.15 3.17 20.93 20.93 0 011.75 1.52l-.28-.19-.39-.24a4.23 4.23 0 00-.47-.25 4.4 4.4 0 00-2.26-.37h-.49l.2.32a4.33 4.33 0 001.17 1.24 4 4 0 00.89.49l.46.2.17.07.28.13.21.11.22.11.25.14.16.09.28.16c.38.23.75.47 1.11.74.3.23.61.47.9.72s.43.39.64.6l.81-.36c.35-.15.72-.28 1.08-.4.42-.14.85-.26 1.28-.36l.32-.06h.18l.28-.05h1.46a4.29 4.29 0 001.33-.3 4.45 4.45 0 001.17-.69l.3-.25-.38-.17h-.07a4.39 4.39 0 00-2.26-.36 4.89 4.89 0 00-.53.09l-.44.11-.33.09a19.74 19.74 0 012.14-.89 6.15 6.15 0 003.11-2.55zm-79-34.89l-.29-.46-.37.6a7.35 7.35 0 00-.49 1 8 8 0 00-1.75-2.38l-.51-.47-.25.85a8 8 0 00.18 5.08l.15.37a22.29 22.29 0 01-1.81-2.41 6.68 6.68 0 00-3.18-2.59l-.55-.21.07.74a6.63 6.63 0 00.52 2.07 10.37 10.37 0 00-2.08-.42l-2.29-.21a.25.25 0 00-.24.38l1.16 2a11.1 11.1 0 001.25 1.72 6.5 6.5 0 00-2.09.39l-.71.25.42.41a6.7 6.7 0 003.69 1.8 20.1 20.1 0 012.95.62h-.4a8 8 0 00-4.68 2l-.7.55.64.26a7.86 7.86 0 002.9.59 6.27 6.27 0 00-.68.86l-.38.58.53.07a6.29 6.29 0 003.76-.72 19.17 19.17 0 012.09-1l-.28.19-.38.26a4.46 4.46 0 00-.42.34 4.36 4.36 0 00-1.23 1.92v.1l-.12.37.38-.06a4.46 4.46 0 001.59-.57 4.51 4.51 0 00.81-.63l.36-.35.14-.12.23-.2.18-.16.19-.15.22-.18.15-.11.26-.2c.36-.26.74-.5 1.12-.73q.5-.29 1-.54c.26-.13.53-.25.8-.36v-.88a10.93 10.93 0 01.06-1.15 12 12 0 01.19-1.32c0-.11.05-.22.07-.33s0-.12 0-.18l.06-.27.06-.24a1.55 1.55 0 00.07-.23l.09-.29a1.21 1.21 0 010-.18c.05-.16.1-.32.16-.47a4.41 4.41 0 00.08-2.69l-.1-.37-.31.28-.06.05a4.46 4.46 0 00-1.22 1.94 3 3 0 00-.13.52c0 .15-.06.29-.08.44s0 .23-.05.35a19.92 19.92 0 010-2.32 6.22 6.22 0 00-.75-3.8z" fill="#156a41"/><path d="M317.44 292.89a1.58 1.58 0 000 3.16 1.58 1.58 0 000-3.16zm-90.05 8.92a1.58 1.58 0 000 3.15 1.58 1.58 0 000-3.15zm-8.15-39.27a1.58 1.58 0 000 3.16 1.58 1.58 0 000-3.16zm109.57 46.93a1.58 1.58 0 000 3.15 1.58 1.58 0 000-3.15z" fill="#ffcf70"/><path d="M301.28 383.18h4.17v4.17h-4.17zm-173.426 7.743l1.085 1.584-5.477 3.754-1.085-1.584z" fill="#05a357"/><path d="M124.723 393.055l1.086 1.584-2.392 1.64-1.086-1.584z" fill="#156a41"/><path d="M126.301 410.696l3.679-2.522 2.521 3.679-3.678 2.522z" fill="#ffe3ac"/><path d="M128.146 409.436l3.679-2.521 2.522 3.678-3.679 2.522z" fill="#fff"/><path d="M95.2 398.43h4.17v4.17H95.2zm13.168-9.759l1.322 1.323-1.322 1.322-1.323-1.322zm239.298-28.505l3.104 3.104-3.104 3.105-3.104-3.105zM148.4 384.76h5.61v5.61h-5.61zm-8.4-11.7l6.06-6.06a21.58 21.58 0 0115.26-6.32h15.15a9.12 9.12 0 006.45-15.57l-5.18-5.18a8.73 8.73 0 010-12.33l7.05-7a6.14 6.14 0 00-4.34-10.47h-5.67a7.93 7.93 0 01-7.94-7.94V301a13 13 0 00-22.25-9.22l-21.51 21.52a17 17 0 01-12 5H109a5.39 5.39 0 00-3.81 9.2l10.6 10.61a25.78 25.78 0 017.54 17.27l.42 11.35a9.54 9.54 0 0016.25 6.33z" fill="#05a357"/><path d="M136.89 318.99h2.93v2.93h-2.93zm25.56 24.59h3.42v8.31h-3.42z" fill="#156a41"/><path d="M165.25 343.58h3.42v8.31h-3.42z" fill="#addec9"/><path d="M141.56 325.33h3.25v3.25h-3.25z" fill="#66d19e"/><path d="M142.21 339.18h1.92v5.52h-1.92z" fill="#06c167"/><path d="M137.4 308.23a1.58 1.58 0 000 3.15 1.58 1.58 0 000-3.15zm-15.97 18.85a1.58 1.58 0 000 3.15 1.58 1.58 0 000-3.15zm56.47 25.29a1.58 1.58 0 000 3.16 1.58 1.58 0 000-3.16zm-39.54 1.23a1.58 1.58 0 000 3.15 1.58 1.58 0 000-3.15zm4.64 4.62a1.58 1.58 0 000 3.16 1.58 1.58 0 000-3.16zm24-23.3a1.58 1.58 0 000 3.16 1.58 1.58 0 000-3.16zm-5.58-5.54a1.58 1.58 0 000 3.16 1.58 1.58 0 000-3.16zm17.5-13.38a1.58 1.58 0 000 3.15 1.58 1.58 0 000-3.15zM154 292.19a1.58 1.58 0 000 3.15 1.58 1.58 0 000-3.15z" fill="#ffcf70"/><path d="M161.42 316.48h3.28v3.28h-3.28zm-35.06 21.053l3.91 3.91-1.498 1.5-3.91-3.91z" fill="#06c167"/><path d="M155.05 309.724l4.053-4.051 1.492 1.492-4.052 4.051z" fill="#156a41"/><path d="M108.9 322.32h2.17v2.17h-2.17zm21.43 42.41h1.75v4.08h-1.75zm41.47-40.14h4.57v1.18h-4.57z" fill="#66d19e"/><path d="M167.43 269.34h7.8v3.52h-7.8z" fill="#156a41"/><path d="M152.43 257.25l1.58-1.47-.38-1.11a5.91 5.91 0 00-4.1-3.83l-1.44-.38.45 2.16a5.93 5.93 0 002.52 3.72zm-28.567 34.15l2.885 2.885-4.71 4.709-2.884-2.885z" fill="#05a357"/><path d="M154.01 271.279l2.157 2.157-2.157 2.156-2.156-2.156z" fill="#156a41"/><path d="M189.12 260.66h6.03v1.65h-6.03zm-21.06-24.87h1.8v5.07h-1.8z" fill="#05a357"/><path d="M118.66 54.59l71.39 66.28 1.88-61.66-68.28-16.76z" fill="#993f21"/><path d="M170.9 67.88l5.3 11.41a33.7 33.7 0 009.9 12.43l2 1.51-.84 25.43a11.81 11.81 0 005.74 10.58l6.18 3.64 1.89-57.21z" fill="#c14f29"/><path d="M80.685 25.516L117.554 9.82a22.37 22.37 0 0129.344 11.82L215.7 183.256a42.41 42.41 0 01-22.41 55.633 42.41 42.41 0 01-55.633-22.41L68.856 54.864a22.37 22.37 0 0111.83-29.348z" fill="#ffc043"/><path d="M133.15 177.43l17.12 36.47a9.69 9.69 0 0012.88 4.65l5.16-2.42a5.84 5.84 0 017.76 2.8l2.92 6.22a2.36 2.36 0 004.35-.2l2.17-6a7.65 7.65 0 019.8-4.59l10.57 3.81a4 4 0 005-5.48l-5-10.71a5.37 5.37 0 012.57-7.13 6.65 6.65 0 003.2-8.86l-16.09-34.29z" fill="#05a357"/><path d="M101.22 106.53l27.52-6.64 5.94-15.25 19.66-4.74L165 74.45l-2.7-11.19a6.45 6.45 0 00-7.77-4.75l-11.19 2.7a8.44 8.44 0 01-6.36-1l-4.21-2.58a5.52 5.52 0 00-7.57 1.83l-14.31 23.43a6.8 6.8 0 01-4.22 3.11l-3 .71a7.08 7.08 0 00-5.22 8.54z" fill="#e11900"/><path d="M142.59 80.21a12.42 12.42 0 00-1.84-7.61 12.51 12.51 0 01-1.83-7.6 12.27 12.27 0 00-.33-4 9 9 0 01-1.6-.76l-2.46-1.51a12.5 12.5 0 001.87 6.89 12.51 12.51 0 011.84 7.61 12.48 12.48 0 001.83 7.61 12.23 12.23 0 011.11 2.27l1.45-.36a12.38 12.38 0 010-2.51zm17.86-4.31a12.41 12.41 0 00-1.83-7.61 12.51 12.51 0 01-1.84-7.61 11.87 11.87 0 000-2.31 6.43 6.43 0 00-2.22.14l-1.44.35a12.55 12.55 0 001.17 2.42 12.51 12.51 0 011.83 7.61 12.48 12.48 0 001.84 7.6 13 13 0 01.66 1.22l1.81-.93v-.9zM110.52 104a12.4 12.4 0 00-1.83-7.6 12.48 12.48 0 01-1.84-7.6 12.59 12.59 0 00-.09-2.88h-.09l-3 .71-.59.17a12.24 12.24 0 001.22 2.59 12.5 12.5 0 011.87 7.61 12.49 12.49 0 001.84 7.61l.13.21 2.36-.57zm16.04-11.87a12.45 12.45 0 01-1.84-7.61 12.47 12.47 0 00-1.83-7.6 12.48 12.48 0 01-1.83-7.61 11.88 11.88 0 00-.1-2.86l-2.27 3.72a12.48 12.48 0 011.69 7.36 12.48 12.48 0 001.83 7.61 12.5 12.5 0 011.79 7.59 12.48 12.48 0 001.83 7.61l.13.21 2.37-.57v-.24a12.48 12.48 0 00-1.77-7.61z" fill="#5a0a00"/><path d="M110.32 112l15.37-3.7a11.88 11.88 0 007.36-5.36l1.76-2.88a11.93 11.93 0 017.37-5.36l11.17-2.7a9.15 9.15 0 005.65-4.14l5.22-8.54a6.45 6.45 0 00.77-4.87 6.45 6.45 0 00-7.77-4.75l-11.19 2.7a8.44 8.44 0 01-6.36-1l-4.21-2.57a5.51 5.51 0 00-7.57 1.82l-14.3 23.43a6.8 6.8 0 01-4.22 3.07l-3 .72a7.06 7.06 0 00-5.22 8.53 7.57 7.57 0 009.17 5.6z" fill="#fa9269"/><path d="M150.08 87.05l.32-.45-.7-.12a6.89 6.89 0 00-1.1-.09 8.44 8.44 0 001.58-2.56l.25-.66-.9.08a8.22 8.22 0 00-4.73 2.1l-.29.28a21.83 21.83 0 011.6-2.62 6.75 6.75 0 001.23-4v-.59l-.68.34a7.17 7.17 0 00-1.75 1.28 10.17 10.17 0 00-.4-2.12l-.67-2.25a.25.25 0 00-.44-.08l-1.4 1.85a10.68 10.68 0 00-1.15 1.84 7 7 0 00-1.17-1.83l-.51-.57-.22.55a6.81 6.81 0 00-.3 4.16 21.81 21.81 0 01.53 3c-.06-.13-.11-.25-.17-.37a8.15 8.15 0 00-3.64-3.68l-.81-.41v.71a8 8 0 00.54 3 7.63 7.63 0 00-1.06-.32l-.7-.14.14.53a6.29 6.29 0 002.1 3.28 21.86 21.86 0 011.74 1.59l-.29-.2-.38-.26a3.72 3.72 0 00-.48-.27 4.49 4.49 0 00-2.29-.43h-.5l.2.34a4.58 4.58 0 001.15 1.29 5 5 0 00.9.52l.46.21.18.09.27.13.22.12.22.12.25.14.15.1.29.17q.57.36 1.11.78.47.36.9.75c.22.2.44.41.64.63a14.68 14.68 0 011.94-.73 11.55 11.55 0 011.32-.32l.42.04h1.96a4.37 4.37 0 002.57-.94l.3-.24-.38-.18h-.07a4.41 4.41 0 00-2.29-.43 5 5 0 00-.54.07l-.45.1-.34.09a19.43 19.43 0 012.19-.85 6.36 6.36 0 003.13-2.57z" fill="#156a41"/><path d="M106.89 124.88l28.3.44 9.57-13.32 20.22.31 11.68-2.61.18-11.52a6.43 6.43 0 00-6.34-6.53L159 91.5a8.47 8.47 0 01-5.92-2.56l-3.43-3.54a5.5 5.5 0 00-7.78-.12l-19.72 19.11a6.85 6.85 0 01-4.85 1.93h-3a7.08 7.08 0 00-7.18 7z" fill="#e11900"/><path d="M153.52 109.7a12.45 12.45 0 00.12-7.82 12.48 12.48 0 01.12-7.83 12.33 12.33 0 00.69-4 8.73 8.73 0 01-1.37-1.14l-2-2.07a12.4 12.4 0 00.09 7.14 12.48 12.48 0 01-.12 7.83 12.45 12.45 0 00-.12 7.82 13 13 0 01.51 2.46h1.49a12.32 12.32 0 01.59-2.45zm18.37.3a12.41 12.41 0 00.12-7.83 12.48 12.48 0 01.13-7.83 13.32 13.32 0 00.55-2.24 6.36 6.36 0 00-2.19-.41h-1.47a12 12 0 00.52 2.64 12.48 12.48 0 01-.12 7.83 12.41 12.41 0 00-.12 7.83 12.11 12.11 0 01.34 1.35l2-.45c.08-.29.16-.57.26-.86zm-55.37 14.79a12.45 12.45 0 00.12-7.82 12.45 12.45 0 01.12-7.82 12.62 12.62 0 00.63-2.82h-3.7a12.9 12.9 0 00.53 2.81 12.45 12.45 0 01-.13 7.82 12.45 12.45 0 00-.12 7.82l.08.24h2.43zm18.48-7.54a12.48 12.48 0 01.12-7.83 12.48 12.48 0 00.12-7.83 12.45 12.45 0 01.12-7.82A12.33 12.33 0 00136 91l-3.14 3a12.4 12.4 0 01-.2 7.55 12.48 12.48 0 00-.12 7.83 12.48 12.48 0 01-.12 7.83 12.48 12.48 0 00-.12 7.83l.07.23h2.44l.08-.23a12.48 12.48 0 00.11-7.79z" fill="#5a0a00"/><path d="M114.34 132.43l15.81.24a11.88 11.88 0 008.47-3.35L141 127a11.91 11.91 0 018.47-3.35l11.5.18a9.19 9.19 0 006.51-2.59l7.18-7a6.45 6.45 0 002-4.52 6.43 6.43 0 00-6.34-6.54l-11.5-.18a8.36 8.36 0 01-5.91-2.56l-3.44-3.54a5.51 5.51 0 00-7.78-.12L122 115.91a6.82 6.82 0 01-4.86 1.92h-3a7.08 7.08 0 00-7.19 7 7.58 7.58 0 007.39 7.6z" fill="#fa9269"/><path d="M118.27 148.7l28.3.44 9.57-13.29 20.22.32 11.64-2.62.18-11.51a6.44 6.44 0 00-6.34-6.54l-11.5-.18a8.42 8.42 0 01-5.92-2.55l-3.42-3.54a5.49 5.49 0 00-7.78-.12l-19.72 19.11a6.8 6.8 0 01-4.85 1.92h-3.05a7.08 7.08 0 00-7.18 7z" fill="#e11900"/><path d="M164.9 133.53a12.48 12.48 0 00.12-7.83 12.45 12.45 0 01.12-7.82 12.23 12.23 0 00.69-4 8.66 8.66 0 01-1.37-1.13l-2-2.07a12.37 12.37 0 00.09 7.13 12.45 12.45 0 01-.12 7.82 12.48 12.48 0 00-.12 7.83 13.06 13.06 0 01.51 2.47h1.49a12.32 12.32 0 01.59-2.45zm18.37.28a12.38 12.38 0 00.12-7.82 12.48 12.48 0 01.13-7.83 13.32 13.32 0 00.55-2.24 6.36 6.36 0 00-2.19-.42h-1.47a12.1 12.1 0 00.52 2.64 12.48 12.48 0 01-.12 7.83 12.38 12.38 0 00-.12 7.82c.13.44.25.89.34 1.34l2-.44c.08-.29.16-.58.26-.86zm-55.37 14.81a12.48 12.48 0 00.12-7.83 12.48 12.48 0 01.12-7.83 12.5 12.5 0 00.63-2.82h-3.75a12.9 12.9 0 00.53 2.81 12.48 12.48 0 01-.13 7.83 12.48 12.48 0 00-.12 7.83l.08.23h2.43zm18.5-7.54a12.45 12.45 0 01.12-7.82 12.45 12.45 0 00.12-7.82 12.48 12.48 0 01.12-7.83 11.8 11.8 0 00.62-2.8l-3.13 3a12.43 12.43 0 01-.2 7.56 12.45 12.45 0 00-.12 7.82 12.45 12.45 0 01-.12 7.82 12.45 12.45 0 00-.12 7.82l.07.24h2.44l.08-.23a12.45 12.45 0 00.12-7.76z" fill="#5a0a00"/><path d="M125.72 156.25l15.81.25a11.89 11.89 0 008.47-3.36l2.42-2.34a11.88 11.88 0 018.47-3.36l11.5.18a9.14 9.14 0 006.51-2.62l7.18-7a6.41 6.41 0 002-4.52 6.44 6.44 0 00-6.38-6.48l-11.5-.17a8.49 8.49 0 01-5.92-2.56l-3.43-3.54a5.5 5.5 0 00-7.78-.12l-19.71 19.11a6.82 6.82 0 01-4.86 1.92h-3a7.07 7.07 0 00-7.19 7 7.56 7.56 0 007.41 7.61z" fill="#fa9269"/><path d="M185.13 138l.23-.5h-.71a5.78 5.78 0 00-1.1.11 8.21 8.21 0 001.08-2.81l.12-.69-.87.25a8.1 8.1 0 00-4.25 2.94l-.24.33a24.15 24.15 0 011.08-2.87 6.73 6.73 0 00.47-4.15l-.11-.58-.61.47a7.12 7.12 0 00-1.48 1.57 10.11 10.11 0 00-.79-2l-1.07-2.07a.26.26 0 00-.45 0l-1.07 2.09a10.49 10.49 0 00-.79 2 7.2 7.2 0 00-1.49-1.58l-.6-.46-.12.58a6.88 6.88 0 00.48 4.15 21.49 21.49 0 011.09 2.87l-.24-.33a8 8 0 00-4.25-2.93l-.88-.25.13.69a8.09 8.09 0 001.08 2.81 6.73 6.73 0 00-1.1-.12H168l.24.5a6.36 6.36 0 002.67 2.83 19.07 19.07 0 012 1.24l-.32-.14-.43-.18a3.16 3.16 0 00-.52-.17 4.49 4.49 0 00-2.33 0h-.09l-.39.1.26.29a4.43 4.43 0 001.37 1.06 4.22 4.22 0 001 .34l.49.12h.19l.3.09.23.07.23.08.28.09.17.07.32.12q.63.26 1.23.57c.35.18.69.37 1 .58s.51.32.75.49c.25-.17.49-.34.75-.5s.67-.4 1-.57c.4-.21.81-.39 1.23-.56l.37-.04.17-.07.27-.09.24-.08.23-.07.3-.09.18-.05.5-.12a4.45 4.45 0 001.28-.51 4.57 4.57 0 001.07-.89l.25-.29-.41-.11h-.07a4.39 4.39 0 00-2.33 0 3.16 3.16 0 00-.52.17l-.42.18-.32.15a21 21 0 012-1.25 6.36 6.36 0 002.71-2.88z" fill="#156a41"/><path d="M128 173.83l28.3.43 9.53-13.26 20.22.31 11.69-2.62.17-11.51a6.44 6.44 0 00-6.34-6.54l-11.5-.17a8.44 8.44 0 01-5.91-2.56l-3.43-3.54a5.51 5.51 0 00-7.79-.12l-19.71 19.11a6.82 6.82 0 01-4.86 1.92h-3a7.06 7.06 0 00-7.18 7z" fill="#e11900"/><path d="M174.59 158.65a12.45 12.45 0 00.12-7.82 12.45 12.45 0 01.12-7.82 12.33 12.33 0 00.69-4 8.22 8.22 0 01-1.36-1.14l-2-2.07a12.49 12.49 0 00.1 7.14 12.52 12.52 0 01-.12 7.82 12.52 12.52 0 00-.12 7.82 11.79 11.79 0 01.51 2.47h1.5a12.29 12.29 0 01.58-2.45zm18.41.29a12.48 12.48 0 00.12-7.83 12.48 12.48 0 01.12-7.83 11.63 11.63 0 00.55-2.24 6.61 6.61 0 00-2.19-.42h-1.47a12.59 12.59 0 00.52 2.64 12.48 12.48 0 01-.12 7.83 12.48 12.48 0 00-.12 7.83 12.52 12.52 0 01.34 1.34l2-.44c.08-.29.17-.58.27-.86zm-55.4 14.8a12.48 12.48 0 00.12-7.83 12.45 12.45 0 01.12-7.82 12.36 12.36 0 00.62-2.82.27.27 0 01-.09 0h-3a4.28 4.28 0 00-.62 0 12.83 12.83 0 00.54 2.8 12.45 12.45 0 01-.12 7.82 12.48 12.48 0 00-.12 7.83l.07.24h2.44zm18.49-7.54a12.48 12.48 0 01.12-7.83 12.55 12.55 0 00.12-7.83 12.41 12.41 0 01.12-7.83 12.87 12.87 0 00.62-2.8L154 143a12.48 12.48 0 01-.2 7.55 12.48 12.48 0 00-.12 7.83 12.48 12.48 0 01-.12 7.83 12.45 12.45 0 00-.13 7.82l.08.24h2.43l.06-.27a12.45 12.45 0 00.09-7.8z" fill="#5a0a00"/><path d="M135.42 181.38l15.8.24a11.91 11.91 0 008.47-3.35l2.42-2.35a11.9 11.9 0 018.47-3.35l11.5.17a9.17 9.17 0 006.52-2.58l7.18-7a6.45 6.45 0 002-4.53 6.44 6.44 0 00-6.34-6.53l-11.55-.1a8.44 8.44 0 01-5.89-2.6l-3.43-3.54a5.51 5.51 0 00-7.79-.12l-19.71 19.11a6.83 6.83 0 01-4.86 1.93l-3-.05a7.08 7.08 0 00-7.18 7 7.57 7.57 0 007.39 7.65z" fill="#fa9269"/><path d="M129.08 175.59l22.42 17.29 15.61-4.88 16 12.35 10.93 4.89 7-9.12a6.44 6.44 0 00-1.17-9l-9.11-7a8.45 8.45 0 01-3.2-5.59l-.64-4.89a5.49 5.49 0 00-6.16-4.75l-27.23 3.51a6.84 6.84 0 01-5-1.36l-2.41-1.86a7.07 7.07 0 00-9.92 1.28z" fill="#e11900"/><path d="M175.52 191.34a12.5 12.5 0 004.78-6.2 12.46 12.46 0 014.78-6.2 12.46 12.46 0 002.93-2.77 7.92 7.92 0 01-.41-1.73l-.37-2.86a12.47 12.47 0 00-4.2 5.78 12.5 12.5 0 01-4.78 6.2 12.48 12.48 0 00-4.78 6.19 12.49 12.49 0 01-1.07 2.25l1.19.91a12 12 0 011.93-1.61zm14.55 11.22a12.4 12.4 0 004.78-6.2 12.52 12.52 0 014.78-6.2 12 12 0 001.79-1.46 6.38 6.38 0 00-1.51-1.65l-1.16-.9a12.61 12.61 0 00-1.16 2.43 12.4 12.4 0 01-4.78 6.2A12.52 12.52 0 00188 201a11.1 11.1 0 01-.53 1.28l1.85.83c.24-.18.48-.36.73-.53zm-53.22-21.27a12.5 12.5 0 004.78-6.2 12.46 12.46 0 014.78-6.2 12.4 12.4 0 002.19-1.89l-.07-.05-2.41-1.86c-.17-.13-.34-.24-.51-.35a12.47 12.47 0 00-1.25 2.57 12.5 12.5 0 01-4.78 6.2 12.48 12.48 0 00-4.78 6.19l-.08.24 1.93 1.48zm19.33 5.02a12.56 12.56 0 014.78-6.2 12.52 12.52 0 004.78-6.2 12.45 12.45 0 014.78-6.2 12.16 12.16 0 002.17-1.87l-4.32.56a12.44 12.44 0 01-4.68 5.93 12.45 12.45 0 00-4.78 6.2 12.52 12.52 0 01-4.78 6.2 12.52 12.52 0 00-4.78 6.2l-.08.23 1.93 1.49.2-.14a12.4 12.4 0 004.78-6.2z" fill="#5a0a00"/><path d="M130.54 186.1l12.51 9.66a12 12 0 008.8 2.38l3.34-.44a12 12 0 018.79 2.38l9.11 7a9.16 9.16 0 006.76 1.83l9.93-1.28a6.45 6.45 0 004.27-2.46 6.44 6.44 0 00-1.17-9l-9.11-7a8.41 8.41 0 01-3.21-5.58l-.63-4.89a5.5 5.5 0 00-6.16-4.76l-27.23 3.52a6.84 6.84 0 01-5-1.36l-2.41-1.86a7.08 7.08 0 00-9.93 1.28 7.57 7.57 0 001.34 10.58z" fill="#fa9269"/><path d="M168.64 241.5l-.37-.15A42.62 42.62 0 01144.16 188l.41-1.19a111.34 111.34 0 00-2.81-79.91 111.35 111.35 0 00-50.52-54.85L68 39.79A22.8 22.8 0 0068.92 55l68.93 161.91a41.51 41.51 0 0030.79 24.59zM148.61 25.67l5.58 25.86a254 254 0 0029.88 76.15l28.17 47.45zm48.103 144.431l2.963 2.963-2.963 2.963-2.963-2.963z" fill="#ffe3ac"/><path d="M199.113 172.505l2.963 2.963-2.963 2.963-2.963-2.963z" fill="#fff"/><path d="M146.162 100.363l2.963 2.963-2.963 2.963-2.962-2.963z" fill="#ffe3ac"/><path d="M148.562 102.757l2.963 2.963-2.963 2.963-2.962-2.963zm1.748-21.507v-4.19h4.19v4.19z" fill="#fff"/><path d="M150.31 83.07v-4.19h4.19v4.19zm3.81 44.79h4.19v4.19h-4.19z" fill="#ffe3ac"/><path d="M155.96 127.86h4.19v4.19h-4.19z" fill="#fff"/><path d="M128.72 74.97h4.19v4.19h-4.19z" fill="#ffe3ac"/><path d="M130.56 74.97h4.19v4.19h-4.19z" fill="#fff"/><path d="M179.08 211.12h4.19v4.19h-4.19z" fill="#ffe3ac"/><path d="M180.92 211.12h4.19v4.19h-4.19z" fill="#fff"/><path d="M152.306 185.607l2.963-2.963 2.962 2.963-2.962 2.962z" fill="#ffe3ac"/><path d="M154.706 183.212l2.963-2.962 2.962 2.962-2.962 2.963z" fill="#fff"/><path d="M172.44 162.26l-3.08 3.08-10.86-7.19 4.92-4.91z" fill="#ffe3ac"/><path d="M175.52 159.17l-3.08 3.09-9.02-9.02 4.92-4.92z" fill="#ffcf70"/><path d="M160.99 107.11h-3.86l-2.29-11.28h6.15z" fill="#ffe3ac"/><path d="M164.84 107.11h-3.85V95.83h6.15z" fill="#ffcf70"/><path d="M217.22 61.29l-49.28-43.23a23 23 0 00-7.82-4.5L119.84 0H0v12.56L15 25a34 34 0 019.2 11.91l47.37 102.67a35.68 35.68 0 004.75 7.61l21.58 26.47a10 10 0 0013.1 2.08 9.69 9.69 0 004.43-8.92l-1.35-17.09a34.39 34.39 0 00-7.49-18.82l-1-1.31a30.83 30.83 0 01-6.21-13.22l-4.71-22.93a17.4 17.4 0 016.21-17l21.75-17.34a23.84 23.84 0 0123.31-3.65l19.83 7.52.74 1.14a33.91 33.91 0 0021 14.69l6 1.35-.45 3A41 41 0 00195.3 104l1.12 3-3.61 10.88a23.59 23.59 0 00-.1 14.56l4.37 13.83a3.09 3.09 0 005.75.39L218.7 113a10.73 10.73 0 001-4.27l1.3-38.68a11.15 11.15 0 00-3.78-8.76z" fill="#fa9269"/><path d="M91.44 160.9l.25-.37a12 12 0 0110.34-5.3l2 .06a5.12 5.12 0 014.42 2.84l3.15 6.29a12.24 12.24 0 011 8.2 7 7 0 01-6.12 5.38 6.94 6.94 0 01-6.29-2.82l-8.69-11.77a2.18 2.18 0 01-.06-2.51zm107.81-12.15a17.56 17.56 0 012.08-7.73l4.09-7.61a5.11 5.11 0 013.76-2.63.65.65 0 01.69.92l-7.55 16a3 3 0 01-2.48 1.68.56.56 0 01-.59-.63z" fill="#fabda5"/><path d="M155.62 195.05l-.52.21.54.47a7.06 7.06 0 00.89.66 8.11 8.11 0 00-2.69 1.35l-.56.43.82.4a8.07 8.07 0 005.12.68l.4-.08a22.68 22.68 0 01-2.73 1.4 6.8 6.8 0 00-3.15 2.75l-.3.51.76.06a6.8 6.8 0 002.16-.17 10.93 10.93 0 00-.77 2L155 208a.25.25 0 00.34.3l2.19-.82a10.61 10.61 0 001.94-1 6.88 6.88 0 000 2.17l.13.75.48-.35a6.8 6.8 0 002.43-3.39 22.66 22.66 0 011.13-2.86v.41a8.09 8.09 0 001.17 5l.48.77.37-.6a8.13 8.13 0 001.09-2.8 6.37 6.37 0 00.74.82l.52.49.16-.53a6.31 6.31 0 00-.08-3.89 19.63 19.63 0 01-.65-2.27c.05.1.09.21.14.32s.12.28.19.42a4.39 4.39 0 00.27.47 4.51 4.51 0 001.72 1.58h.09l.36.19v-.39a4.42 4.42 0 00-.3-1.7 4.11 4.11 0 00-.5-.92l-.28-.42c0-.06-.07-.11-.1-.16l-.17-.27-.12-.21-.12-.21-.14-.26a.8.8 0 01-.08-.16c-.06-.1-.11-.2-.16-.3-.19-.41-.37-.83-.53-1.25a10.32 10.32 0 01-.37-1.11c-.09-.29-.16-.58-.23-.87-.29 0-.59-.08-.88-.14s-.77-.16-1.15-.26c-.44-.12-.87-.25-1.3-.41l-.31-.12-.18-.07-.26-.11-.22-.1-.23-.11-.28-.13-.17-.09-.44-.24a4.44 4.44 0 00-1.3-.48 4.56 4.56 0 00-1.38-.06h-.39l.23.36v.06a4.55 4.55 0 002.23 1.78 3.26 3.26 0 00.44.15l.33.11a20.56 20.56 0 01-2.32-.43 6.34 6.34 0 00-3.91.39zm28.08-39.83h3.3v6.64h-3.3z" fill="#156a41"/><path d="M186.39 155.22h1.92v6.64h-1.92zm-19.61-47.08h4.12v1.57h-4.12zm-9.98-34.53h1.8v4.11h-1.8z" fill="#05a357"/><path d="M130.077 81.27l1.407 1.407-1.407 1.407-1.407-1.407zm22.733 81.64h6.17v2.43h-6.17z" fill="#156a41"/><path d="M152.81 164.78h6.17v2.43h-6.17zm0-31.27h2.02v3.29h-2.02zm16.66 47.13h2.93v4.97h-2.93z" fill="#05a357"/><path d="M177.99 197.28h6.66v1.93h-6.66z" fill="#156a41"/><path d="M202.42 207.16a1.58 1.58 0 000 3.15 1.58 1.58 0 000-3.15zm2.17-23.16a1.58 1.58 0 000 3.16 1.58 1.58 0 000-3.16zm-46.91 28.58a1.58 1.58 0 000 3.15 1.58 1.58 0 000-3.15z" fill="#ffcf70"/><path d="M349.09 0H293a66.5 66.5 0 1056.14 0z" fill="#bc8b2c"/><path d="M372.74 0h-85.07a66.5 66.5 0 1085.07 0z" fill="#fff"/><path d="M383.87 53.56a36.42 36.42 0 010-4.9 35.43 35.43 0 00-6-22.26 35.51 35.51 0 01-2.41-4.19v-.07A35.54 35.54 0 00359.2 5.87h-.07a35.59 35.59 0 01-4.19-2.42 35.14 35.14 0 00-6.4-3.45h-36.68a35.14 35.14 0 00-6.37 3.4 36.29 36.29 0 01-4.18 2.42h-.08a35.49 35.49 0 00-13.4 11.46 35 35 0 014.77-2.83h.08a36.29 36.29 0 004.18-2.42 35.43 35.43 0 0122.26-6 36.57 36.57 0 004.91 0 35.48 35.48 0 0122.25 6 35.59 35.59 0 004.19 2.42h.07a35.54 35.54 0 0116.24 16.24v.07a35.51 35.51 0 002.48 4.24 35.43 35.43 0 016 22.26 36.42 36.42 0 000 4.9 35.43 35.43 0 01-6 22.26 35.51 35.51 0 00-2.41 4.19v.07a35.76 35.76 0 01-2.85 4.84 35.51 35.51 0 0011.46-13.41v-.07a35.51 35.51 0 012.41-4.19 35.43 35.43 0 006-22.26z" fill="#156a41"/><path d="M366.85 88.67a35.51 35.51 0 012.41-4.19 35.43 35.43 0 006-22.26 36.42 36.42 0 010-4.9 35.43 35.43 0 00-6-22.26 35.51 35.51 0 01-2.41-4.19v-.07a35.54 35.54 0 00-16.28-16.3h-.07a35.59 35.59 0 01-4.19-2.42 35.42 35.42 0 00-22.25-6 36.57 36.57 0 01-4.91 0 35.43 35.43 0 00-22.26 6 36.29 36.29 0 01-4.18 2.42h-.08a35 35 0 00-4.77 2.83 34.79 34.79 0 00-2.86 4.78v.07a35.59 35.59 0 01-2.42 4.19 35.5 35.5 0 00-6 22.26 33.39 33.39 0 010 4.9 35.5 35.5 0 006 22.26 35.59 35.59 0 012.35 4.21v.07a35.58 35.58 0 0016.27 16.28h.08a36.29 36.29 0 014.18 2.42 35.5 35.5 0 0022.26 6 33.53 33.53 0 014.91 0 35.48 35.48 0 0022.25-6 35.59 35.59 0 014.19-2.42h.07a35.14 35.14 0 004.86-2.83 35.76 35.76 0 002.83-4.78z" fill="#05a357"/><path d="M291.09 30.57h6.65v2.58h-6.65zm1.09 29.72h3.07v3.07h-3.07zm26.72 25.7h3.58v8.69h-3.58z" fill="#156a41"/><path d="M321.82 85.99h3.58v8.69h-3.58z" fill="#addec9"/><path d="M340.85 15.62h2.75v5.29h-2.75zm13.937 33.088l5.685 5.685-2.1 2.1-5.685-5.685z" fill="#66d19e"/><path d="M317.101 10.356l5.685 5.686-2.1 2.1-5.685-5.685z" fill="#addec9"/><path d="M297.06 66.92h3.39v3.39h-3.39z" fill="#66d19e"/><path d="M356.21 45.44h6.63v1.66h-6.63zm-.228 30.54l3.543-3.543 3.543 3.543-3.543 3.542zm-38.214-26.458l4.144-4.144 1.682 1.683-4.143 4.143zm.347 8.166l4.144-4.143 1.683 1.682-4.144 4.144z" fill="#156a41"/><path d="M339.03 33.5h3.4V40h-3.4zm-40.27 9.94h1.99v1.99h-1.99zm40.27 44.75h6.14v2.14h-6.14zm-5.82-20.1h5.82v1.86h-5.82zm-35.47 13.3h2.01v5.77h-2.01zm5.56-63.73h2.37v2.37h-2.37z" fill="#06c167"/><path d="M352.86 29.39a1.65 1.65 0 000 3.29 1.65 1.65 0 000-3.29zM333 58.26a1.72 1.72 0 00-1.17-.49h-.1a1.68 1.68 0 00-1.16.49 1.64 1.64 0 00-.49 1.16 1.66 1.66 0 00.49 1.17 1.71 1.71 0 001.16.48h.1a1.64 1.64 0 001.65-1.65 1.65 1.65 0 00-.48-1.16zm-45.18-14a1.63 1.63 0 00-1.16-.48 1.71 1.71 0 00-1.17.48l-.1.1a1.65 1.65 0 000 2.33 1.67 1.67 0 001.17.48 1.71 1.71 0 001.17-.48l.09-.1a1.7 1.7 0 00.49-1.16 1.66 1.66 0 00-.49-1.17zm4.89 4.74a1.65 1.65 0 000 3.3 1.65 1.65 0 000-3.3zm28.76-20.12a1.7 1.7 0 00-1.16-.49h-.1a1.7 1.7 0 00-1.17.49 1.67 1.67 0 00-.48 1.16 1.69 1.69 0 00.48 1.17 1.74 1.74 0 001.17.48h.1a1.69 1.69 0 001.16-.48A1.72 1.72 0 00322 30a1.64 1.64 0 00-.53-1.12zM318 78.11a1.68 1.68 0 00-1.17-.49 1.64 1.64 0 00-1.16.49 1.7 1.7 0 00-.49 1.16v.1a1.72 1.72 0 00.49 1.17 1.67 1.67 0 001.16.48 1.69 1.69 0 001.17-.48 1.76 1.76 0 00.48-1.17v-.1a1.69 1.69 0 00-.48-1.16zm-8.61 7.26a1.65 1.65 0 000 3.29 1.65 1.65 0 000-3.29zm47.54 4.36a1.65 1.65 0 000 3.3 1.65 1.65 0 000-3.3zm12.61-24.51a1.65 1.65 0 000 3.29 1.65 1.65 0 000-3.29z" fill="#ffcf70"/><path d="M343.83 3.38a1.65 1.65 0 000 3.3 1.65 1.65 0 000-3.3zm34.64 31.76a1.65 1.65 0 000 3.3 1.65 1.65 0 000-3.3z" fill="#06c167"/><path d="M360.01 14.94h3.93v1.43h-3.93z" fill="#05a357"/><path d="M370.73 27.4h1.99v1.99h-1.99zM330.5 1.34h1.36v3.69h-1.36zm46.87 54.08h4.6v1.94h-4.6z" fill="#0f462d"/><path d="M290.31 140.82a8.25 8.25 0 00-5.36-9.29 5.13 5.13 0 01-1.6-.93 8.28 8.28 0 00-10.58-.06l-.1.08a5.36 5.36 0 01-1.6.93 8.24 8.24 0 00-5.36 9.29 4.9 4.9 0 010 1.87A8.23 8.23 0 00271 152a5.32 5.32 0 011.61.94 8.26 8.26 0 0010.64 0 5 5 0 011.59-.93 8.24 8.24 0 005.36-9.28 4.9 4.9 0 01.11-1.91z" fill="#bc8b2c"/><path d="M284.44 136.84l-1.56-1.56a4.75 4.75 0 01-1.39-3.36v-2.45h-2v2.45a4.75 4.75 0 01-1.39 3.36l-1.56 1.56a4.75 4.75 0 01-3.35 1.39h-2.45c0 .31-.05.63-.05 1s0 .65.05 1h2.45a4.75 4.75 0 013.35 1.39l1.56 1.56a4.75 4.75 0 011.39 3.36v2.44a7.72 7.72 0 001 0 7.52 7.52 0 001 0v-2.44a4.75 4.75 0 011.39-3.36l1.56-1.56a4.75 4.75 0 013.36-1.39h2.45v-2h-2.45a4.75 4.75 0 01-3.36-1.39z" fill="#ffe3ac"/><g fill="#fff2d9"><circle cx="283.34" cy="145.83" r="1.24"/><circle cx="285.38" cy="143.79" r="1.24"/><circle cx="287.41" cy="141.76" r="1.24"/><circle cx="287.19" cy="136.64" r="1.24"/><circle cx="285.19" cy="134.57" r="1.24"/><circle cx="283.19" cy="132.5" r="1.24"/><circle cx="277.95" cy="132.68" r="1.24"/><circle cx="275.87" cy="134.67" r="1.24"/><circle cx="273.8" cy="136.67" r="1.24"/><circle cx="273.98" cy="141.91" r="1.24"/><circle cx="275.98" cy="143.99" r="1.24"/><circle cx="277.97" cy="146.06" r="1.24"/></g><path d="M292.87 138.25a8.23 8.23 0 00-5.36-9.28 5.1 5.1 0 01-1.6-.92 8.25 8.25 0 00-10.57 0l-.1.09a5.33 5.33 0 01-1.6.93 8.24 8.24 0 00-5.36 9.28 5 5 0 010 1.88 8.24 8.24 0 005.36 9.28 5.17 5.17 0 011.61.93 8.26 8.26 0 0010.64 0 5.16 5.16 0 011.59-.92 8.23 8.23 0 005.36-9.28 5 5 0 01.03-1.99zM280.53 148a8.81 8.81 0 118.81-8.81 8.8 8.8 0 01-8.81 8.81z" fill="#156a41"/><path d="M291.35 138a6.71 6.71 0 00-4.36-7.54 6.8 6.8 0 01-2.1-1.22 6.73 6.73 0 00-8.71 0 7 7 0 01-2.11 1.22 6.72 6.72 0 00-4.36 7.54 6.67 6.67 0 010 2.44 6.72 6.72 0 004.36 7.54 7 7 0 012.11 1.22 6.73 6.73 0 008.71 0A6.8 6.8 0 01287 148a6.71 6.71 0 004.36-7.54 6.67 6.67 0 01-.01-2.46zm-10.82 10a8.81 8.81 0 118.81-8.81 8.8 8.8 0 01-8.81 8.81z" fill="#06c167"/><path d="M223.38 34.27a8.51 8.51 0 002.88-10.71 5.47 5.47 0 01-.5-1.85v-.06a8.55 8.55 0 00-7.7-7.78h-.14a5.4 5.4 0 01-1.85-.49 8.54 8.54 0 00-10.72 2.87 5.25 5.25 0 01-1.35 1.33 8.54 8.54 0 00-2.87 10.72 5.45 5.45 0 01.49 1.86 8.54 8.54 0 007.75 7.84h.06a5.58 5.58 0 011.84.49A8.51 8.51 0 00222 35.64a5.57 5.57 0 011.38-1.37z" fill="#bc8b2c"/><path d="M221.37 24v-2.33a5 5 0 011.44-3.48l1.79-1.79a9.14 9.14 0 00-.67-.74 7.85 7.85 0 00-.74-.67l-1.79 1.79a4.87 4.87 0 01-3.47 1.44h-2.28a4.87 4.87 0 01-3.47-1.44l-1.8-1.78c-.25.21-.5.43-.74.67s-.46.49-.67.74l1.8 1.79a4.94 4.94 0 011.43 3.48V24a4.9 4.9 0 01-1.43 3.47L209 29.21a9.51 9.51 0 00.67.74c.24.24.49.46.74.67l1.8-1.79a4.91 4.91 0 013.47-1.44h2.28a4.91 4.91 0 013.47 1.44l1.79 1.79a7.85 7.85 0 00.74-.67 6.68 6.68 0 00.67-.74l-1.79-1.79a4.91 4.91 0 01-1.47-3.42z" fill="#ffe3ac"/><circle cx="213.99" cy="29.73" fill="#fff2d9" r="1.28"/><circle cx="216.97" cy="29.73" fill="#fff2d9" r="1.28"/><circle cx="219.95" cy="29.73" fill="#fff2d9" r="1.28"/><circle cx="223.52" cy="25.82" fill="#fff2d9" r="1.28"/><circle cx="223.58" cy="22.84" fill="#fff2d9" r="1.28"/><circle cx="223.64" cy="19.86" fill="#fff2d9" r="1.28"/><circle cx="219.67" cy="16.15" fill="#fff2d9" r="1.28"/><circle cx="216.69" cy="16.09" fill="#fff2d9" r="1.28"/><circle cx="213.71" cy="16.04" fill="#fff2d9" r="1.28"/><circle cx="210" cy="20.01" fill="#fff2d9" r="1.28"/><circle cx="209.94" cy="22.99" fill="#fff2d9" r="1.28"/><circle cx="209.89" cy="25.97" fill="#fff2d9" r="1.28"/><path d="M226.5 31.15a8.51 8.51 0 002.88-10.71 5.47 5.47 0 01-.5-1.85v-.06a8.55 8.55 0 00-7.7-7.78H221a5.4 5.4 0 01-1.85-.49 8.52 8.52 0 00-10.72 2.87 5.25 5.25 0 01-1.37 1.37 8.54 8.54 0 00-2.87 10.72 5.45 5.45 0 01.49 1.86v.05a8.54 8.54 0 007.78 7.79h.06a5.58 5.58 0 011.84.49 8.51 8.51 0 0010.71-2.88 5.57 5.57 0 011.43-1.38zm-16.16-1.89a9.12 9.12 0 1112.9 0 9.13 9.13 0 01-12.9 0z" fill="#156a41"/><path d="M225.6 29.83a6.94 6.94 0 002.33-8.71 7 7 0 01-.65-2.43 6.94 6.94 0 00-6.38-6.37 7.13 7.13 0 01-2.43-.65 7 7 0 00-8.71 2.33 6.85 6.85 0 01-1.76 1.78 7 7 0 00-2.33 8.71 7.13 7.13 0 01.65 2.43 7 7 0 006.37 6.38 7 7 0 012.43.65 7 7 0 008.72-2.33 7 7 0 011.76-1.79zm-15.26-.57a9.12 9.12 0 1112.9 0 9.13 9.13 0 01-12.9 0z" fill="#06c167"/><path d="M354.62 185a44.81 44.81 0 01-41.5 12 37.88 37.88 0 0053.57-53.57A44.8 44.8 0 01354.62 185z" fill="#bc8b2c"/><path d="M354.62 185a44.8 44.8 0 0012.07-41.5l-53.6 53.5a44.81 44.81 0 0041.53-12z" fill="#bc8b2c"/><path d="M352.23 182.56a41.27 41.27 0 01-32 12.07l44.06-44.06a41.27 41.27 0 01-12.06 31.99z" fill="#bc8b2c"/><path d="M363.76 167.47l-.57-2-16 4.59a1.48 1.48 0 01-1.73-.73 4.83 4.83 0 00-.86-1.17l-6.73 6.72a4.94 4.94 0 001.35.95 1.49 1.49 0 01.81 1.72L335.87 194l2 .5 4.2-16.66a3.77 3.77 0 011.68-2.25l8.79 8.79 1.46-1.45-8.8-8.8c.05-.08.1-.15.14-.23a3.57 3.57 0 012.11-1.72z" fill="#bc8b2c"/><path d="M360 179.6a44.85 44.85 0 01-41.51 12.07A37.88 37.88 0 00372 138.1a44.83 44.83 0 01-12 41.5z" fill="#06c167"/><path d="M360 179.6a44.83 44.83 0 0012-41.5l-53.57 53.57A44.85 44.85 0 00360 179.6z" fill="#ffe3ac"/><path d="M357.58 177.21a41.27 41.27 0 01-32 12.07l44.06-44.06a41.27 41.27 0 01-12.06 31.99z" fill="#ffcf70"/><path d="M369.11 162.11l-.56-2-16 4.59a1.49 1.49 0 01-1.74-.72 4.63 4.63 0 00-.86-1.18l-6.72 6.73a4.57 4.57 0 001.35.94 1.51 1.51 0 01.81 1.73l-4.14 16.4 2 .5 4.2-16.66a3.8 3.8 0 011.68-2.26l8.8 8.8 1.45-1.46-8.79-8.79.14-.24a3.58 3.58 0 012.1-1.72z" fill="#ffe3ac"/><path d="M47.79 280.44l43.93-74.37a2.59 2.59 0 00-2.21-3.91l-86.36-.86a2.6 2.6 0 00-2.29 3.87l42.44 75.22a2.59 2.59 0 004.49.05z" fill="#993f21"/><path d="M26.29 216.35a1.57 1.57 0 000 3.14 1.57 1.57 0 000-3.14zM49 241.12a1.59 1.59 0 00-1.11-.46 1.57 1.57 0 00-1.11.46 1.62 1.62 0 00-.46 1.12v.23a1.61 1.61 0 00.46 1.11 1.59 1.59 0 001.11.46 1.57 1.57 0 001.11-.46 1.61 1.61 0 00.46-1.11v-.23a1.62 1.62 0 00-.46-1.12zm22.67-25.92a1.59 1.59 0 00-1.11-.46 1.57 1.57 0 00-1.11.46 1.66 1.66 0 00-.46 1.11v.23a1.62 1.62 0 00.46 1.12 1.64 1.64 0 001.11.46 1.57 1.57 0 001.57-1.58v-.23a1.61 1.61 0 00-.46-1.11z" fill="#993f21"/><path d="M406.16 322.1l.53-.14-.46-.53a6.21 6.21 0 00-.79-.75 8.26 8.26 0 002.8-1l.6-.35-.74-.49a8 8 0 00-4.91-1.34h-.39a20.7 20.7 0 012.86-1 6.62 6.62 0 003.4-2.26l.36-.46-.73-.16a6.64 6.64 0 00-2.13-.11 10.92 10.92 0 001-1.87l.88-2.12a.25.25 0 00-.29-.34l-2.24.51a10.25 10.25 0 00-2 .69 6.59 6.59 0 00.25-2.12v-.75l-.51.28a6.67 6.67 0 00-2.81 3 20.83 20.83 0 01-1.48 2.65c0-.13.07-.26.1-.39a8 8 0 00-.49-5.05l-.36-.82-.44.54a7.93 7.93 0 00-1.43 2.59 6.78 6.78 0 00-.61-.9l-.45-.54-.22.49a6.15 6.15 0 00-.43 3.78 22 22 0 01.34 2.32l-.09-.33c-.05-.14-.09-.29-.14-.43a3.07 3.07 0 00-.2-.5 4.39 4.39 0 00-1.47-1.76l-.08-.05-.32-.23-.06.38a4.42 4.42 0 00.08 1.7 4.29 4.29 0 00.36 1c.08.14.15.29.22.44s.05.12.08.17l.12.28.1.22.09.23c0 .09.07.17.1.26l.06.17c0 .11.08.21.11.32.13.42.25.85.36 1.28.08.37.15.75.21 1.13l.06.44a.67.67 0 00.47.56l.42.13c.37.12.73.25 1.08.4a13.17 13.17 0 011.2.57l.29.16.16.09.24.15.21.12.2.13.26.17.15.11.41.29a4.2 4.2 0 001.2.64 4.34 4.34 0 001.34.24h.41l-.18-.38v-.07a4.37 4.37 0 00-1.48-1.74 3.14 3.14 0 00-.46-.28l-.4-.21-.32-.15a21.52 21.52 0 012.23.73 6.15 6.15 0 003.77.26z" fill="#156a41"/><path d="M285.19 187.54l-.52-.25a4.78 4.78 0 01-1.3-.87 5.07 5.07 0 01-1-1.23l-.21-.38h.56a5.16 5.16 0 012.57.55l.54.31.42.31.32.23a22.69 22.69 0 00-1.94-1.86 7 7 0 01-2.27-3.72l-.15-.61.79.18a6.88 6.88 0 011.19.38 9.27 9.27 0 01-.54-3.35v-.8l.9.49a9.13 9.13 0 014 4.23l.18.42a25.06 25.06 0 00-.5-3.35 7.76 7.76 0 01.42-4.76l.27-.62.56.66a7.57 7.57 0 011.26 2.09 12.59 12.59 0 011.34-2l1.67-2.05a.3.3 0 01.51.11l.69 2.55a11.67 11.67 0 01.4 2.41 7.63 7.63 0 012-1.4l.78-.38v.67a7.91 7.91 0 01-1.56 4.56l-.5.7a4.5 4.5 0 01-1.43 1.35l-9.44 5.54z" fill="#05a357"/><path d="M246.423 169.984l3.678-2.522 2.522 3.679-3.679 2.522z" fill="#ffe3ac"/><path d="M248.258 168.724l3.679-2.521 2.521 3.678-3.678 2.522z" fill="#fff"/><path d="M26.69 114.014l3.679-2.522 2.522 3.68-3.68 2.52z" fill="#ffe3ac"/><path d="M28.525 112.755l3.68-2.522 2.52 3.679-3.678 2.521z" fill="#fff"/><path d="M414.74 358.027l4.211 4.175-4.174 4.212-4.212-4.174z" fill="#ffe3ac"/><path d="M416.84 360.11l4.212 4.174-4.174 4.212-4.212-4.174z" fill="#fff"/><path d="M410.14 398.14l2.136 2.136-5.417 5.416-2.135-2.135z" fill="#156a41"/><path d="M411.973 399.976l2.136 2.135-5.417 5.416-2.135-2.135z" fill="#05a357"/><path d="M25.494 140.92l2.135 2.135-5.416 5.417-2.136-2.136z" fill="#156a41"/><path d="M27.324 142.752l2.135 2.135-5.416 5.417-2.136-2.136z" fill="#05a357"/><path d="M189.033 4.68l2.136 2.136-5.417 5.417-2.135-2.136z" fill="#156a41"/><path d="M190.873 6.523l2.136 2.136-5.417 5.416-2.135-2.135zM445.36 386.45h5.78v2.21h-5.78zM220.94 155.3h2.4v2.4h-2.4zM9.57 94.64h2.4v2.4h-2.4z" fill="#05a357"/><path d="M470.31 406.73h2.4v2.4h-2.4zM306.206 144.02l2.46 2.46-2.46 2.46-2.46-2.46z" fill="#156a41"/><path d="M252 141.34a1.62 1.62 0 00-.4-.68l-.31-.25a1.58 1.58 0 00-.79-.21h-.18a1.15 1.15 0 00-.6.14 1.08 1.08 0 00-.5.32 1.71 1.71 0 00-.45 1.09l.05.41a1.59 1.59 0 00.4.69l.32.24a1.52 1.52 0 00.78.21h.18a1.1 1.1 0 00.6-.13 1.38 1.38 0 00.82-.82 1.1 1.1 0 00.13-.6zm150.76 236.92a1.5 1.5 0 00-.39-.68l-.32-.24a1.52 1.52 0 00-.78-.21h-.18a1.1 1.1 0 00-.6.13 1.38 1.38 0 00-.82.82 1.1 1.1 0 00-.13.6v.41a1.52 1.52 0 00.4.68l.31.24a1.6 1.6 0 00.79.22h.18a1.26 1.26 0 00.6-.14 1.22 1.22 0 00.5-.32 1.71 1.71 0 00.45-1.09zm38.77 25.08a1.5 1.5 0 00-.4-.69l-.31-.24a1.52 1.52 0 00-.78-.21h-.19a1.09 1.09 0 00-.59.13 1.11 1.11 0 00-.5.32 1.16 1.16 0 00-.32.5 1.23 1.23 0 00-.14.6l.06.41a1.52 1.52 0 00.4.68l.31.25a1.52 1.52 0 00.78.21h.15a1.1 1.1 0 00.59-.14 1 1 0 00.5-.32 1.13 1.13 0 00.32-.49 1.26 1.26 0 00.14-.6zM228.65 117.59a1.52 1.52 0 00-.4-.68l-.31-.25a1.56 1.56 0 00-.79-.21H227a1.15 1.15 0 00-.6.14 1 1 0 00-.49.32 1.15 1.15 0 00-.33.49 1.25 1.25 0 00-.13.6l.06.41a1.42 1.42 0 00.4.69l.31.24a1.52 1.52 0 00.78.21h.18a1.1 1.1 0 00.6-.13 1.38 1.38 0 00.82-.82 1.12 1.12 0 00.13-.6zm22.65-21.27a1.43 1.43 0 00-.4-.68l-.31-.24a1.52 1.52 0 00-.78-.21h-.18a1.1 1.1 0 00-.6.13 1.38 1.38 0 00-.82.82 1.1 1.1 0 00-.13.6v.41a1.52 1.52 0 00.4.68l.31.25a1.58 1.58 0 00.79.21h.18a1.15 1.15 0 00.6-.14 1.46 1.46 0 00.82-.82 1.19 1.19 0 00.13-.59zm-22.62-45.65a1.55 1.55 0 00-.4-.69l-.31-.24a1.52 1.52 0 00-.78-.21H227a1.09 1.09 0 00-.59.13 1.11 1.11 0 00-.5.32 1.79 1.79 0 00-.46 1.1l.06.41a1.43 1.43 0 00.4.68l.31.25a1.52 1.52 0 00.78.21h.19a1.65 1.65 0 001.09-.46 1.13 1.13 0 00.32-.49 1.26 1.26 0 00.14-.6zM165 6.27a1.65 1.65 0 00-.4-.69l-.32-.24a1.52 1.52 0 00-.78-.21h-.18a1.12 1.12 0 00-.6.13 1.16 1.16 0 00-.5.32 1.16 1.16 0 00-.32.5 1.12 1.12 0 00-.13.6l.05.41a1.62 1.62 0 00.4.68l.32.25a1.52 1.52 0 00.78.21h.18a1.25 1.25 0 00.6-.13 1.18 1.18 0 00.5-.33 1.23 1.23 0 00.32-.49 1.25 1.25 0 00.13-.6zm79.84 1.78a1.62 1.62 0 00-.4-.68l-.32-.25a1.52 1.52 0 00-.78-.21h-.18a1.15 1.15 0 00-.6.14 1.16 1.16 0 00-.5.32 1.11 1.11 0 00-.32.5 1.09 1.09 0 00-.13.59v.42a1.62 1.62 0 00.4.68l.32.24a1.52 1.52 0 00.78.21h.18a1.15 1.15 0 00.6-.13 1.38 1.38 0 00.82-.82 1.1 1.1 0 00.13-.6zM98.88 231.38a1.62 1.62 0 00-.4-.68l-.32-.24a1.52 1.52 0 00-.78-.21h-.18a1.12 1.12 0 00-.6.13 1.38 1.38 0 00-.82.82 1.1 1.1 0 00-.13.6v.41a1.62 1.62 0 00.4.68l.32.25a1.52 1.52 0 00.78.21h.18a1.79 1.79 0 001.1-.46 1.11 1.11 0 00.32-.5 1.09 1.09 0 00.13-.59zM60.55 184a1.55 1.55 0 00-.4-.69l-.31-.24a1.52 1.52 0 00-.78-.21h-.19a1.71 1.71 0 00-1.09.45 1.79 1.79 0 00-.46 1.1l.06.41a1.51 1.51 0 00.4.69l.31.24a1.52 1.52 0 00.78.21h.19a1.71 1.71 0 001.09-.45 1.16 1.16 0 00.32-.5 1.26 1.26 0 00.14-.6zM11.15 68.6a1.43 1.43 0 00-.4-.68l-.31-.24a1.44 1.44 0 00-.78-.22h-.18a1.21 1.21 0 00-.6.14 1.16 1.16 0 00-.5.32 1.11 1.11 0 00-.32.5 1.2 1.2 0 00-.14.59l.06.42a1.52 1.52 0 00.4.68l.31.24a1.56 1.56 0 00.79.21h.18a1.15 1.15 0 00.6-.13 1.13 1.13 0 00.49-.32 1.08 1.08 0 00.32-.5 1.11 1.11 0 00.14-.6z" fill="#fff2d9"/><path d="M453 15.76l-1.52 3.74a16.26 16.26 0 01-9.65 9.17L429.39 33a5.21 5.21 0 00-.65 9.55l1.85.94a9.27 9.27 0 014.86 6.51l.38 1.93a7.09 7.09 0 0011.87 3.75l6.53-6.26a17.32 17.32 0 0112.5-4.82l11.2.31a7.18 7.18 0 005.52-12 7.23 7.23 0 011.52-11l3.5-2.18A6.5 6.5 0 00486 7.79l-15.18-2.22A16.71 16.71 0 00453 15.76z" fill="#05a357"/><path d="M462.05 17.53a1.57 1.57 0 000 3.13 1.57 1.57 0 000-3.13zm7.79 18.07a1.57 1.57 0 000 3.13 1.57 1.57 0 000-3.13zm13.91-23.12a1.57 1.57 0 000 3.13 1.57 1.57 0 000-3.13z" fill="#ffcf70"/><path d="M448.5 46.4a1.57 1.57 0 000 3.13 1.57 1.57 0 000-3.13z" fill="#ffc043"/><path d="M438.896 36.271l3.693 3.886L441 41.665l-3.692-3.885zm38.574-.911h3.31v3.6h-3.31z" fill="#66d19e"/><path d="M477.47 38.96h3.31v1.68h-3.31z" fill="#156a41"/><path d="M455.93 28.25h4.61v4.61h-4.61z" fill="#0f462d"/><path d="M455.93 31.97h4.61v1.83h-4.61zm19.378-16.982l1.987 1.987-1.987 1.986-1.987-1.986zM448.01 31.52h.99v3.65h-.99z" fill="#156a41"/><path d="M475.69 26.61h4.38v1.64h-4.38z" fill="#66d19e"/><path d="M435.53 43.77c-2.14-2.33-5.27-2.42-8.22-2.27a5.41 5.41 0 001.43 1.07l1.85.94a9.27 9.27 0 014.86 6.49l.38 1.93c0 .19.09.38.14.57 1.49-2.5 1.08-7.06-.44-8.73zM466 42.44a10.07 10.07 0 00-9.83 3.6l-4.81 6-.11.14 2.94-2.82a17.32 17.32 0 0112.5-4.82l11.2.31h.46z" fill="#156a41"/><path d="M52.22 276.42l43.92-74.37a2.59 2.59 0 00-2.2-3.91l-86.37-.86a2.6 2.6 0 00-2.28 3.87l42.44 75.22a2.59 2.59 0 004.49.05z" fill="#ffcf70"/><path d="M30.71 212.33a1.57 1.57 0 000 3.14 1.57 1.57 0 000-3.14zm22.68 24.77a1.66 1.66 0 00-1.12-.46 1.61 1.61 0 00-1.11.46 1.66 1.66 0 00-.46 1.12v.23a1.66 1.66 0 00.46 1.11 1.59 1.59 0 001.11.46 1.62 1.62 0 001.12-.46 1.66 1.66 0 00.46-1.11v-.23a1.66 1.66 0 00-.46-1.12zm22.71-25.92a1.58 1.58 0 00-2.23 0 1.66 1.66 0 00-.46 1.11v.23A1.57 1.57 0 0075 214.1a1.62 1.62 0 001.12-.46 1.66 1.66 0 00.46-1.12v-.23a1.66 1.66 0 00-.48-1.11z" fill="#ffe3ac"/><path d="M50.42 168.13l.45-.22a4.15 4.15 0 001.13-.76 4.37 4.37 0 00.84-1.07l.19-.33h-.49a4.46 4.46 0 00-2.7.75c-.13.08-.25.17-.37.26l-.28.2a21 21 0 011.67-1.6 6.13 6.13 0 002-3.26l.13-.53-.68.16a6.29 6.29 0 00-1 .33 7.82 7.82 0 00.47-2.92v-.69l-.79.42a8 8 0 00-3.49 3.69c0 .12-.1.24-.16.36a23.07 23.07 0 01.46-3 6.73 6.73 0 00-.39-4.08l-.23-.54-.49.57a7.07 7.07 0 00-1.1 1.82 10.84 10.84 0 00-1.17-1.77l-1.45-1.79a.26.26 0 00-.44.1l-.6 2.22a9.91 9.91 0 00-.35 2.1 6.47 6.47 0 00-1.75-1.22l-.68-.33v.59a6.73 6.73 0 001.3 3.89c.34.45.66.92 1 1.4l9 5.28z" fill="#156a41"/></svg>